<svg xmlns="http://www.w3.org/2000/svg" xmlns:xlink="http://www.w3.org/1999/xlink" width="1080" zoomAndPan="magnify" viewBox="0 0 810 809.999993" height="1080" preserveAspectRatio="xMidYMid meet" version="1.0"><defs><clipPath id="e1b85a8b97"><path d="M 15.636719 16 L 794.136719 16 L 794.136719 795 L 15.636719 795 Z M 15.636719 16 " clip-rule="nonzero"/></clipPath></defs><rect x="-81" width="972" fill="none" y="-80.999999" height="971.999992" fill-opacity="1"/><rect x="-81" width="972" fill="none" y="-80.999999" height="971.999992" fill-opacity="1"/><g clip-path="url(#e1b85a8b97)"><path fill="#0b4d4c" d="M 783.328125 394.515625 L 733.039062 394.515625 C 702.457031 369.164062 673.316406 356.566406 645.851562 351.503906 L 645.851562 316.488281 C 659.6875 313.636719 678.644531 308.75 691.71875 297.511719 C 707.410156 284.023438 717.316406 259.945312 716.949219 236.167969 C 716.855469 230.207031 712.046875 225.394531 706.085938 225.304688 C 683.652344 224.941406 659.679688 234.582031 645.851562 249.351562 L 645.851562 218.988281 C 659.691406 216.136719 678.644531 211.253906 691.71875 200.011719 C 707.410156 186.527344 717.316406 162.445312 716.949219 138.667969 C 716.855469 132.707031 712.046875 127.894531 706.085938 127.804688 C 683.652344 127.453125 659.679688 137.085938 645.851562 151.855469 L 645.851562 130.535156 C 652.601562 120.523438 663.152344 104.4375 664.410156 87.769531 C 665.753906 69.972656 657.144531 49.28125 642.472656 35.0625 C 638.195312 30.914062 631.394531 30.914062 627.113281 35.0625 C 612.949219 48.796875 604.128906 69.90625 605.167969 87.585938 C 606.089844 103.324219 614.796875 116.6875 622.480469 128.476562 C 622.925781 129.160156 623.34375 129.820312 623.78125 130.492188 L 623.78125 151.828125 C 609.953125 137.078125 586.027344 127.480469 563.578125 127.808594 C 557.617188 127.902344 552.808594 132.710938 552.714844 138.671875 C 552.347656 162.449219 562.25 186.53125 577.941406 200.015625 C 591.011719 211.25 609.945312 216.132812 623.78125 218.988281 L 623.78125 249.328125 C 610.191406 234.835938 586.835938 225.300781 564.757812 225.300781 C 564.363281 225.300781 563.972656 225.300781 563.578125 225.308594 C 557.617188 225.402344 552.808594 230.210938 552.714844 236.171875 C 552.347656 259.949219 562.25 284.027344 577.941406 297.515625 C 591.011719 308.75 609.945312 313.632812 623.78125 316.488281 L 623.78125 348.945312 C 591.597656 347.320312 561.976562 354.699219 535.347656 361.792969 C 501.105469 342.503906 461.023438 332.035156 416.015625 330.570312 L 416.015625 300.726562 C 429.855469 297.875 448.808594 292.992188 461.886719 281.75 C 477.582031 268.261719 487.480469 244.183594 487.113281 220.40625 C 487.019531 214.445312 482.214844 209.636719 476.25 209.542969 C 453.835938 209.179688 429.847656 218.824219 416.015625 233.59375 L 416.015625 203.230469 C 429.855469 200.375 448.808594 195.492188 461.886719 184.253906 C 477.582031 170.765625 487.480469 146.683594 487.113281 122.90625 C 487.019531 116.945312 482.214844 112.136719 476.25 112.042969 C 453.835938 111.691406 429.847656 121.328125 416.015625 136.09375 L 416.015625 114.773438 C 422.765625 104.765625 433.316406 88.675781 434.574219 72.003906 C 435.921875 54.207031 427.308594 33.519531 412.640625 19.296875 C 408.359375 15.148438 401.558594 15.148438 397.28125 19.296875 C 383.113281 33.035156 374.292969 54.140625 375.332031 71.820312 C 376.257812 87.558594 384.964844 100.925781 392.648438 112.71875 C 393.09375 113.398438 393.511719 114.058594 393.945312 114.726562 L 393.945312 136.0625 C 380.113281 121.3125 356.140625 111.703125 333.742188 112.042969 C 327.785156 112.136719 322.972656 116.945312 322.878906 122.90625 C 322.511719 146.679688 332.414062 170.761719 348.109375 184.253906 C 361.175781 195.484375 380.109375 200.367188 393.945312 203.222656 L 393.945312 233.5625 C 380.113281 218.8125 356.140625 209.203125 333.742188 209.542969 C 327.785156 209.636719 322.972656 214.445312 322.878906 220.40625 C 322.511719 244.179688 332.414062 268.261719 348.109375 281.75 C 361.175781 292.984375 380.109375 297.867188 393.945312 300.722656 L 393.945312 330.5625 C 346.164062 332.0625 300.820312 343.21875 267.398438 361.796875 C 241.972656 355.015625 215.035156 348.199219 186.183594 348.910156 L 186.183594 316.492188 C 200.023438 313.636719 218.976562 308.753906 232.050781 297.515625 C 247.746094 284.027344 257.648438 259.945312 257.28125 236.167969 C 257.1875 230.210938 252.378906 225.398438 246.417969 225.308594 C 224.023438 224.957031 200.015625 234.589844 186.183594 249.359375 L 186.183594 218.992188 C 200.023438 216.140625 218.976562 211.253906 232.050781 200.015625 C 247.746094 186.527344 257.648438 162.449219 257.28125 138.671875 C 257.1875 132.710938 252.378906 127.902344 246.417969 127.808594 C 224.023438 127.472656 200.015625 137.089844 186.183594 151.859375 L 186.183594 130.539062 C 192.933594 120.527344 203.480469 104.4375 204.742188 87.769531 C 206.085938 69.972656 197.476562 49.285156 182.808594 35.0625 C 178.527344 30.914062 171.726562 30.914062 167.445312 35.0625 C 153.28125 48.796875 144.460938 69.90625 145.5 87.582031 C 146.425781 103.324219 155.132812 116.691406 162.816406 128.484375 C 163.257812 129.164062 163.679688 129.820312 164.113281 130.488281 L 164.113281 151.824219 C 150.523438 137.332031 127.164062 127.796875 105.089844 127.796875 C 104.695312 127.796875 104.300781 127.800781 103.910156 127.804688 C 97.949219 127.898438 93.136719 132.707031 93.046875 138.667969 C 92.679688 162.445312 102.582031 186.527344 118.273438 200.015625 C 131.34375 211.246094 150.277344 216.128906 164.113281 218.984375 L 164.113281 249.324219 C 150.28125 234.574219 126.316406 224.964844 103.910156 225.304688 C 97.949219 225.398438 93.136719 230.207031 93.046875 236.167969 C 92.679688 259.945312 102.582031 284.023438 118.273438 297.515625 C 131.34375 308.746094 150.277344 313.628906 164.113281 316.484375 L 164.113281 350.992188 C 136.671875 355.554688 107.523438 368.097656 76.371094 394.515625 L 26.671875 394.515625 C 20.578125 394.515625 15.636719 399.453125 15.636719 405.546875 L 15.636719 443.378906 C 15.636719 463.164062 31.734375 479.261719 51.523438 479.261719 C 81.441406 479.261719 107.152344 496.46875 118.625 524.164062 C 130.097656 551.863281 124.082031 582.210938 102.925781 603.367188 C 88.933594 617.359375 88.933594 640.125 102.929688 654.117188 L 156.429688 707.621094 C 163.207031 714.398438 172.21875 718.128906 181.808594 718.128906 C 191.394531 718.128906 200.40625 714.398438 207.183594 707.621094 C 228.367188 686.433594 258.726562 680.394531 286.40625 691.863281 C 314.089844 703.328125 331.285156 729.0625 331.285156 759.023438 C 331.285156 778.808594 347.382812 794.910156 367.171875 794.910156 L 442.832031 794.910156 C 462.621094 794.910156 478.71875 778.8125 478.71875 759.023438 C 478.71875 729.105469 495.921875 703.394531 523.617188 691.925781 C 551.316406 680.453125 581.664062 686.46875 602.816406 707.621094 C 609.59375 714.398438 618.609375 718.128906 628.195312 718.128906 C 637.78125 718.128906 646.792969 714.398438 653.570312 707.621094 L 707.074219 654.117188 C 721.066406 640.125 721.066406 617.359375 707.074219 603.367188 C 685.917969 582.210938 679.90625 551.863281 691.375 524.167969 C 702.847656 496.46875 728.558594 479.265625 758.476562 479.265625 C 778.265625 479.265625 794.363281 463.167969 794.363281 443.382812 L 794.363281 405.546875 C 794.359375 399.453125 789.421875 394.515625 783.328125 394.515625 Z M 661.355469 265.054688 C 668.484375 257.035156 681.058594 250.804688 693.902344 248.417969 C 691.601562 261.445312 685.460938 273.792969 677.332031 280.777344 C 670.292969 286.828125 659.15625 290.605469 649.246094 293.085938 C 651.773438 282.359375 655.050781 272.148438 661.355469 265.054688 Z M 661.355469 167.558594 C 668.484375 159.539062 681.058594 153.304688 693.902344 150.921875 C 691.601562 163.949219 685.460938 176.292969 677.332031 183.28125 C 670.292969 189.332031 659.15625 193.109375 649.246094 195.589844 C 651.773438 184.863281 655.050781 174.648438 661.355469 167.558594 Z M 592.328125 183.277344 C 584.199219 176.292969 578.058594 163.945312 575.761719 150.921875 C 588.601562 153.304688 601.179688 159.539062 608.308594 167.558594 C 614.609375 174.652344 617.890625 184.863281 620.417969 195.589844 C 610.507812 193.109375 599.371094 189.328125 592.328125 183.277344 Z M 592.328125 280.777344 C 584.199219 273.792969 578.058594 261.445312 575.761719 248.417969 C 588.601562 250.804688 601.179688 257.039062 608.308594 265.058594 C 614.609375 272.148438 617.890625 282.363281 620.417969 293.089844 C 610.507812 290.605469 599.367188 286.828125 592.328125 280.777344 Z M 634.847656 60.496094 C 640.066406 68.753906 643 78.246094 642.40625 86.105469 C 641.914062 92.644531 638.554688 100.085938 634.8125 106.671875 C 630.785156 99.847656 627.59375 92.976562 627.199219 86.289062 C 626.734375 78.398438 629.738281 68.742188 634.847656 60.496094 Z M 431.523438 249.292969 C 438.652344 241.273438 451.226562 235.039062 464.070312 232.65625 C 461.769531 245.683594 455.628906 258.027344 447.5 265.011719 C 440.460938 271.0625 429.324219 274.839844 419.414062 277.324219 C 421.941406 266.597656 425.21875 256.382812 431.523438 249.292969 Z M 431.523438 151.796875 C 438.652344 143.773438 451.226562 137.542969 464.070312 135.15625 C 461.769531 148.183594 455.628906 160.527344 447.5 167.515625 C 440.460938 173.566406 429.324219 177.34375 419.414062 179.824219 C 421.941406 169.097656 425.21875 158.886719 431.523438 151.796875 Z M 362.496094 167.515625 C 354.367188 160.527344 348.226562 148.183594 345.929688 135.15625 C 358.769531 137.542969 371.347656 143.773438 378.476562 151.796875 C 384.777344 158.886719 388.058594 169.101562 390.585938 179.824219 C 380.675781 177.34375 369.539062 173.566406 362.496094 167.515625 Z M 362.496094 265.015625 C 354.367188 258.027344 348.226562 245.683594 345.929688 232.65625 C 358.769531 235.042969 371.347656 241.273438 378.476562 249.296875 C 384.777344 256.386719 388.058594 266.601562 390.585938 277.324219 C 380.675781 274.84375 369.535156 271.0625 362.496094 265.015625 Z M 201.691406 265.054688 C 208.820312 257.035156 221.394531 250.804688 234.238281 248.417969 C 231.9375 261.445312 225.796875 273.792969 217.667969 280.777344 C 210.628906 286.828125 199.492188 290.605469 189.582031 293.085938 C 192.109375 282.363281 195.386719 272.148438 201.691406 265.054688 Z M 201.691406 167.558594 C 208.820312 159.539062 221.394531 153.304688 234.238281 150.921875 C 231.9375 163.945312 225.796875 176.292969 217.667969 183.28125 C 210.628906 189.332031 199.492188 193.109375 189.582031 195.589844 C 192.109375 184.863281 195.386719 174.648438 201.691406 167.558594 Z M 132.664062 183.277344 C 124.535156 176.292969 118.394531 163.945312 116.09375 150.921875 C 128.9375 153.304688 141.515625 159.539062 148.644531 167.558594 C 154.945312 174.648438 158.226562 184.863281 160.753906 195.589844 C 150.84375 193.109375 139.707031 189.328125 132.664062 183.277344 Z M 132.664062 280.777344 C 124.535156 273.789062 118.394531 261.445312 116.09375 248.417969 C 128.9375 250.804688 141.515625 257.035156 148.644531 265.054688 C 154.945312 272.148438 158.226562 282.363281 160.753906 293.085938 C 150.84375 290.605469 139.703125 286.828125 132.664062 280.777344 Z M 175.183594 60.496094 C 180.402344 68.757812 183.335938 78.246094 182.742188 86.105469 C 182.246094 92.644531 178.886719 100.089844 175.148438 106.671875 C 171.121094 99.847656 167.929688 92.976562 167.535156 86.289062 C 167.070312 78.398438 170.078125 68.746094 175.183594 60.496094 Z M 405.015625 44.730469 C 410.234375 52.992188 413.167969 62.480469 412.574219 70.339844 C 412.078125 76.878906 408.71875 84.324219 404.980469 90.910156 C 400.953125 84.085938 397.761719 77.214844 397.367188 70.527344 C 396.902344 62.632812 399.910156 52.980469 405.015625 44.730469 Z M 265.375 384.097656 L 266.09375 384.289062 C 268.953125 385.054688 272.007812 384.636719 274.5625 383.125 C 307.515625 363.625 355.054688 352.441406 405 352.441406 C 452.324219 352.441406 493.761719 362.765625 528.167969 383.125 C 530.722656 384.636719 533.777344 385.054688 536.636719 384.289062 C 583.558594 371.738281 635.949219 357.734375 695.441406 394.515625 L 113.175781 394.515625 C 169.195312 358.378906 216.09375 370.914062 265.375 384.097656 Z M 575.375 416.582031 C 569.667969 505.605469 495.4375 576.289062 405 576.289062 C 314.558594 576.289062 240.332031 505.605469 234.625 416.582031 Z M 772.292969 443.378906 C 772.292969 450.996094 766.09375 457.195312 758.476562 457.195312 C 719.460938 457.195312 685.9375 479.621094 670.984375 515.71875 C 656.03125 551.820312 663.878906 591.382812 691.464844 618.96875 C 696.851562 624.359375 696.851562 633.125 691.46875 638.511719 L 637.960938 692.015625 C 635.355469 694.621094 631.886719 696.058594 628.191406 696.058594 C 624.5 696.058594 621.03125 694.621094 618.421875 692.015625 C 590.835938 664.425781 551.273438 656.578125 515.171875 671.535156 C 479.074219 686.488281 456.648438 720.011719 456.648438 759.023438 C 456.648438 766.640625 450.449219 772.839844 442.832031 772.839844 L 367.167969 772.839844 C 359.550781 772.839844 353.351562 766.640625 353.351562 759.023438 C 353.351562 719.96875 330.9375 686.417969 294.851562 671.472656 C 282.757812 666.464844 270.277344 664.019531 257.980469 664.019531 C 233.589844 664.019531 209.9375 673.652344 191.574219 692.015625 C 188.96875 694.625 185.5 696.0625 181.808594 696.0625 C 178.113281 696.0625 174.644531 694.625 172.035156 692.015625 L 118.535156 638.515625 C 113.144531 633.125 113.144531 624.359375 118.535156 618.972656 C 146.121094 591.386719 153.96875 551.820312 139.015625 515.71875 C 124.058594 479.621094 90.535156 457.195312 51.523438 457.195312 C 43.90625 457.195312 37.707031 450.996094 37.707031 443.382812 L 37.707031 416.582031 L 212.511719 416.582031 C 218.25 517.785156 302.386719 598.359375 405 598.359375 C 507.609375 598.359375 591.746094 517.785156 597.488281 416.582031 L 772.292969 416.582031 Z M 519.40625 496.4375 C 519.40625 502.53125 514.46875 507.472656 508.371094 507.472656 L 301.625 507.472656 C 295.53125 507.472656 290.589844 502.53125 290.589844 496.4375 C 290.589844 490.34375 295.53125 485.402344 301.625 485.402344 L 508.371094 485.402344 C 514.46875 485.402344 519.40625 490.34375 519.40625 496.4375 Z M 534.960938 462.027344 L 275.035156 462.027344 C 268.941406 462.027344 264.003906 457.085938 264.003906 450.992188 C 264.003906 444.898438 268.941406 439.957031 275.035156 439.957031 L 534.964844 439.957031 C 541.058594 439.957031 546 444.898438 546 450.992188 C 546 457.085938 541.058594 462.027344 534.960938 462.027344 Z M 435.082031 541.878906 C 435.082031 547.972656 430.140625 552.914062 424.046875 552.914062 L 385.953125 552.914062 C 379.859375 552.914062 374.917969 547.972656 374.917969 541.878906 C 374.917969 535.785156 379.859375 530.84375 385.953125 530.84375 L 424.046875 530.84375 C 430.140625 530.84375 435.082031 535.785156 435.082031 541.878906 Z M 435.082031 541.878906 " fill-opacity="1" fill-rule="nonzero"/></g></svg>