<svg xmlns="http://www.w3.org/2000/svg" xmlns:xlink="http://www.w3.org/1999/xlink" width="1080" zoomAndPan="magnify" viewBox="0 0 810 809.999993" height="1080" preserveAspectRatio="xMidYMid meet" version="1.0"><defs><clipPath id="7e812a0041"><path d="M 37.941406 196 L 109 196 L 109 223 L 37.941406 223 Z M 37.941406 196 " clip-rule="nonzero"/></clipPath><clipPath id="e0f3d0d557"><path d="M 37.941406 286 L 109 286 L 109 313 L 37.941406 313 Z M 37.941406 286 " clip-rule="nonzero"/></clipPath><clipPath id="0c15c07aa4"><path d="M 37.941406 377 L 109 377 L 109 404 L 37.941406 404 Z M 37.941406 377 " clip-rule="nonzero"/></clipPath><clipPath id="555b1b8237"><path d="M 37.941406 468 L 109 468 L 109 495 L 37.941406 495 Z M 37.941406 468 " clip-rule="nonzero"/></clipPath><clipPath id="44c75c1676"><path d="M 37.941406 559 L 109 559 L 109 586 L 37.941406 586 Z M 37.941406 559 " clip-rule="nonzero"/></clipPath><clipPath id="492d8e82a4"><path d="M 209 690 L 236 690 L 236 760.703125 L 209 760.703125 Z M 209 690 " clip-rule="nonzero"/></clipPath><clipPath id="7eb5d16314"><path d="M 300 690 L 327 690 L 327 760.703125 L 300 760.703125 Z M 300 690 " clip-rule="nonzero"/></clipPath><clipPath id="e6d2d780c5"><path d="M 391 690 L 418 690 L 418 760.703125 L 391 760.703125 Z M 391 690 " clip-rule="nonzero"/></clipPath><clipPath id="5494fa5496"><path d="M 481 690 L 508 690 L 508 760.703125 L 481 760.703125 Z M 481 690 " clip-rule="nonzero"/></clipPath><clipPath id="0128a45692"><path d="M 572 690 L 599 690 L 599 760.703125 L 572 760.703125 Z M 572 690 " clip-rule="nonzero"/></clipPath></defs><rect x="-81" width="972" fill="#ffffff" y="-80.999999" height="971.999992" fill-opacity="1"/><rect x="-81" width="972" fill="#ffffff" y="-80.999999" height="971.999992" fill-opacity="1"/><path fill="#4f318b" d="M 583.992188 662.523438 L 227.023438 662.523438 C 183.484375 662.523438 147.925781 627.074219 147.925781 583.425781 L 147.925781 226.457031 C 147.925781 182.917969 183.371094 147.472656 227.023438 147.472656 L 583.992188 147.472656 C 627.53125 147.472656 662.976562 182.917969 662.976562 226.457031 L 662.976562 583.425781 C 662.976562 627.074219 627.53125 662.523438 583.992188 662.523438 Z M 227.023438 173.457031 C 197.847656 173.457031 174.027344 197.277344 174.027344 226.457031 L 174.027344 583.425781 C 174.027344 612.601562 197.847656 636.421875 227.023438 636.421875 L 583.992188 636.421875 C 613.167969 636.421875 636.988281 612.601562 636.988281 583.425781 L 636.988281 226.457031 C 636.988281 197.277344 613.167969 173.457031 583.992188 173.457031 Z M 227.023438 173.457031 " fill-opacity="1" fill-rule="nonzero"/><path fill="#4f318b" d="M 457.253906 504.554688 L 408.925781 504.554688 L 396.730469 470.816406 L 311.363281 470.816406 L 298.828125 504.554688 L 250.503906 504.554688 L 327.433594 305.328125 L 380.546875 305.328125 Z M 384.992188 433.546875 L 353.878906 347.839844 L 322.875 433.546875 Z M 384.992188 433.546875 " fill-opacity="1" fill-rule="nonzero"/><path fill="#4f318b" d="M 475.832031 305.328125 L 518.230469 305.328125 L 518.230469 504.554688 L 475.832031 504.554688 Z M 475.832031 305.328125 " fill-opacity="1" fill-rule="nonzero"/><path fill="#4f318b" d="M 222.578125 119.660156 C 215.398438 119.660156 209.585938 113.847656 209.585938 106.667969 L 209.585938 62.21875 C 209.585938 55.039062 215.398438 49.226562 222.578125 49.226562 C 229.757812 49.226562 235.570312 55.039062 235.570312 62.21875 L 235.570312 106.667969 C 235.570312 113.847656 229.757812 119.660156 222.578125 119.660156 Z M 222.578125 119.660156 " fill-opacity="1" fill-rule="nonzero"/><path fill="#4f318b" d="M 313.300781 119.660156 C 306.121094 119.660156 300.308594 113.847656 300.308594 106.667969 L 300.308594 62.21875 C 300.308594 55.039062 306.121094 49.226562 313.300781 49.226562 C 320.484375 49.226562 326.296875 55.039062 326.296875 62.21875 L 326.296875 106.667969 C 326.296875 113.847656 320.484375 119.660156 313.300781 119.660156 Z M 313.300781 119.660156 " fill-opacity="1" fill-rule="nonzero"/><path fill="#4f318b" d="M 404.027344 119.660156 C 396.847656 119.660156 391.03125 113.847656 391.03125 106.667969 L 391.03125 62.21875 C 391.03125 55.039062 396.84375 49.226562 404.027344 49.226562 C 411.207031 49.226562 417.019531 55.039062 417.019531 62.21875 L 417.019531 106.667969 C 417.132812 113.847656 411.207031 119.660156 404.027344 119.660156 Z M 404.027344 119.660156 " fill-opacity="1" fill-rule="nonzero"/><path fill="#4f318b" d="M 494.863281 119.660156 C 487.683594 119.660156 481.871094 113.847656 481.871094 106.667969 L 481.871094 62.21875 C 481.871094 55.039062 487.683594 49.226562 494.863281 49.226562 C 502.042969 49.226562 507.855469 55.039062 507.855469 62.21875 L 507.855469 106.667969 C 507.855469 113.847656 502.042969 119.660156 494.863281 119.660156 Z M 494.863281 119.660156 " fill-opacity="1" fill-rule="nonzero"/><path fill="#4f318b" d="M 585.585938 119.660156 C 578.40625 119.660156 572.59375 113.847656 572.59375 106.667969 L 572.59375 62.21875 C 572.59375 55.039062 578.40625 49.226562 585.585938 49.226562 C 592.769531 49.226562 598.582031 55.039062 598.582031 62.21875 L 598.582031 106.667969 C 598.582031 113.847656 592.769531 119.660156 585.585938 119.660156 Z M 585.585938 119.660156 " fill-opacity="1" fill-rule="nonzero"/><path fill="#4f318b" d="M 758.941406 222.125 L 714.492188 222.125 C 707.3125 222.125 701.5 216.3125 701.5 209.132812 C 701.5 201.953125 707.3125 196.136719 714.492188 196.136719 L 758.941406 196.136719 C 766.121094 196.136719 771.9375 201.953125 771.9375 209.132812 C 771.9375 216.3125 766.121094 222.125 758.941406 222.125 Z M 758.941406 222.125 " fill-opacity="1" fill-rule="nonzero"/><path fill="#4f318b" d="M 758.941406 312.847656 L 714.492188 312.847656 C 707.3125 312.847656 701.5 307.035156 701.5 299.855469 C 701.5 292.675781 707.3125 286.863281 714.492188 286.863281 L 758.941406 286.863281 C 766.121094 286.863281 771.9375 292.675781 771.9375 299.855469 C 772.050781 307.035156 766.121094 312.847656 758.941406 312.847656 Z M 758.941406 312.847656 " fill-opacity="1" fill-rule="nonzero"/><path fill="#4f318b" d="M 758.941406 403.6875 L 714.492188 403.6875 C 707.3125 403.6875 701.5 397.875 701.5 390.691406 C 701.5 383.511719 707.3125 377.699219 714.492188 377.699219 L 758.941406 377.699219 C 766.121094 377.699219 771.9375 383.511719 771.9375 390.691406 C 772.050781 397.875 766.121094 403.6875 758.941406 403.6875 Z M 758.941406 403.6875 " fill-opacity="1" fill-rule="nonzero"/><path fill="#4f318b" d="M 758.941406 494.410156 L 714.492188 494.410156 C 707.3125 494.410156 701.5 488.597656 701.5 481.417969 C 701.5 474.234375 707.3125 468.421875 714.492188 468.421875 L 758.941406 468.421875 C 766.121094 468.421875 771.9375 474.234375 771.9375 481.417969 C 772.050781 488.597656 766.121094 494.410156 758.941406 494.410156 Z M 758.941406 494.410156 " fill-opacity="1" fill-rule="nonzero"/><path fill="#4f318b" d="M 758.941406 585.246094 L 714.492188 585.246094 C 707.3125 585.246094 701.5 579.433594 701.5 572.253906 C 701.5 565.074219 707.3125 559.261719 714.492188 559.261719 L 758.941406 559.261719 C 766.121094 559.261719 771.9375 565.074219 771.9375 572.253906 C 772.050781 579.320312 766.121094 585.246094 758.941406 585.246094 Z M 758.941406 585.246094 " fill-opacity="1" fill-rule="nonzero"/><g clip-path="url(#7e812a0041)"><path fill="#4f318b" d="M 95.382812 222.125 L 50.933594 222.125 C 43.753906 222.125 37.941406 216.3125 37.941406 209.132812 C 37.941406 201.953125 43.753906 196.136719 50.933594 196.136719 L 95.382812 196.136719 C 102.5625 196.136719 108.375 201.953125 108.375 209.132812 C 108.375 216.3125 102.5625 222.125 95.382812 222.125 Z M 95.382812 222.125 " fill-opacity="1" fill-rule="nonzero"/></g><g clip-path="url(#e0f3d0d557)"><path fill="#4f318b" d="M 95.382812 312.847656 L 50.933594 312.847656 C 43.753906 312.847656 37.941406 307.035156 37.941406 299.855469 C 37.941406 292.675781 43.753906 286.863281 50.933594 286.863281 L 95.382812 286.863281 C 102.5625 286.863281 108.375 292.675781 108.375 299.855469 C 108.375 307.035156 102.5625 312.847656 95.382812 312.847656 Z M 95.382812 312.847656 " fill-opacity="1" fill-rule="nonzero"/></g><g clip-path="url(#0c15c07aa4)"><path fill="#4f318b" d="M 95.382812 403.6875 L 50.933594 403.6875 C 43.753906 403.6875 37.941406 397.875 37.941406 390.691406 C 37.941406 383.511719 43.753906 377.699219 50.933594 377.699219 L 95.382812 377.699219 C 102.5625 377.699219 108.375 383.511719 108.375 390.691406 C 108.375 397.875 102.5625 403.6875 95.382812 403.6875 Z M 95.382812 403.6875 " fill-opacity="1" fill-rule="nonzero"/></g><g clip-path="url(#555b1b8237)"><path fill="#4f318b" d="M 95.382812 494.410156 L 50.933594 494.410156 C 43.753906 494.410156 37.941406 488.597656 37.941406 481.417969 C 37.941406 474.234375 43.753906 468.421875 50.933594 468.421875 L 95.382812 468.421875 C 102.5625 468.421875 108.375 474.234375 108.375 481.417969 C 108.375 488.597656 102.5625 494.410156 95.382812 494.410156 Z M 95.382812 494.410156 " fill-opacity="1" fill-rule="nonzero"/></g><g clip-path="url(#44c75c1676)"><path fill="#4f318b" d="M 95.382812 585.246094 L 50.933594 585.246094 C 43.753906 585.246094 37.941406 579.433594 37.941406 572.253906 C 37.941406 565.074219 43.753906 559.261719 50.933594 559.261719 L 95.382812 559.261719 C 102.5625 559.261719 108.375 565.074219 108.375 572.253906 C 108.375 579.320312 102.5625 585.246094 95.382812 585.246094 Z M 95.382812 585.246094 " fill-opacity="1" fill-rule="nonzero"/></g><g clip-path="url(#492d8e82a4)"><path fill="#4f318b" d="M 222.578125 760.769531 C 215.398438 760.769531 209.585938 754.957031 209.585938 747.773438 L 209.585938 703.324219 C 209.585938 696.144531 215.398438 690.332031 222.578125 690.332031 C 229.757812 690.332031 235.570312 696.144531 235.570312 703.324219 L 235.570312 747.773438 C 235.570312 754.957031 229.757812 760.769531 222.578125 760.769531 Z M 222.578125 760.769531 " fill-opacity="1" fill-rule="nonzero"/></g><g clip-path="url(#7eb5d16314)"><path fill="#4f318b" d="M 313.300781 760.769531 C 306.121094 760.769531 300.308594 754.957031 300.308594 747.773438 L 300.308594 703.324219 C 300.308594 696.144531 306.121094 690.332031 313.300781 690.332031 C 320.484375 690.332031 326.296875 696.144531 326.296875 703.324219 L 326.296875 747.773438 C 326.296875 754.957031 320.484375 760.769531 313.300781 760.769531 Z M 313.300781 760.769531 " fill-opacity="1" fill-rule="nonzero"/></g><g clip-path="url(#e6d2d780c5)"><path fill="#4f318b" d="M 404.027344 760.769531 C 396.847656 760.769531 391.03125 754.957031 391.03125 747.773438 L 391.03125 703.324219 C 391.03125 696.144531 396.84375 690.332031 404.027344 690.332031 C 411.207031 690.332031 417.019531 696.144531 417.019531 703.324219 L 417.019531 747.773438 C 417.132812 754.957031 411.207031 760.769531 404.027344 760.769531 Z M 404.027344 760.769531 " fill-opacity="1" fill-rule="nonzero"/></g><g clip-path="url(#5494fa5496)"><path fill="#4f318b" d="M 494.863281 760.769531 C 487.683594 760.769531 481.871094 754.957031 481.871094 747.773438 L 481.871094 703.324219 C 481.871094 696.144531 487.683594 690.332031 494.863281 690.332031 C 502.042969 690.332031 507.855469 696.144531 507.855469 703.324219 L 507.855469 747.773438 C 507.855469 754.957031 502.042969 760.769531 494.863281 760.769531 Z M 494.863281 760.769531 " fill-opacity="1" fill-rule="nonzero"/></g><g clip-path="url(#0128a45692)"><path fill="#4f318b" d="M 585.585938 760.769531 C 578.40625 760.769531 572.59375 754.957031 572.59375 747.773438 L 572.59375 703.324219 C 572.59375 696.144531 578.40625 690.332031 585.585938 690.332031 C 592.769531 690.332031 598.582031 696.144531 598.582031 703.324219 L 598.582031 747.773438 C 598.582031 754.957031 592.769531 760.769531 585.585938 760.769531 Z M 585.585938 760.769531 " fill-opacity="1" fill-rule="nonzero"/></g></svg>