<svg xmlns="http://www.w3.org/2000/svg" xmlns:xlink="http://www.w3.org/1999/xlink" width="1080" zoomAndPan="magnify" viewBox="0 0 810 809.999993" height="1080" preserveAspectRatio="xMidYMid meet" version="1.0"><defs><clipPath id="f0262e78e2"><path d="M 78 47.746094 L 714 47.746094 L 714 372 L 78 372 Z M 78 47.746094 " clip-rule="nonzero"/></clipPath></defs><rect x="-81" width="972" fill="none" y="-80.999999" height="971.999992" fill-opacity="1"/><rect x="-81" width="972" fill="none" y="-80.999999" height="971.999992" fill-opacity="1"/><g clip-path="url(#f0262e78e2)"><path fill="#897731" d="M 573.558594 270.660156 C 586.441406 270.660156 596.875 281.171875 596.875 294.5 C 596.875 307.828125 586.441406 318.339844 573.558594 318.339844 C 560.636719 318.339844 550.210938 307.828125 550.210938 294.5 C 550.210938 281.171875 560.628906 270.660156 573.558594 270.660156 Z M 218.515625 270.660156 C 231.429688 270.660156 241.867188 281.171875 241.867188 294.5 C 241.867188 307.828125 231.429688 318.339844 218.515625 318.339844 C 205.632812 318.339844 195.199219 307.828125 195.199219 294.5 C 195.199219 281.171875 205.632812 270.660156 218.515625 270.660156 Z M 697.550781 199.054688 L 697.550781 227.539062 C 697.550781 230.804688 696.871094 232.238281 695.800781 233.355469 C 694.769531 234.480469 692.628906 235.769531 688.199219 236.445312 L 496.269531 265.609375 C 496.140625 257.597656 495.515625 249.730469 494.347656 241.941406 L 675.816406 227.582031 C 678.417969 227.367188 680.734375 225.933594 682.074219 223.738281 Z M 94.515625 199.054688 L 110 223.746094 C 111.339844 225.945312 113.667969 227.378906 116.261719 227.59375 L 297.675781 241.949219 C 296.511719 249.738281 295.882812 257.605469 295.753906 265.617188 L 103.867188 236.445312 C 99.4375 235.769531 97.300781 234.480469 96.269531 233.355469 C 95.195312 232.230469 94.515625 230.804688 94.515625 227.539062 Z M 463.886719 165.503906 L 514.792969 165.777344 C 517.824219 165.820312 518.769531 168.945312 518.769531 171.316406 C 518.769531 176.101562 516.261719 176.90625 513.539062 177.320312 L 476.0625 183.398438 C 472.652344 177.226562 468.625 171.179688 463.886719 165.503906 Z M 328.234375 165.503906 C 323.492188 171.179688 319.464844 177.226562 316.0625 183.398438 L 278.542969 177.320312 C 273.484375 176.503906 273.261719 174.535156 273.261719 171.316406 C 273.261719 168.054688 275.496094 165.820312 277.238281 165.777344 Z M 396.035156 149.1875 C 431.90625 149.1875 452.53125 171.453125 464.46875 195.929688 C 470.101562 207.503906 474.089844 220.972656 476.949219 235.734375 C 480.167969 252.152344 481.242188 268.609375 479.316406 285.472656 C 474.886719 324.214844 440.980469 355.027344 396.023438 355.027344 C 351.128906 355.027344 317.222656 324.214844 312.835938 285.472656 C 310.910156 268.609375 311.898438 252.152344 315.109375 235.734375 C 317.96875 220.972656 322.007812 207.503906 327.640625 195.929688 C 339.542969 171.453125 360.171875 149.1875 396.035156 149.1875 Z M 396.035156 65.894531 C 399.570312 65.894531 403.109375 69.472656 404.003906 76.714844 L 411.15625 134.191406 C 406.375 133.394531 401.304688 132.945312 396.035156 132.945312 C 390.769531 132.945312 385.703125 133.394531 380.875 134.191406 L 388.125 76.714844 C 389.058594 69.527344 392.546875 65.894531 396.035156 65.894531 Z M 396.035156 47.960938 C 388.964844 47.960938 382.671875 51.671875 378.644531 56.765625 C 374.617188 61.875 372.425781 68.304688 371.980469 75.203125 L 363.933594 138.984375 C 357.132812 141.664062 350.957031 145.15625 345.324219 149.21875 L 277.203125 149.589844 C 271.390625 149.632812 266.246094 152.542969 262.921875 156.296875 C 259.617188 160.050781 257.691406 164.609375 257.160156 169.53125 C 256.621094 174.449219 257.5625 179.863281 260.777344 184.429688 C 263.996094 188.988281 269.457031 192.339844 275.933594 193.371094 L 309.882812 198.867188 C 306.4375 207.589844 303.121094 216.410156 300.753906 225.839844 L 121.621094 211.660156 L 108.78125 190.90625 C 105.148438 185.039062 99.78125 183.304688 94.550781 183.253906 C 92.808594 183.253906 91.117188 183.433594 89.5 183.699219 C 82.972656 184.773438 78.3125 191.574219 78.3125 199.046875 L 78.3125 227.53125 C 78.3125 233.707031 80.15625 239.925781 84.453125 244.492188 C 88.703125 249 94.644531 251.464844 101.445312 252.496094 L 190.726562 266.101562 C 183.476562 273.382812 178.953125 283.449219 178.953125 294.5 C 178.953125 316.511719 196.710938 334.621094 218.5 334.621094 C 240.320312 334.621094 258.035156 316.511719 258.035156 294.5 C 258.035156 287.605469 256.15625 281.214844 253.117188 275.539062 L 296.285156 282.109375 C 296.414062 283.851562 296.457031 285.601562 296.636719 287.335938 C 302.007812 334.433594 343.597656 371.25 396.015625 371.25 C 448.496094 371.25 490 334.433594 495.402344 287.335938 C 495.582031 285.59375 495.636719 283.84375 495.753906 282.109375 L 538.925781 275.539062 C 535.878906 281.214844 534.003906 287.605469 534.003906 294.5 C 534.003906 316.511719 551.722656 334.621094 573.542969 334.621094 C 595.332031 334.621094 613.089844 316.511719 613.089844 294.5 C 613.089844 283.449219 608.5625 273.382812 601.316406 266.101562 L 690.636719 252.496094 C 697.394531 251.464844 703.339844 249 707.582031 244.492188 C 711.875 239.925781 713.722656 233.707031 713.722656 227.53125 L 713.722656 199.046875 C 713.722656 191.582031 709.058594 184.78125 702.53125 183.699219 C 700.917969 183.433594 699.226562 183.253906 697.480469 183.253906 C 692.285156 183.296875 686.875 185.039062 683.253906 190.90625 L 670.414062 211.660156 L 491.304688 225.847656 C 488.894531 216.410156 485.671875 207.601562 482.179688 198.875 L 516.125 193.378906 C 522.558594 192.347656 528.070312 188.988281 531.28125 184.4375 C 534.453125 179.871094 535.394531 174.46875 534.855469 169.539062 C 534.375 164.617188 532.449219 160.058594 529.09375 156.304688 C 525.785156 152.550781 520.71875 149.640625 514.90625 149.597656 L 446.746094 149.230469 C 441.109375 145.113281 434.9375 141.628906 428.09375 138.949219 L 420.089844 75.21875 C 419.195312 68.375 417.453125 61.890625 413.425781 56.78125 C 409.40625 51.671875 403.152344 47.960938 396.035156 47.960938 Z M 396.035156 47.960938 " fill-opacity="1" fill-rule="evenodd"/></g><path fill="#897731" d="M 645.84375 634.800781 C 641.457031 636.679688 638.554688 637.753906 634.34375 640.082031 C 626.882812 644.195312 625.664062 652.070312 626.023438 660.339844 C 633.589844 658.554688 645.9375 655.640625 649.828125 653.367188 C 651.074219 652.644531 652.464844 650.179688 652.859375 646.46875 C 653.261719 642.71875 652.320312 638.25 651.785156 636.363281 C 650.800781 633.132812 647.363281 634.121094 645.84375 634.800781 Z M 642.089844 622.363281 C 646.789062 620.929688 651.476562 620.929688 655.460938 622.671875 C 659.4375 624.460938 662.253906 627.765625 663.773438 631.355469 C 665.742188 636.097656 666.464844 641.867188 665.792969 647.90625 C 665.113281 653.992188 662.796875 660.828125 656.355469 664.589844 C 647.808594 669.5625 634.707031 671.660156 627.902344 673.273438 C 625.179688 673.953125 622.140625 673.996094 619.410156 672.644531 C 616.636719 671.304688 614.457031 668.839844 613.820312 666.300781 C 610.28125 652.34375 615.433594 638.433594 626.160156 629.980469 C 631.621094 625.722656 637.351562 623.789062 642.089844 622.363281 Z M 642.089844 622.363281 " fill-opacity="1" fill-rule="nonzero"/><path fill="#897731" d="M 522.96875 655.332031 L 585.910156 655.332031 C 588.453125 655.332031 589.714844 656.578125 589.972656 657.703125 L 593.191406 671.617188 C 594.042969 675.589844 593.425781 677.601562 592.746094 678.449219 C 592.085938 679.34375 590.554688 680.375 586.433594 680.375 L 522.480469 680.375 C 518.324219 680.375 516.804688 679.34375 516.132812 678.449219 C 515.414062 677.601562 514.792969 675.632812 515.6875 671.519531 L 518.90625 657.703125 C 519.441406 655.417969 521.90625 655.332031 522.96875 655.332031 Z M 522.96875 642.355469 C 519.492188 642.355469 515.902344 643.113281 512.777344 645.171875 C 509.589844 647.277344 507.21875 650.808594 506.285156 654.75 L 502.976562 668.789062 C 501.5 675.1875 502.179688 681.59375 505.929688 686.421875 C 509.683594 691.238281 515.859375 693.300781 522.480469 693.300781 L 586.441406 693.300781 C 593.070312 693.300781 599.195312 691.238281 603 686.421875 C 606.753906 681.585938 607.386719 675.1875 605.910156 668.789062 L 602.605469 654.75 C 601.667969 650.808594 599.28125 647.285156 596.113281 645.171875 C 592.984375 643.113281 589.449219 642.355469 585.917969 642.355469 Z M 522.96875 642.355469 " fill-opacity="1" fill-rule="nonzero"/><path fill="#897731" d="M 466.488281 460.132812 L 642.355469 460.132812 C 646.160156 492.910156 650.09375 563.675781 650.457031 593.335938 L 458.433594 593.335938 C 458.792969 563.675781 462.640625 492.910156 466.488281 460.132812 Z M 460.40625 447.15625 C 457.136719 447.113281 454.363281 449.527344 453.914062 452.789062 C 449.578125 486.246094 445.113281 571.191406 445.113281 599.855469 C 445.15625 603.429688 448.023438 606.289062 451.597656 606.339844 L 657.300781 606.339844 C 660.871094 606.296875 663.730469 603.429688 663.785156 599.855469 C 663.785156 571.136719 659.273438 486.195312 654.886719 452.789062 C 654.484375 449.527344 651.71875 447.113281 648.4375 447.15625 Z M 460.40625 447.15625 " fill-opacity="1" fill-rule="nonzero"/><path fill="#897731" d="M 639 723.175781 L 668.789062 723.175781 L 668.789062 738.703125 C 668.789062 739.554688 668.25 740.042969 667.3125 740.042969 C 667.3125 740.042969 649.417969 740.042969 640.425781 740.042969 C 639.488281 740.042969 638.992188 739.457031 638.992188 738.839844 L 638.992188 723.175781 Z M 440.140625 723.175781 L 469.929688 723.175781 L 469.929688 738.703125 C 469.929688 739.5 469.390625 740.042969 468.453125 740.042969 L 441.566406 740.042969 C 440.671875 740.042969 440.132812 739.554688 440.132812 738.703125 L 440.132812 723.175781 Z M 722.59375 463.042969 L 732.871094 464.871094 C 734.347656 465.277344 734.761719 465.671875 735.242188 466.445312 C 735.785156 467.15625 736.410156 468.632812 736.410156 471.398438 L 736.410156 504.058594 C 736.410156 508.757812 735.472656 509.203125 733.105469 510.40625 C 730.914062 511.574219 726.707031 512.113281 722.730469 512.199219 Z M 386.285156 463.042969 L 386.148438 512.199219 C 382.171875 512.105469 378.007812 511.574219 375.773438 510.40625 C 373.449219 509.203125 372.46875 508.757812 372.46875 504.058594 L 372.46875 471.398438 C 372.46875 468.625 373.097656 467.148438 373.628906 466.445312 C 374.117188 465.679688 374.5625 465.277344 376.042969 464.871094 Z M 466.574219 407.980469 L 642.347656 407.980469 C 649.734375 407.980469 654.878906 410.699219 659.386719 415.628906 C 663.859375 420.550781 667.355469 427.929688 669.097656 436.25 C 670.035156 440.722656 670.84375 445.019531 671.332031 448.824219 C 678.039062 501.285156 683.554688 602.191406 683.554688 625.277344 L 683.554688 688.164062 C 683.554688 694.554688 682.875 697.996094 681.671875 700.324219 C 680.597656 702.386719 678.410156 704.402344 674.425781 706.953125 L 434.507812 706.953125 C 430.480469 704.402344 428.332031 702.386719 427.257812 700.324219 C 426.011719 697.996094 425.335938 694.554688 425.335938 688.164062 L 425.335938 625.277344 C 425.335938 602.191406 430.875 501.414062 437.539062 448.90625 C 438.078125 444.65625 439.015625 440.148438 439.78125 436.257812 C 441.472656 427.9375 445.011719 420.558594 449.476562 415.640625 C 454 410.699219 459.1875 407.980469 466.574219 407.980469 Z M 466.574219 391.738281 C 454.714844 391.738281 444.5625 396.96875 437.503906 404.664062 C 430.46875 412.402344 426.175781 422.328125 423.945312 432.796875 C 423.453125 435.03125 423.050781 437.675781 422.605469 440.183594 L 372.554688 449.035156 C 372.28125 449.078125 372.066406 449.132812 371.832031 449.175781 C 367.230469 450.375 362.9375 453.238281 360.164062 457.316406 C 357.421875 461.335938 356.273438 466.253906 356.273438 471.398438 L 356.273438 504.058594 C 356.273438 513.632812 361.726562 521.363281 368.167969 524.710938 C 374.597656 528.113281 381.355469 528.558594 386.722656 528.558594 C 390.296875 528.558594 394.015625 527.804688 397.234375 525.296875 C 400.5 522.789062 402.378906 518.367188 402.378906 514.519531 L 402.515625 460.175781 L 420.320312 457.039062 C 414.101562 512.320312 409.128906 601.152344 409.128906 625.265625 L 409.128906 688.15625 C 409.128906 695.53125 409.757812 701.972656 412.839844 707.882812 C 415.117188 712.210938 419.546875 715.164062 423.890625 718.296875 L 423.890625 738.695312 C 423.890625 748.3125 431.9375 756.273438 441.558594 756.273438 L 468.445312 756.273438 C 478.0625 756.273438 486.164062 748.363281 486.164062 738.695312 L 486.164062 723.175781 L 622.75 723.175781 L 622.75 738.566406 C 622.578125 748.363281 630.796875 756.28125 640.417969 756.28125 L 667.304688 756.28125 C 676.921875 756.28125 685.019531 748.320312 685.019531 738.703125 L 685.019531 718.222656 C 689.316406 715.128906 693.78125 712.183594 696.023438 707.890625 C 699.148438 701.980469 699.773438 695.53125 699.773438 688.164062 L 699.773438 625.277344 C 699.773438 601.160156 694.757812 512.328125 688.542969 457.050781 L 706.34375 460.183594 L 706.480469 514.527344 C 706.480469 518.375 708.40625 522.796875 711.625 525.304688 C 714.847656 527.8125 718.554688 528.570312 722.136719 528.570312 C 727.503906 528.570312 734.261719 528.121094 740.695312 524.722656 C 747.144531 521.363281 752.640625 513.632812 752.640625 504.066406 L 752.640625 471.40625 C 752.640625 466.265625 751.472656 461.34375 748.699219 457.324219 C 745.925781 453.246094 741.632812 450.386719 737.027344 449.183594 C 736.796875 449.140625 736.582031 449.089844 736.351562 449.046875 L 686.257812 440.191406 C 685.8125 437.683594 685.40625 435.039062 684.917969 432.804688 C 682.683594 422.335938 678.390625 412.410156 671.359375 404.671875 C 664.339844 396.976562 654.183594 391.746094 642.332031 391.746094 L 466.574219 391.746094 Z M 466.574219 391.738281 " fill-opacity="1" fill-rule="nonzero"/><path fill="#897731" d="M 123.464844 693.246094 L 266.101562 693.246094 L 275.347656 714.132812 L 114.15625 714.132812 Z M 139.027344 658.191406 L 250.53125 658.191406 L 258.902344 677.015625 L 130.664062 677.015625 Z M 194.753906 370.542969 C 208.761719 370.542969 227.945312 371.035156 245.617188 372.597656 C 263.285156 374.167969 279.875 377.292969 286.496094 380.566406 C 306.582031 390.589844 315.925781 407.042969 315.925781 424.398438 L 315.925781 605.324219 C 315.925781 612.882812 311.90625 622.535156 305.285156 629.828125 C 298.621094 637.117188 289.804688 641.953125 280.726562 641.953125 L 108.753906 641.953125 C 99.675781 641.953125 90.859375 637.117188 84.238281 629.828125 C 77.574219 622.535156 73.589844 612.882812 73.589844 605.324219 L 73.589844 424.398438 C 73.589844 407.042969 82.898438 390.589844 102.984375 380.566406 C 109.605469 377.292969 126.28125 374.167969 143.957031 372.597656 C 161.621094 371.035156 180.761719 370.542969 194.753906 370.542969 Z M 194.753906 354.355469 C 180.394531 354.355469 160.890625 354.804688 142.46875 356.410156 C 124.085938 358.066406 107.183594 360.351562 95.726562 366.070312 C 70.953125 378.460938 57.347656 400.960938 57.347656 424.398438 L 57.347656 605.324219 C 57.347656 618.113281 63.164062 630.859375 72.25 640.785156 C 81.324219 650.753906 94.121094 658.191406 108.753906 658.191406 L 121.222656 658.191406 L 82.621094 745.136719 C 78.25 755.070312 93.089844 761.648438 97.46875 751.765625 L 106.953125 730.371094 L 282.554688 730.371094 L 292.035156 751.765625 C 296.253906 762.042969 311.675781 755.199219 306.839844 745.136719 L 268.289062 658.191406 L 280.726562 658.191406 C 295.359375 658.191406 308.242188 650.765625 317.308594 640.785156 C 326.386719 630.859375 332.15625 618.113281 332.15625 605.324219 L 332.15625 424.398438 C 332.15625 400.960938 318.5625 378.460938 293.746094 366.070312 C 282.296875 360.34375 265.429688 358.066406 247 356.410156 C 228.613281 354.804688 209.164062 354.355469 194.753906 354.355469 Z M 194.753906 354.355469 " fill-opacity="1" fill-rule="nonzero"/><path fill="#897731" d="M 201.246094 428.554688 L 278.304688 428.554688 C 284.03125 428.554688 288.464844 432.988281 288.464844 438.714844 L 288.464844 495.695312 C 288.464844 501.464844 284.03125 505.855469 278.304688 505.855469 L 201.246094 505.855469 Z M 111.167969 428.554688 L 188.277344 428.554688 L 188.277344 505.84375 L 111.167969 505.84375 C 105.441406 505.84375 101.007812 501.457031 101.007812 495.6875 L 101.007812 438.707031 C 101.007812 432.988281 105.441406 428.554688 111.167969 428.554688 Z M 111.167969 415.578125 C 98.457031 415.578125 88.085938 425.996094 88.085938 438.707031 L 88.085938 495.6875 C 88.085938 508.394531 98.457031 518.8125 111.167969 518.8125 L 278.3125 518.8125 C 291.023438 518.8125 301.492188 508.394531 301.492188 495.6875 L 301.492188 438.707031 C 301.492188 425.996094 291.023438 415.578125 278.3125 415.578125 Z M 111.167969 415.578125 " fill-opacity="1" fill-rule="evenodd"/><path fill="#897731" d="M 157.050781 613.863281 C 148.421875 614.351562 149.09375 627.320312 157.773438 626.871094 L 231.800781 626.871094 C 235.375 626.871094 238.328125 623.960938 238.328125 620.390625 C 238.328125 616.773438 235.375 613.863281 231.800781 613.863281 L 157.773438 613.863281 C 157.542969 613.863281 157.277344 613.863281 157.050781 613.863281 Z M 157.050781 613.863281 " fill-opacity="1" fill-rule="nonzero"/><path fill="#897731" d="M 110.722656 552.769531 C 116.175781 553.757812 122.433594 556.523438 127.761719 560.09375 C 133.128906 563.726562 137.457031 568.414062 139.566406 576.332031 C 140.597656 580.136719 139.664062 582.378906 138.539062 583.71875 C 137.464844 585.015625 136.210938 585.460938 134.59375 585.101562 L 105.261719 576.417969 C 103.378906 575.261719 101.722656 572.03125 101.179688 567.523438 C 100.699219 562.953125 101.414062 557.5 102.613281 555.300781 C 104.855469 551.101562 107.535156 552.183594 110.722656 552.769531 Z M 114.527344 540.332031 C 109.203125 538.71875 104.050781 538.71875 99.675781 540.644531 C 95.339844 542.566406 92.292969 546.320312 90.644531 550.304688 C 88.445312 555.535156 87.59375 562.113281 88.351562 569 C 89.113281 575.835938 90.902344 585.238281 98.734375 587.609375 L 131.5625 597.707031 C 137.78125 599.632812 144.488281 596.816406 148.507812 592.074219 C 152.535156 587.292969 154.0625 580.265625 152.140625 572.976562 C 149.144531 561.847656 142.289062 554.195312 135.007812 549.316406 C 127.71875 544.4375 120.023438 542.027344 114.527344 540.332031 Z M 114.527344 540.332031 " fill-opacity="1" fill-rule="nonzero"/><path fill="#897731" d="M 437.582031 203.039062 L 447.644531 236.765625 C 434.273438 241.015625 417.769531 244.5 402.515625 246.03125 L 402.515625 212.742188 C 414.109375 211.085938 426.367188 207.417969 437.582031 203.039062 Z M 354.484375 203.039062 C 365.710938 207.429688 377.785156 210.597656 389.550781 212.03125 L 389.550781 245.351562 C 374.117188 243.96875 357.75 240.964844 344.378906 236.765625 Z M 441.96875 188.765625 C 441.753906 188.765625 441.480469 188.765625 441.257812 188.808594 C 440.578125 188.886719 439.953125 189.074219 439.332031 189.386719 C 426.667969 195.199219 409.679688 199.492188 396.023438 200.523438 C 382.34375 199.492188 365.445312 195.199219 352.777344 189.386719 C 351.746094 188.9375 350.679688 188.722656 349.609375 188.808594 C 346.886719 188.980469 344.59375 190.8125 343.835938 193.414062 L 329.925781 239.796875 C 328.9375 243.058594 330.644531 246.535156 333.867188 247.757812 C 351.488281 254.28125 375.507812 258.484375 396.035156 258.484375 C 416.609375 258.484375 440.542969 254.28125 458.167969 247.757812 C 461.429688 246.589844 463.179688 243.058594 462.195312 239.796875 L 448.28125 193.414062 C 447.472656 190.648438 444.882812 188.722656 441.96875 188.765625 Z M 441.96875 188.765625 " fill-opacity="1" fill-rule="evenodd"/><path fill="#897731" d="M 465.269531 634.800781 C 469.65625 636.679688 472.558594 637.753906 476.765625 640.082031 C 484.246094 644.195312 485.449219 652.070312 485.046875 660.339844 C 477.488281 658.554688 465.191406 655.640625 461.300781 653.367188 C 459.996094 652.644531 458.65625 650.179688 458.253906 646.46875 C 457.847656 642.71875 458.792969 638.25 459.324219 636.363281 C 460.3125 633.132812 463.757812 634.121094 465.269531 634.800781 Z M 469.03125 622.363281 C 464.289062 620.929688 459.644531 620.929688 455.667969 622.671875 C 451.683594 624.460938 448.824219 627.765625 447.34375 631.355469 C 445.378906 636.097656 444.667969 641.867188 445.328125 647.90625 C 446.007812 653.992188 448.324219 660.828125 454.765625 664.589844 C 463.308594 669.5625 476.414062 671.660156 483.21875 673.273438 C 485.9375 673.953125 488.988281 673.996094 491.710938 672.644531 C 494.484375 671.304688 496.683594 668.839844 497.300781 666.300781 C 500.839844 652.34375 495.652344 638.433594 484.960938 629.980469 C 479.507812 625.722656 473.777344 623.789062 469.03125 622.363281 Z M 469.03125 622.363281 " fill-opacity="1" fill-rule="nonzero"/><path fill="#897731" d="M 278.757812 552.769531 C 273.304688 553.757812 267.089844 556.523438 261.71875 560.09375 C 256.351562 563.726562 252.058594 568.414062 249.914062 576.332031 C 248.925781 580.136719 249.871094 582.378906 250.941406 583.71875 C 252.050781 585.015625 253.3125 585.460938 254.867188 585.101562 L 284.210938 576.417969 C 286.09375 575.261719 287.785156 572.03125 288.273438 567.523438 C 288.761719 562.953125 288.101562 557.5 286.890625 555.300781 C 284.617188 551.101562 281.988281 552.183594 278.757812 552.769531 Z M 274.953125 540.332031 C 280.277344 538.71875 285.464844 538.71875 289.804688 540.644531 C 294.140625 542.566406 297.230469 546.320312 298.878906 550.304688 C 301.035156 555.535156 301.929688 562.113281 301.15625 569 C 300.398438 575.835938 298.570312 585.238281 290.738281 587.609375 L 257.90625 597.707031 C 251.691406 599.632812 245.027344 596.816406 241 592.074219 C 236.9375 587.292969 235.40625 580.265625 237.382812 572.976562 C 240.335938 561.847656 247.214844 554.195312 254.515625 549.316406 C 261.761719 544.4375 269.5 542.027344 274.953125 540.332031 Z M 274.953125 540.332031 " fill-opacity="1" fill-rule="nonzero"/></svg>