<svg xmlns="http://www.w3.org/2000/svg" xmlns:xlink="http://www.w3.org/1999/xlink" width="1080" zoomAndPan="magnify" viewBox="0 0 810 809.999993" height="1080" preserveAspectRatio="xMidYMid meet" version="1.0"><rect x="-81" width="972" fill="#ffffff" y="-80.999999" height="971.999992" fill-opacity="1"/><rect x="-81" width="972" fill="#ffffff" y="-80.999999" height="971.999992" fill-opacity="1"/><path fill="#6b3b79" d="M 405.621094 25.691406 C 401.390625 25.691406 397.164062 25.769531 392.9375 25.929688 C 388.710938 26.085938 384.488281 26.320312 380.273438 26.636719 C 376.054688 26.949219 371.847656 27.34375 367.644531 27.8125 C 363.441406 28.285156 359.25 28.832031 355.066406 29.460938 C 350.886719 30.085938 346.714844 30.789062 342.558594 31.574219 C 338.402344 32.355469 334.265625 33.210938 330.140625 34.148438 C 326.015625 35.082031 321.910156 36.09375 317.824219 37.183594 C 313.738281 38.269531 309.671875 39.433594 305.628906 40.671875 C 301.585938 41.910156 297.566406 43.222656 293.574219 44.613281 C 289.578125 46 285.613281 47.460938 281.671875 48.996094 C 277.730469 50.535156 273.820312 52.140625 269.941406 53.824219 C 266.0625 55.503906 262.210938 57.253906 258.398438 59.078125 C 254.582031 60.902344 250.800781 62.796875 247.058594 64.761719 C 243.3125 66.726562 239.605469 68.757812 235.9375 70.859375 C 232.265625 72.964844 228.636719 75.132812 225.050781 77.371094 C 221.460938 79.605469 217.914062 81.910156 214.410156 84.277344 C 210.90625 86.644531 207.449219 89.078125 204.039062 91.574219 C 200.625 94.074219 197.257812 96.632812 193.941406 99.253906 C 190.625 101.875 187.355469 104.558594 184.136719 107.304688 C 180.921875 110.046875 177.753906 112.847656 174.640625 115.710938 C 171.527344 118.570312 168.46875 121.488281 165.460938 124.464844 C 162.457031 127.4375 159.507812 130.46875 156.613281 133.554688 C 153.722656 136.636719 150.886719 139.773438 148.109375 142.964844 C 145.332031 146.152344 142.617188 149.394531 139.960938 152.683594 C 137.304688 155.976562 134.710938 159.3125 132.179688 162.703125 C 129.648438 166.089844 127.179688 169.519531 124.777344 173 C 122.371094 176.480469 120.03125 180 117.757812 183.566406 C 115.484375 187.132812 113.277344 190.738281 111.140625 194.386719 C 109 198.035156 106.929688 201.71875 104.925781 205.445312 C 102.925781 209.167969 100.992188 212.929688 99.128906 216.726562 C 97.265625 220.523438 95.476562 224.351562 93.753906 228.214844 C 92.035156 232.078125 90.386719 235.972656 88.808594 239.894531 C 87.234375 243.820312 85.730469 247.773438 84.300781 251.753906 C 82.875 255.730469 81.519531 259.738281 80.238281 263.769531 C 78.957031 267.796875 77.753906 271.851562 76.625 275.925781 C 75.496094 280 74.441406 284.09375 73.464844 288.210938 C 72.488281 292.324219 71.585938 296.457031 70.761719 300.601562 C 69.9375 304.75 69.191406 308.910156 68.523438 313.085938 C 67.851562 317.261719 67.261719 321.449219 66.746094 325.648438 C 66.234375 329.84375 65.796875 334.050781 65.441406 338.261719 C 65.082031 342.476562 64.804688 346.695312 64.601562 350.917969 C 64.402344 355.144531 64.28125 359.371094 64.234375 363.597656 C 64.191406 367.828125 64.226562 372.054688 64.339844 376.28125 C 64.453125 380.507812 64.644531 384.734375 64.917969 388.953125 C 65.1875 393.171875 65.535156 397.386719 65.960938 401.59375 C 66.390625 405.800781 66.894531 410 67.476562 414.1875 C 68.058594 418.375 68.71875 422.550781 69.457031 426.714844 C 70.195312 430.878906 71.011719 435.027344 71.902344 439.160156 C 72.792969 443.296875 73.761719 447.410156 74.808594 451.507812 C 75.855469 455.605469 76.972656 459.683594 78.171875 463.738281 C 79.367188 467.796875 80.640625 471.828125 81.984375 475.835938 C 83.332031 479.84375 84.75 483.828125 86.246094 487.78125 C 87.742188 491.738281 89.308594 495.664062 90.949219 499.5625 C 92.589844 503.460938 94.300781 507.328125 96.085938 511.160156 C 97.867188 514.996094 99.722656 518.792969 101.648438 522.558594 C 103.574219 526.324219 105.566406 530.054688 107.628906 533.746094 C 109.695312 537.433594 111.824219 541.085938 114.023438 544.699219 C 116.222656 548.3125 118.488281 551.878906 120.820312 555.410156 C 123.152344 558.9375 125.550781 562.417969 128.011719 565.859375 C 130.472656 569.296875 132.996094 572.6875 135.582031 576.035156 C 138.171875 579.378906 140.820312 582.671875 143.527344 585.921875 C 146.238281 589.167969 149.007812 592.363281 151.835938 595.503906 C 154.664062 598.648438 157.550781 601.738281 160.496094 604.773438 C 163.4375 607.8125 166.4375 610.792969 169.488281 613.71875 C 170.085938 614.292969 170.734375 614.804688 171.433594 615.253906 C 172.132812 615.703125 172.867188 616.082031 173.640625 616.382812 C 174.414062 616.6875 175.207031 616.914062 176.023438 617.0625 C 176.84375 617.207031 177.664062 617.273438 178.496094 617.261719 C 179.324219 617.246094 180.148438 617.148438 180.957031 616.972656 C 181.769531 616.796875 182.554688 616.542969 183.316406 616.210938 C 184.078125 615.878906 184.800781 615.476562 185.480469 615.003906 C 186.164062 614.53125 186.792969 613.996094 187.367188 613.398438 C 187.945312 612.800781 188.457031 612.152344 188.90625 611.453125 C 189.355469 610.753906 189.730469 610.019531 190.035156 609.246094 C 190.339844 608.472656 190.566406 607.679688 190.710938 606.863281 C 190.859375 606.042969 190.925781 605.222656 190.910156 604.390625 C 190.898438 603.5625 190.800781 602.742188 190.625 601.929688 C 190.449219 601.117188 190.195312 600.332031 189.863281 599.570312 C 189.53125 598.808594 189.128906 598.085938 188.65625 597.40625 C 188.179688 596.722656 187.644531 596.09375 187.046875 595.519531 C 183.277344 591.910156 179.597656 588.210938 176.011719 584.421875 C 172.421875 580.632812 168.929688 576.753906 165.535156 572.792969 C 162.136719 568.828125 158.84375 564.785156 155.648438 560.660156 C 152.453125 556.53125 149.359375 552.328125 146.371094 548.050781 C 143.386719 543.769531 140.503906 539.421875 137.734375 535 C 134.960938 530.578125 132.300781 526.089844 129.75 521.535156 C 127.199219 516.980469 124.765625 512.367188 122.445312 507.695312 C 120.121094 503.019531 117.917969 498.292969 115.832031 493.507812 C 113.742188 488.722656 111.777344 483.890625 109.929688 479.011719 C 108.082031 474.128906 106.355469 469.207031 104.75 464.242188 C 103.148438 459.273438 101.667969 454.273438 100.308594 449.230469 C 98.953125 444.191406 97.722656 439.121094 96.617188 434.023438 C 95.511719 428.921875 94.535156 423.796875 93.683594 418.648438 C 92.832031 413.5 92.109375 408.332031 91.511719 403.148438 C 90.917969 397.960938 90.449219 392.765625 90.113281 387.558594 C 89.773438 382.351562 89.566406 377.136719 89.484375 371.917969 C 89.40625 366.699219 89.453125 361.484375 89.632812 356.269531 C 89.8125 351.050781 90.117188 345.84375 90.554688 340.644531 C 90.992188 335.441406 91.554688 330.253906 92.25 325.082031 C 92.941406 319.910156 93.761719 314.757812 94.710938 309.625 C 95.660156 304.492188 96.734375 299.386719 97.933594 294.308594 C 99.136719 289.230469 100.460938 284.183594 101.914062 279.171875 C 103.363281 274.160156 104.9375 269.183594 106.636719 264.25 C 108.332031 259.3125 110.152344 254.425781 112.089844 249.578125 C 114.03125 244.734375 116.089844 239.941406 118.265625 235.195312 C 120.441406 230.453125 122.734375 225.765625 125.144531 221.136719 C 127.554688 216.507812 130.074219 211.941406 132.710938 207.4375 C 135.34375 202.929688 138.089844 198.496094 140.945312 194.125 C 143.800781 189.757812 146.761719 185.460938 149.828125 181.238281 C 152.894531 177.015625 156.066406 172.875 159.339844 168.808594 C 162.613281 164.742188 165.984375 160.761719 169.453125 156.863281 C 172.921875 152.964844 176.488281 149.15625 180.144531 145.433594 C 183.804688 141.710938 187.554688 138.082031 191.390625 134.546875 C 195.230469 131.011719 199.152344 127.570312 203.164062 124.230469 C 207.171875 120.886719 211.261719 117.648438 215.429688 114.507812 C 219.597656 111.367188 223.84375 108.335938 228.160156 105.40625 C 232.480469 102.476562 236.871094 99.65625 241.328125 96.945312 C 245.789062 94.234375 250.3125 91.632812 254.898438 89.144531 C 259.488281 86.65625 264.132812 84.285156 268.839844 82.027344 C 273.546875 79.769531 278.304688 77.628906 283.113281 75.609375 C 287.925781 73.585938 292.785156 71.683594 297.691406 69.902344 C 302.59375 68.121094 307.542969 66.460938 312.53125 64.925781 C 317.515625 63.390625 322.539062 61.976562 327.597656 60.691406 C 332.65625 59.402344 337.742188 58.242188 342.855469 57.207031 C 347.972656 56.167969 353.109375 55.261719 358.269531 54.480469 C 363.429688 53.699219 368.605469 53.042969 373.796875 52.519531 C 378.988281 51.996094 384.191406 51.597656 389.402344 51.332031 C 394.617188 51.0625 399.832031 50.925781 405.050781 50.917969 C 410.269531 50.90625 415.484375 51.027344 420.699219 51.277344 C 425.910156 51.527344 431.113281 51.902344 436.308594 52.410156 C 441.503906 52.917969 446.679688 53.550781 451.84375 54.316406 C 457.007812 55.078125 462.148438 55.96875 467.265625 56.988281 C 472.386719 58.003906 477.476562 59.148438 482.539062 60.417969 C 487.597656 61.6875 492.625 63.082031 497.621094 64.601562 C 502.613281 66.121094 507.566406 67.761719 512.476562 69.527344 C 517.386719 71.292969 522.253906 73.175781 527.070312 75.179688 C 531.890625 77.1875 536.65625 79.308594 541.367188 81.550781 C 546.082031 83.792969 550.738281 86.148438 555.332031 88.621094 C 559.929688 91.089844 564.460938 93.675781 568.929688 96.371094 C 573.398438 99.066406 577.796875 101.871094 582.128906 104.785156 C 586.457031 107.699219 590.710938 110.71875 594.894531 113.84375 C 599.074219 116.96875 603.171875 120.195312 607.191406 123.523438 C 611.214844 126.851562 615.148438 130.277344 619 133.796875 C 622.851562 137.320312 626.613281 140.9375 630.285156 144.644531 C 633.957031 148.355469 637.53125 152.152344 641.015625 156.039062 C 644.5 159.925781 647.886719 163.894531 651.171875 167.949219 C 654.460938 172 657.644531 176.132812 660.726562 180.34375 C 663.808594 184.558594 666.785156 188.84375 669.65625 193.199219 C 672.523438 197.558594 675.285156 201.988281 677.9375 206.480469 C 680.585938 210.976562 683.125 215.535156 685.550781 220.15625 C 687.976562 224.777344 690.285156 229.457031 692.480469 234.191406 C 694.671875 238.929688 696.746094 243.714844 698.703125 248.554688 C 700.660156 253.390625 702.496094 258.273438 704.210938 263.203125 C 705.925781 268.132812 707.515625 273.101562 708.984375 278.109375 C 710.453125 283.117188 711.796875 288.160156 713.015625 293.234375 C 714.234375 298.308594 715.328125 303.410156 716.292969 308.539062 C 717.257812 313.667969 718.097656 318.816406 718.808594 323.988281 C 719.519531 329.15625 720.101562 334.34375 720.558594 339.539062 C 721.011719 344.738281 721.335938 349.945312 721.535156 355.164062 C 721.730469 360.378906 721.796875 365.59375 721.738281 370.8125 C 721.675781 376.03125 721.484375 381.246094 721.164062 386.453125 C 720.84375 391.664062 720.394531 396.859375 719.816406 402.046875 C 719.242188 407.234375 718.535156 412.402344 717.703125 417.554688 C 716.867188 422.707031 715.910156 427.835938 714.820312 432.941406 C 713.734375 438.046875 712.519531 443.121094 711.183594 448.164062 C 709.84375 453.207031 708.378906 458.214844 706.792969 463.1875 C 705.207031 468.160156 703.5 473.089844 701.667969 477.976562 C 699.835938 482.863281 697.886719 487.703125 695.816406 492.492188 C 693.746094 497.285156 691.558594 502.019531 689.253906 506.703125 C 686.949219 511.386719 684.527344 516.007812 681.996094 520.570312 C 679.460938 525.132812 676.816406 529.628906 674.058594 534.0625 C 671.304688 538.492188 668.4375 542.851562 665.464844 547.140625 C 662.492188 551.433594 659.417969 555.644531 656.234375 559.78125 C 653.054688 563.921875 649.773438 567.976562 646.390625 571.949219 C 643.007812 575.925781 639.53125 579.8125 635.957031 583.617188 C 632.382812 587.417969 628.714844 591.132812 624.957031 594.75 C 624.359375 595.328125 623.824219 595.957031 623.351562 596.640625 C 622.875 597.320312 622.472656 598.042969 622.140625 598.804688 C 621.8125 599.566406 621.558594 600.351562 621.378906 601.164062 C 621.203125 601.972656 621.109375 602.792969 621.09375 603.625 C 621.078125 604.453125 621.144531 605.277344 621.292969 606.097656 C 621.4375 606.914062 621.664062 607.707031 621.96875 608.480469 C 622.273438 609.253906 622.648438 609.988281 623.097656 610.6875 C 623.546875 611.386719 624.058594 612.035156 624.636719 612.632812 C 625.210938 613.230469 625.839844 613.765625 626.523438 614.238281 C 627.203125 614.710938 627.925781 615.113281 628.6875 615.445312 C 629.449219 615.777344 630.234375 616.03125 631.046875 616.207031 C 631.859375 616.382812 632.679688 616.480469 633.507812 616.496094 C 634.339844 616.507812 635.164062 616.441406 635.980469 616.296875 C 636.796875 616.148438 637.589844 615.921875 638.363281 615.617188 C 639.136719 615.316406 639.871094 614.9375 640.570312 614.488281 C 641.269531 614.042969 641.917969 613.527344 642.515625 612.953125 C 645.554688 610.023438 648.542969 607.035156 651.472656 603.996094 C 654.402344 600.953125 657.277344 597.859375 660.09375 594.710938 C 662.910156 591.566406 665.664062 588.367188 668.363281 585.117188 C 671.058594 581.867188 673.695312 578.566406 676.269531 575.21875 C 678.84375 571.871094 681.355469 568.476562 683.804688 565.035156 C 686.253906 561.59375 688.636719 558.109375 690.957031 554.582031 C 693.277344 551.050781 695.527344 547.480469 697.714844 543.867188 C 699.902344 540.253906 702.019531 536.601562 704.074219 532.910156 C 706.125 529.21875 708.105469 525.488281 710.019531 521.722656 C 711.933594 517.957031 713.773438 514.160156 715.546875 510.324219 C 717.316406 506.492188 719.019531 502.625 720.644531 498.730469 C 722.273438 494.832031 723.832031 490.90625 725.3125 486.953125 C 726.796875 482.996094 728.203125 479.015625 729.539062 475.011719 C 730.875 471.003906 732.136719 466.972656 733.320312 462.921875 C 734.507812 458.867188 735.617188 454.792969 736.648438 450.699219 C 737.683594 446.601562 738.640625 442.488281 739.523438 438.359375 C 740.40625 434.230469 741.210938 430.085938 741.9375 425.925781 C 742.664062 421.765625 743.316406 417.59375 743.890625 413.40625 C 744.460938 409.222656 744.957031 405.03125 745.375 400.828125 C 745.792969 396.625 746.132812 392.414062 746.390625 388.199219 C 746.652344 383.984375 746.835938 379.765625 746.941406 375.542969 C 747.046875 371.320312 747.070312 367.101562 747.019531 362.875 C 746.96875 358.652344 746.835938 354.433594 746.628906 350.214844 C 746.417969 345.996094 746.132812 341.785156 745.765625 337.578125 C 745.402344 333.367188 744.957031 329.167969 744.4375 324.976562 C 743.917969 320.789062 743.316406 316.605469 742.640625 312.4375 C 741.964844 308.269531 741.210938 304.113281 740.382812 299.972656 C 739.550781 295.832031 738.644531 291.707031 737.660156 287.601562 C 736.679688 283.496094 735.621094 279.40625 734.484375 275.339844 C 733.347656 271.269531 732.140625 267.226562 730.855469 263.203125 C 729.570312 259.179688 728.210938 255.179688 726.777344 251.207031 C 725.34375 247.234375 723.835938 243.292969 722.253906 239.375 C 720.675781 235.457031 719.023438 231.570312 717.300781 227.714844 C 715.574219 223.863281 713.78125 220.039062 711.914062 216.25 C 710.046875 212.460938 708.113281 208.707031 706.105469 204.992188 C 704.101562 201.273438 702.027344 197.597656 699.886719 193.957031 C 697.746094 190.316406 695.535156 186.71875 693.261719 183.160156 C 690.984375 179.601562 688.644531 176.085938 686.238281 172.617188 C 683.832031 169.144531 681.363281 165.71875 678.832031 162.339844 C 676.296875 158.960938 673.703125 155.628906 671.046875 152.347656 C 668.390625 149.0625 665.671875 145.832031 662.898438 142.648438 C 660.121094 139.464844 657.285156 136.335938 654.394531 133.257812 C 651.5 130.179688 648.550781 127.160156 645.546875 124.191406 C 642.542969 121.222656 639.484375 118.3125 636.371094 115.457031 C 633.257812 112.605469 630.09375 109.808594 626.875 107.070312 C 623.660156 104.335938 620.394531 101.660156 617.078125 99.042969 C 613.761719 96.425781 610.398438 93.875 606.988281 91.382812 C 603.578125 88.894531 600.121094 86.464844 596.621094 84.105469 C 593.121094 81.742188 589.574219 79.445312 585.988281 77.214844 C 582.402344 74.984375 578.777344 72.820312 575.113281 70.722656 C 571.445312 68.625 567.742188 66.597656 564 64.640625 C 560.257812 62.679688 556.480469 60.792969 552.671875 58.972656 C 548.859375 57.152344 545.015625 55.40625 541.136719 53.730469 C 537.261719 52.054688 533.355469 50.449219 529.417969 48.917969 C 525.484375 47.386719 521.519531 45.929688 517.53125 44.546875 C 513.539062 43.164062 509.527344 41.851562 505.488281 40.617188 C 501.449219 39.382812 497.386719 38.222656 493.304688 37.136719 C 489.222656 36.054688 485.125 35.046875 481.003906 34.113281 C 476.886719 33.179688 472.75 32.324219 468.601562 31.546875 C 464.449219 30.769531 460.285156 30.066406 456.109375 29.441406 C 451.929688 28.816406 447.742188 28.269531 443.546875 27.800781 C 439.347656 27.332031 435.144531 26.941406 430.933594 26.628906 C 426.722656 26.316406 422.503906 26.082031 418.285156 25.925781 C 414.066406 25.769531 409.84375 25.691406 405.621094 25.691406 Z M 405.621094 100.367188 C 400.238281 100.367188 394.863281 100.527344 389.496094 100.847656 C 384.125 101.171875 378.769531 101.652344 373.429688 102.296875 C 368.085938 102.941406 362.769531 103.742188 357.476562 104.707031 C 352.1875 105.671875 346.925781 106.792969 341.703125 108.070312 C 336.476562 109.351562 331.292969 110.785156 326.15625 112.375 C 321.015625 113.964844 315.929688 115.710938 310.894531 117.605469 C 305.859375 119.503906 300.886719 121.546875 295.976562 123.742188 C 291.066406 125.9375 286.226562 128.28125 281.453125 130.765625 C 276.683594 133.253906 271.992188 135.878906 267.378906 138.648438 C 262.765625 141.414062 258.242188 144.320312 253.800781 147.359375 C 249.363281 150.398438 245.023438 153.570312 240.773438 156.871094 C 236.527344 160.171875 232.382812 163.597656 228.339844 167.148438 C 224.296875 170.699219 220.367188 174.367188 216.546875 178.152344 C 212.722656 181.941406 209.019531 185.835938 205.433594 189.847656 C 201.84375 193.855469 198.382812 197.96875 195.042969 202.1875 C 191.703125 206.402344 188.492188 210.714844 185.410156 215.125 C 182.332031 219.535156 179.386719 224.035156 176.574219 228.621094 C 173.765625 233.210938 171.09375 237.878906 168.566406 242.625 C 166.035156 247.371094 163.648438 252.191406 161.410156 257.082031 C 159.167969 261.972656 157.078125 266.925781 155.136719 271.945312 C 153.191406 276.960938 151.402344 282.03125 149.765625 287.15625 C 148.128906 292.28125 146.644531 297.449219 145.316406 302.660156 C 143.992188 307.875 142.820312 313.125 141.808594 318.40625 C 140.796875 323.691406 139.945312 329 139.253906 334.335938 C 138.558594 339.667969 138.027344 345.019531 137.65625 350.386719 C 137.285156 355.753906 137.078125 361.125 137.027344 366.507812 C 136.980469 371.886719 137.09375 377.261719 137.367188 382.632812 C 137.644531 388.007812 138.078125 393.367188 138.675781 398.710938 C 139.273438 404.058594 140.03125 409.382812 140.949219 414.683594 C 141.863281 419.984375 142.941406 425.253906 144.171875 430.488281 C 145.40625 435.726562 146.796875 440.917969 148.34375 446.070312 C 149.886719 451.226562 151.585938 456.328125 153.4375 461.378906 C 153.6875 462.203125 154.015625 462.996094 154.421875 463.753906 C 154.832031 464.511719 155.3125 465.222656 155.867188 465.882812 C 156.421875 466.542969 157.039062 467.140625 157.714844 467.675781 C 158.390625 468.210938 159.113281 468.667969 159.886719 469.054688 C 160.65625 469.441406 161.457031 469.746094 162.289062 469.96875 C 163.125 470.191406 163.96875 470.328125 164.832031 470.375 C 165.691406 470.425781 166.546875 470.386719 167.402344 470.261719 C 168.253906 470.136719 169.085938 469.925781 169.894531 469.628906 C 170.703125 469.332031 171.476562 468.957031 172.207031 468.503906 C 172.941406 468.050781 173.621094 467.527344 174.246094 466.933594 C 174.871094 466.339844 175.433594 465.691406 175.925781 464.984375 C 176.417969 464.277344 176.835938 463.527344 177.171875 462.734375 C 177.511719 461.941406 177.769531 461.125 177.941406 460.277344 C 178.113281 459.433594 178.199219 458.582031 178.195312 457.71875 C 178.195312 456.855469 178.105469 456.003906 177.925781 455.160156 C 177.75 454.316406 177.488281 453.5 177.144531 452.707031 C 175.46875 448.132812 173.925781 443.511719 172.527344 438.84375 C 171.125 434.175781 169.867188 429.472656 168.75 424.726562 C 167.628906 419.984375 166.65625 415.210938 165.824219 410.410156 C 164.992188 405.609375 164.304688 400.785156 163.765625 395.941406 C 163.222656 391.101562 162.828125 386.246094 162.578125 381.378906 C 162.328125 376.511719 162.222656 371.640625 162.265625 366.769531 C 162.308594 361.894531 162.496094 357.027344 162.832031 352.164062 C 163.167969 347.304688 163.648438 342.457031 164.273438 337.625 C 164.898438 332.789062 165.671875 327.980469 166.585938 323.195312 C 167.5 318.40625 168.558594 313.652344 169.761719 308.929688 C 170.960938 304.207031 172.300781 299.523438 173.785156 294.882812 C 175.265625 290.238281 176.886719 285.644531 178.644531 281.101562 C 180.402344 276.554688 182.296875 272.066406 184.324219 267.636719 C 186.351562 263.203125 188.511719 258.835938 190.800781 254.535156 C 193.09375 250.234375 195.507812 246.003906 198.054688 241.847656 C 200.597656 237.691406 203.265625 233.617188 206.054688 229.621094 C 208.84375 225.625 211.75 221.714844 214.773438 217.894531 C 217.796875 214.070312 220.933594 210.34375 224.183594 206.710938 C 227.429688 203.078125 230.785156 199.546875 234.246094 196.113281 C 237.707031 192.683594 241.265625 189.359375 244.925781 186.140625 C 248.585938 182.921875 252.339844 179.816406 256.183594 176.824219 C 260.03125 173.832031 263.964844 170.957031 267.984375 168.203125 C 272.003906 165.445312 276.101562 162.8125 280.277344 160.304688 C 284.457031 157.792969 288.703125 155.414062 293.027344 153.15625 C 297.347656 150.902344 301.730469 148.78125 306.179688 146.789062 C 310.625 144.796875 315.128906 142.941406 319.691406 141.222656 C 324.25 139.503906 328.855469 137.921875 333.511719 136.476562 C 338.164062 135.03125 342.859375 133.730469 347.59375 132.570312 C 352.324219 131.40625 357.089844 130.386719 361.882812 129.511719 C 366.675781 128.636719 371.492188 127.90625 376.332031 127.320312 C 381.167969 126.734375 386.019531 126.292969 390.882812 126 C 395.75 125.703125 400.617188 125.558594 405.492188 125.554688 C 410.363281 125.550781 415.234375 125.695312 420.097656 125.988281 C 424.960938 126.277344 429.8125 126.714844 434.652344 127.296875 C 439.492188 127.878906 444.308594 128.605469 449.101562 129.476562 C 453.898438 130.347656 458.660156 131.359375 463.394531 132.519531 C 468.128906 133.675781 472.824219 134.976562 477.480469 136.414062 C 482.136719 137.855469 486.746094 139.433594 491.304688 141.148438 C 495.867188 142.863281 500.371094 144.71875 504.820312 146.703125 C 509.269531 148.691406 513.65625 150.808594 517.980469 153.0625 C 522.300781 155.3125 526.554688 157.691406 530.734375 160.195312 C 534.914062 162.703125 539.011719 165.332031 543.035156 168.082031 C 547.054688 170.835938 550.992188 173.707031 554.839844 176.695312 C 558.691406 179.683594 562.445312 182.785156 566.109375 186 C 569.769531 189.214844 573.335938 192.539062 576.796875 195.964844 C 580.261719 199.394531 583.617188 202.925781 586.867188 206.554688 C 590.121094 210.183594 593.257812 213.910156 596.285156 217.726562 C 599.3125 221.546875 602.222656 225.453125 605.015625 229.449219 C 607.808594 233.441406 610.480469 237.515625 613.027344 241.667969 C 615.574219 245.824219 617.996094 250.050781 620.289062 254.351562 C 622.585938 258.648438 624.746094 263.015625 626.777344 267.445312 C 628.8125 271.875 630.707031 276.359375 632.46875 280.902344 C 634.230469 285.449219 635.855469 290.039062 637.34375 294.679688 C 638.828125 299.320312 640.175781 304.003906 641.378906 308.726562 C 642.585938 313.449219 643.648438 318.203125 644.566406 322.988281 C 645.484375 327.773438 646.261719 332.582031 646.890625 337.414062 C 647.519531 342.246094 648.007812 347.09375 648.34375 351.957031 C 648.683594 356.816406 648.878906 361.683594 648.925781 366.558594 C 648.972656 371.429688 648.871094 376.300781 648.625 381.167969 C 648.378906 386.035156 647.988281 390.890625 647.449219 395.734375 C 646.914062 400.578125 646.230469 405.402344 645.402344 410.203125 C 644.578125 415.007812 643.605469 419.78125 642.492188 424.523438 C 641.378906 429.269531 640.121094 433.972656 638.726562 438.644531 C 637.328125 443.3125 635.792969 447.933594 634.117188 452.511719 C 633.796875 453.296875 633.558594 454.109375 633.402344 454.945312 C 633.246094 455.78125 633.175781 456.621094 633.1875 457.472656 C 633.199219 458.320312 633.296875 459.160156 633.480469 459.992188 C 633.660156 460.820312 633.921875 461.625 634.265625 462.402344 C 634.609375 463.179688 635.027344 463.914062 635.515625 464.609375 C 636.007812 465.300781 636.5625 465.9375 637.179688 466.519531 C 637.800781 467.101562 638.46875 467.617188 639.191406 468.066406 C 639.914062 468.511719 640.675781 468.882812 641.472656 469.179688 C 642.269531 469.472656 643.085938 469.683594 643.925781 469.816406 C 644.765625 469.945312 645.609375 469.992188 646.457031 469.949219 C 647.308594 469.910156 648.144531 469.789062 648.96875 469.582031 C 649.792969 469.371094 650.585938 469.085938 651.351562 468.71875 C 652.117188 468.351562 652.839844 467.910156 653.519531 467.398438 C 654.195312 466.886719 654.816406 466.3125 655.378906 465.675781 C 655.941406 465.039062 656.433594 464.351562 656.859375 463.617188 C 657.28125 462.878906 657.628906 462.109375 657.898438 461.300781 C 659.746094 456.25 661.441406 451.148438 662.980469 445.996094 C 664.523438 440.84375 665.90625 435.648438 667.136719 430.414062 C 668.367188 425.175781 669.4375 419.910156 670.347656 414.609375 C 671.261719 409.308594 672.015625 403.984375 672.609375 398.640625 C 673.203125 393.292969 673.632812 387.933594 673.90625 382.5625 C 674.175781 377.191406 674.285156 371.816406 674.234375 366.4375 C 674.183594 361.058594 673.96875 355.6875 673.59375 350.324219 C 673.222656 344.957031 672.6875 339.609375 671.992188 334.273438 C 671.292969 328.941406 670.441406 323.632812 669.425781 318.351562 C 668.410156 313.070312 667.238281 307.824219 665.910156 302.613281 C 664.582031 297.402344 663.097656 292.234375 661.457031 287.109375 C 659.816406 281.988281 658.023438 276.921875 656.078125 271.90625 C 654.136719 266.890625 652.042969 261.9375 649.800781 257.050781 C 647.558594 252.160156 645.171875 247.34375 642.640625 242.597656 C 640.113281 237.851562 637.441406 233.1875 634.628906 228.601562 C 631.816406 224.015625 628.871094 219.519531 625.789062 215.109375 C 622.710938 210.703125 619.5 206.390625 616.160156 202.175781 C 612.816406 197.960938 609.355469 193.847656 605.765625 189.839844 C 602.179688 185.832031 598.476562 181.9375 594.65625 178.152344 C 590.832031 174.367188 586.902344 170.699219 582.859375 167.152344 C 578.820312 163.601562 574.675781 160.175781 570.429688 156.878906 C 566.179688 153.578125 561.839844 150.40625 557.402344 147.367188 C 552.964844 144.328125 548.4375 141.425781 543.828125 138.660156 C 539.214844 135.890625 534.523438 133.265625 529.753906 130.777344 C 524.984375 128.292969 520.144531 125.953125 515.234375 123.757812 C 510.324219 121.5625 505.355469 119.515625 500.320312 117.621094 C 495.289062 115.722656 490.203125 113.980469 485.066406 112.390625 C 479.925781 110.800781 474.746094 109.363281 469.523438 108.082031 C 464.296875 106.804688 459.039062 105.683594 453.75 104.71875 C 448.457031 103.753906 443.140625 102.949219 437.800781 102.304688 C 432.464844 101.660156 427.109375 101.175781 421.738281 100.851562 C 416.371094 100.53125 410.996094 100.367188 405.621094 100.367188 Z M 405.644531 278.539062 L 294.789062 278.539062 C 292.863281 286.855469 291.882812 295.285156 291.851562 303.824219 L 405.644531 303.824219 C 406.476562 303.824219 407.296875 303.90625 408.113281 304.070312 C 408.929688 304.230469 409.71875 304.472656 410.488281 304.789062 C 411.253906 305.105469 411.984375 305.496094 412.675781 305.957031 C 413.367188 306.421875 414.007812 306.945312 414.59375 307.53125 C 415.179688 308.121094 415.707031 308.757812 416.167969 309.449219 C 416.628906 310.140625 417.019531 310.871094 417.335938 311.636719 C 417.65625 312.40625 417.894531 313.199219 418.058594 314.011719 C 418.21875 314.828125 418.300781 315.652344 418.300781 316.480469 C 418.300781 317.3125 418.21875 318.136719 418.058594 318.949219 C 417.894531 319.765625 417.65625 320.558594 417.335938 321.324219 C 417.019531 322.09375 416.628906 322.820312 416.167969 323.511719 C 415.707031 324.203125 415.179688 324.84375 414.59375 325.429688 C 414.007812 326.019531 413.367188 326.542969 412.675781 327.003906 C 411.984375 327.464844 411.253906 327.855469 410.488281 328.175781 C 409.71875 328.492188 408.929688 328.734375 408.113281 328.894531 C 407.296875 329.058594 406.476562 329.136719 405.644531 329.136719 L 291.851562 329.136719 L 291.851562 354.425781 L 405.644531 354.425781 C 406.476562 354.425781 407.296875 354.507812 408.109375 354.667969 C 408.925781 354.828125 409.714844 355.070312 410.484375 355.386719 C 411.25 355.707031 411.980469 356.09375 412.667969 356.554688 C 413.359375 357.015625 413.996094 357.542969 414.585938 358.128906 C 415.171875 358.714844 415.695312 359.355469 416.15625 360.042969 C 416.617188 360.734375 417.007812 361.464844 417.324219 362.230469 C 417.644531 362.996094 417.882812 363.789062 418.046875 364.601562 C 418.207031 365.417969 418.289062 366.238281 418.289062 367.070312 C 418.289062 367.898438 418.207031 368.722656 418.046875 369.535156 C 417.882812 370.347656 417.644531 371.140625 417.324219 371.90625 C 417.007812 372.675781 416.617188 373.402344 416.15625 374.09375 C 415.695312 374.785156 415.171875 375.421875 414.585938 376.007812 C 413.996094 376.597656 413.359375 377.121094 412.667969 377.582031 C 411.980469 378.042969 411.25 378.433594 410.484375 378.75 C 409.714844 379.066406 408.925781 379.308594 408.109375 379.46875 C 407.296875 379.632812 406.476562 379.710938 405.644531 379.710938 L 291.851562 379.710938 L 291.851562 405 L 405.644531 405 C 406.480469 404.992188 407.308594 405.066406 408.132812 405.222656 C 408.953125 405.375 409.75 405.613281 410.527344 405.925781 C 411.300781 406.238281 412.039062 406.628906 412.738281 407.085938 C 413.433594 407.546875 414.082031 408.074219 414.675781 408.660156 C 415.269531 409.25 415.800781 409.890625 416.269531 410.582031 C 416.734375 411.277344 417.128906 412.011719 417.453125 412.78125 C 417.773438 413.554688 418.015625 414.351562 418.183594 415.171875 C 418.347656 415.992188 418.429688 416.820312 418.429688 417.65625 C 418.429688 418.492188 418.347656 419.320312 418.183594 420.140625 C 418.015625 420.960938 417.773438 421.757812 417.453125 422.527344 C 417.128906 423.300781 416.734375 424.03125 416.269531 424.726562 C 415.800781 425.417969 415.269531 426.0625 414.675781 426.648438 C 414.082031 427.238281 413.433594 427.761719 412.738281 428.222656 C 412.039062 428.683594 411.300781 429.070312 410.527344 429.382812 C 409.75 429.699219 408.953125 429.933594 408.132812 430.089844 C 407.308594 430.246094 406.480469 430.320312 405.644531 430.3125 L 291.851562 430.3125 L 291.851562 480.886719 L 519.386719 480.886719 L 519.386719 303.824219 C 519.390625 300.644531 519.257812 297.472656 518.996094 294.304688 C 518.730469 291.136719 518.332031 287.984375 517.804688 284.847656 C 517.277344 281.714844 516.617188 278.605469 515.828125 275.527344 C 515.039062 272.445312 514.121094 269.40625 513.078125 266.402344 C 512.03125 263.398438 510.863281 260.445312 509.570312 257.542969 C 508.28125 254.636719 506.867188 251.789062 505.335938 249.003906 C 503.804688 246.21875 502.160156 243.5 500.402344 240.851562 C 498.644531 238.203125 496.777344 235.632812 494.800781 233.140625 C 492.828125 230.648438 490.753906 228.246094 488.574219 225.925781 C 486.398438 223.609375 484.128906 221.386719 481.765625 219.257812 C 479.40625 217.132812 476.957031 215.109375 474.425781 213.1875 C 471.890625 211.265625 469.28125 209.449219 466.597656 207.746094 C 463.914062 206.042969 461.164062 204.457031 458.34375 202.984375 C 455.527344 201.511719 452.652344 200.160156 449.722656 198.929688 C 446.789062 197.699219 443.8125 196.59375 440.789062 195.609375 C 437.765625 194.628906 434.703125 193.777344 431.609375 193.050781 C 428.511719 192.328125 425.390625 191.734375 422.246094 191.269531 C 419.101562 190.808594 415.941406 190.476562 412.769531 190.277344 C 409.597656 190.082031 406.417969 190.015625 403.242188 190.085938 C 400.0625 190.152344 396.890625 190.355469 393.730469 190.691406 C 390.570312 191.023438 387.425781 191.492188 384.304688 192.089844 C 381.183594 192.6875 378.089844 193.414062 375.027344 194.273438 C 371.96875 195.128906 368.945312 196.113281 365.96875 197.222656 C 362.988281 198.335938 360.0625 199.570312 357.1875 200.925781 C 354.3125 202.28125 351.496094 203.757812 348.746094 205.347656 C 345.992188 206.941406 343.3125 208.644531 340.703125 210.464844 C 338.097656 212.28125 335.566406 214.203125 333.121094 216.234375 C 330.671875 218.261719 328.316406 220.390625 326.046875 222.617188 C 323.777344 224.84375 321.605469 227.164062 319.53125 229.574219 C 317.457031 231.980469 315.488281 234.472656 313.621094 237.050781 C 311.757812 239.625 310.003906 242.273438 308.359375 244.992188 C 306.714844 247.714844 305.191406 250.5 303.78125 253.351562 L 406.335938 253.324219 C 407.195312 253.300781 408.046875 253.363281 408.890625 253.511719 C 409.738281 253.664062 410.558594 253.898438 411.355469 254.214844 C 412.15625 254.53125 412.914062 254.925781 413.628906 255.398438 C 414.347656 255.871094 415.011719 256.410156 415.617188 257.015625 C 416.226562 257.625 416.765625 258.285156 417.238281 259.003906 C 417.710938 259.722656 418.105469 260.476562 418.421875 261.277344 C 418.738281 262.074219 418.972656 262.894531 419.125 263.742188 C 419.273438 264.585938 419.335938 265.4375 419.3125 266.296875 C 419.289062 267.15625 419.179688 268.003906 418.984375 268.839844 C 418.789062 269.675781 418.507812 270.480469 418.148438 271.261719 C 417.785156 272.039062 417.351562 272.773438 416.839844 273.464844 C 416.328125 274.15625 415.753906 274.785156 415.113281 275.359375 C 414.472656 275.933594 413.785156 276.433594 413.042969 276.867188 C 412.300781 277.300781 411.519531 277.652344 410.707031 277.925781 C 409.894531 278.199219 409.058594 278.386719 408.207031 278.488281 C 407.355469 278.59375 406.5 278.609375 405.644531 278.539062 Z M 266.566406 493.480469 L 266.566406 430.3125 C 266.566406 429.480469 266.484375 428.65625 266.320312 427.84375 C 266.160156 427.03125 265.921875 426.238281 265.601562 425.472656 C 265.285156 424.703125 264.894531 423.976562 264.433594 423.285156 C 263.972656 422.597656 263.449219 421.957031 262.863281 421.371094 C 262.273438 420.78125 261.636719 420.257812 260.945312 419.796875 C 260.253906 419.335938 259.527344 418.945312 258.761719 418.628906 C 257.992188 418.3125 257.203125 418.070312 256.386719 417.910156 C 255.574219 417.746094 254.75 417.667969 253.921875 417.667969 C 253.089844 417.667969 252.269531 417.746094 251.453125 417.910156 C 250.640625 418.070312 249.851562 418.3125 249.082031 418.628906 C 248.316406 418.945312 247.585938 419.335938 246.898438 419.796875 C 246.207031 420.257812 245.566406 420.78125 244.980469 421.371094 C 244.394531 421.957031 243.871094 422.597656 243.410156 423.285156 C 242.949219 423.976562 242.558594 424.703125 242.242188 425.472656 C 241.921875 426.238281 241.683594 427.03125 241.519531 427.84375 C 241.359375 428.65625 241.277344 429.480469 241.277344 430.3125 L 241.277344 493.480469 C 241.277344 495.769531 241.324219 498.058594 241.421875 500.347656 C 241.515625 502.636719 241.660156 504.921875 241.851562 507.203125 C 242.042969 509.488281 242.28125 511.765625 242.566406 514.039062 C 242.855469 516.308594 243.1875 518.574219 243.570312 520.835938 C 243.949219 523.09375 244.378906 525.34375 244.855469 527.582031 C 245.332031 529.824219 245.851562 532.054688 246.421875 534.273438 C 246.988281 536.492188 247.605469 538.699219 248.265625 540.890625 C 248.925781 543.082031 249.632812 545.261719 250.386719 547.425781 C 251.136719 549.589844 251.9375 551.734375 252.777344 553.867188 C 253.621094 555.996094 254.507812 558.109375 255.4375 560.199219 C 256.367188 562.292969 257.339844 564.367188 258.359375 566.417969 C 259.375 568.472656 260.433594 570.5 261.539062 572.507812 C 262.640625 574.515625 263.785156 576.5 264.96875 578.460938 C 266.152344 580.421875 267.378906 582.355469 268.644531 584.265625 C 269.910156 586.175781 271.21875 588.054688 272.5625 589.910156 C 273.90625 591.765625 275.289062 593.589844 276.710938 595.386719 C 278.132812 597.179688 279.589844 598.949219 281.085938 600.683594 C 282.582031 602.417969 284.113281 604.121094 285.679688 605.792969 C 287.246094 607.464844 288.847656 609.101562 290.480469 610.707031 C 292.117188 612.308594 293.785156 613.878906 295.484375 615.414062 C 297.1875 616.949219 298.917969 618.445312 300.679688 619.90625 C 302.445312 621.371094 304.238281 622.792969 306.0625 624.179688 C 307.882812 625.566406 309.734375 626.914062 311.613281 628.226562 C 313.496094 629.535156 315.398438 630.804688 317.332031 632.035156 C 319.265625 633.261719 321.222656 634.453125 323.207031 635.601562 C 325.1875 636.746094 327.191406 637.851562 329.222656 638.917969 C 331.25 639.980469 333.300781 641 335.371094 641.980469 C 337.441406 642.957031 339.535156 643.890625 341.644531 644.78125 C 343.753906 645.671875 345.882812 646.519531 348.027344 647.320312 C 350.175781 648.121094 352.335938 648.878906 354.511719 649.589844 C 356.691406 650.300781 358.882812 650.964844 361.085938 651.585938 C 363.292969 652.203125 365.511719 652.777344 367.738281 653.304688 L 367.738281 708.445312 L 253.871094 708.445312 C 252.632812 708.453125 251.394531 708.523438 250.160156 708.648438 C 248.925781 708.777344 247.699219 708.96875 246.484375 709.214844 C 245.269531 709.464844 244.070312 709.769531 242.882812 710.136719 C 241.695312 710.5 240.53125 710.921875 239.386719 711.402344 C 238.242188 711.882812 237.125 712.414062 236.03125 713.003906 C 234.9375 713.589844 233.878906 714.230469 232.847656 714.921875 C 231.816406 715.617188 230.824219 716.355469 229.867188 717.144531 C 228.90625 717.933594 227.988281 718.765625 227.113281 719.644531 C 226.238281 720.523438 225.40625 721.441406 224.617188 722.402344 C 223.832031 723.359375 223.09375 724.355469 222.402344 725.386719 C 221.714844 726.417969 221.074219 727.480469 220.488281 728.574219 C 219.902344 729.667969 219.371094 730.789062 218.894531 731.933594 C 218.417969 733.078125 218 734.246094 217.636719 735.433594 C 217.273438 736.621094 216.96875 737.820312 216.722656 739.035156 C 216.476562 740.253906 216.289062 741.476562 216.164062 742.710938 C 216.039062 743.945312 215.972656 745.183594 215.964844 746.425781 L 215.964844 771.710938 C 215.96875 772.539062 216.054688 773.355469 216.21875 774.167969 C 216.378906 774.976562 216.621094 775.761719 216.9375 776.523438 C 217.257812 777.289062 217.644531 778.011719 218.105469 778.699219 C 218.5625 779.382812 219.085938 780.019531 219.667969 780.605469 C 220.253906 781.1875 220.890625 781.710938 221.574219 782.167969 C 222.261719 782.628906 222.988281 783.019531 223.75 783.335938 C 224.511719 783.652344 225.296875 783.894531 226.105469 784.058594 C 226.917969 784.21875 227.734375 784.304688 228.5625 784.308594 L 582.582031 784.308594 C 583.410156 784.308594 584.234375 784.234375 585.050781 784.074219 C 585.863281 783.914062 586.65625 783.679688 587.421875 783.363281 C 588.191406 783.046875 588.921875 782.664062 589.613281 782.203125 C 590.304688 781.746094 590.945312 781.222656 591.535156 780.640625 C 592.125 780.054688 592.652344 779.417969 593.117188 778.730469 C 593.582031 778.039062 593.972656 777.3125 594.292969 776.546875 C 594.613281 775.78125 594.855469 774.992188 595.023438 774.179688 C 595.1875 773.363281 595.269531 772.542969 595.273438 771.710938 L 595.273438 746.425781 C 595.269531 745.183594 595.203125 743.949219 595.074219 742.714844 C 594.949219 741.480469 594.761719 740.257812 594.519531 739.039062 C 594.273438 737.824219 593.96875 736.625 593.605469 735.4375 C 593.242188 734.253906 592.820312 733.085938 592.34375 731.941406 C 591.867188 730.796875 591.335938 729.675781 590.753906 728.585938 C 590.167969 727.492188 589.527344 726.429688 588.839844 725.398438 C 588.152344 724.367188 587.414062 723.371094 586.625 722.414062 C 585.839844 721.453125 585.007812 720.535156 584.132812 719.65625 C 583.257812 718.777344 582.339844 717.945312 581.382812 717.15625 C 580.425781 716.367188 579.433594 715.625 578.402344 714.933594 C 577.375 714.242188 576.3125 713.601562 575.222656 713.015625 C 574.128906 712.425781 573.011719 711.890625 571.871094 711.414062 C 570.726562 710.933594 569.5625 710.511719 568.375 710.144531 C 567.191406 709.777344 565.992188 709.46875 564.777344 709.222656 C 563.5625 708.972656 562.335938 708.78125 561.101562 708.652344 C 559.871094 708.523438 558.632812 708.453125 557.394531 708.445312 L 443.527344 708.445312 L 443.527344 653.277344 C 445.753906 652.75 447.972656 652.179688 450.175781 651.558594 C 452.382812 650.941406 454.574219 650.273438 456.75 649.5625 C 458.925781 648.851562 461.089844 648.097656 463.234375 647.296875 C 465.378906 646.496094 467.507812 645.648438 469.617188 644.757812 C 471.726562 643.867188 473.820312 642.933594 475.890625 641.957031 C 477.960938 640.976562 480.011719 639.957031 482.039062 638.894531 C 484.066406 637.828125 486.074219 636.722656 488.054688 635.578125 C 490.035156 634.429688 491.992188 633.242188 493.925781 632.011719 C 495.859375 630.78125 497.765625 629.511719 499.644531 628.203125 C 501.523438 626.894531 503.375 625.546875 505.195312 624.160156 C 507.019531 622.773438 508.8125 621.347656 510.574219 619.886719 C 512.339844 618.425781 514.070312 616.925781 515.769531 615.394531 C 517.472656 613.859375 519.140625 612.289062 520.773438 610.6875 C 522.410156 609.082031 524.011719 607.445312 525.578125 605.773438 C 527.144531 604.101562 528.675781 602.398438 530.167969 600.664062 C 531.664062 598.929688 533.121094 597.164062 534.542969 595.367188 C 535.964844 593.574219 537.347656 591.746094 538.691406 589.894531 C 540.039062 588.039062 541.34375 586.160156 542.609375 584.25 C 543.875 582.34375 545.101562 580.40625 546.285156 578.449219 C 547.472656 576.488281 548.617188 574.503906 549.71875 572.496094 C 550.820312 570.488281 551.878906 568.460938 552.898438 566.40625 C 553.914062 564.355469 554.890625 562.285156 555.820312 560.191406 C 556.75 558.097656 557.636719 555.988281 558.480469 553.855469 C 559.320312 551.726562 560.117188 549.582031 560.871094 547.417969 C 561.625 545.253906 562.332031 543.078125 562.992188 540.882812 C 563.652344 538.691406 564.269531 536.484375 564.835938 534.265625 C 565.40625 532.046875 565.929688 529.820312 566.402344 527.578125 C 566.878906 525.339844 567.308594 523.089844 567.691406 520.832031 C 568.070312 518.574219 568.40625 516.308594 568.691406 514.035156 C 568.980469 511.761719 569.21875 509.484375 569.410156 507.203125 C 569.601562 504.921875 569.746094 502.636719 569.84375 500.347656 C 569.9375 498.058594 569.984375 495.769531 569.984375 493.480469 L 569.984375 430.3125 C 569.984375 429.480469 569.90625 428.65625 569.742188 427.84375 C 569.582031 427.03125 569.339844 426.238281 569.023438 425.472656 C 568.707031 424.703125 568.316406 423.976562 567.855469 423.285156 C 567.394531 422.597656 566.871094 421.957031 566.28125 421.371094 C 565.695312 420.78125 565.058594 420.257812 564.367188 419.796875 C 563.675781 419.335938 562.949219 418.945312 562.179688 418.628906 C 561.414062 418.3125 560.625 418.070312 559.808594 417.910156 C 558.996094 417.746094 558.171875 417.667969 557.34375 417.667969 C 556.511719 417.667969 555.691406 417.746094 554.875 417.910156 C 554.0625 418.070312 553.269531 418.3125 552.503906 418.628906 C 551.738281 418.945312 551.007812 419.335938 550.316406 419.796875 C 549.628906 420.257812 548.988281 420.78125 548.402344 421.371094 C 547.816406 421.957031 547.289062 422.597656 546.828125 423.285156 C 546.367188 423.976562 545.980469 424.703125 545.660156 425.472656 C 545.34375 426.238281 545.105469 427.03125 544.941406 427.84375 C 544.78125 428.65625 544.699219 429.480469 544.699219 430.3125 L 544.699219 493.480469 C 544.699219 495.753906 544.640625 498.027344 544.527344 500.300781 C 544.417969 502.574219 544.25 504.84375 544.023438 507.105469 C 543.800781 509.371094 543.523438 511.628906 543.1875 513.878906 C 542.851562 516.128906 542.464844 518.371094 542.019531 520.601562 C 541.574219 522.835938 541.074219 525.054688 540.519531 527.261719 C 539.96875 529.46875 539.359375 531.660156 538.699219 533.835938 C 538.039062 536.015625 537.324219 538.175781 536.558594 540.316406 C 535.789062 542.460938 534.96875 544.582031 534.097656 546.683594 C 533.226562 548.785156 532.304688 550.863281 531.332031 552.921875 C 530.359375 554.976562 529.335938 557.007812 528.261719 559.015625 C 527.1875 561.023438 526.066406 563 524.898438 564.953125 C 523.726562 566.90625 522.507812 568.824219 521.246094 570.71875 C 519.980469 572.609375 518.671875 574.46875 517.316406 576.296875 C 515.957031 578.125 514.558594 579.917969 513.113281 581.675781 C 511.671875 583.433594 510.183594 585.15625 508.65625 586.839844 C 507.128906 588.527344 505.558594 590.175781 503.949219 591.785156 C 502.339844 593.390625 500.691406 594.960938 499.007812 596.488281 C 497.320312 598.015625 495.597656 599.5 493.839844 600.945312 C 492.078125 602.386719 490.285156 603.789062 488.457031 605.140625 C 486.628906 606.496094 484.769531 607.808594 482.878906 609.070312 C 480.984375 610.335938 479.0625 611.550781 477.113281 612.722656 C 475.160156 613.890625 473.179688 615.011719 471.175781 616.085938 C 469.167969 617.15625 467.136719 618.179688 465.078125 619.152344 C 463.023438 620.125 460.941406 621.046875 458.839844 621.917969 C 456.738281 622.789062 454.613281 623.605469 452.472656 624.371094 C 450.328125 625.136719 448.167969 625.851562 445.992188 626.511719 C 443.816406 627.171875 441.621094 627.78125 439.414062 628.332031 C 437.207031 628.886719 434.988281 629.382812 432.757812 629.828125 C 430.523438 630.269531 428.285156 630.660156 426.03125 630.992188 C 423.78125 631.328125 421.523438 631.605469 419.261719 631.828125 C 416.996094 632.050781 414.726562 632.21875 412.453125 632.332031 C 410.179688 632.441406 407.90625 632.496094 405.632812 632.496094 C 403.355469 632.496094 401.082031 632.441406 398.808594 632.332031 C 396.535156 632.21875 394.269531 632.050781 392.003906 631.828125 C 389.738281 631.605469 387.480469 631.328125 385.230469 630.992188 C 382.980469 630.660156 380.738281 630.269531 378.507812 629.828125 C 376.277344 629.382812 374.054688 628.886719 371.847656 628.332031 C 369.640625 627.78125 367.449219 627.171875 365.273438 626.511719 C 363.09375 625.851562 360.933594 625.140625 358.792969 624.371094 C 356.648438 623.605469 354.527344 622.789062 352.425781 621.917969 C 350.320312 621.046875 348.242188 620.125 346.183594 619.152344 C 344.128906 618.179688 342.097656 617.15625 340.089844 616.085938 C 338.082031 615.011719 336.101562 613.890625 334.152344 612.722656 C 332.199219 611.550781 330.277344 610.335938 328.386719 609.070312 C 326.492188 607.808594 324.632812 606.496094 322.804688 605.140625 C 320.976562 603.789062 319.183594 602.386719 317.425781 600.945312 C 315.664062 599.5 313.941406 598.015625 312.257812 596.488281 C 310.570312 594.960938 308.921875 593.390625 307.3125 591.785156 C 305.703125 590.175781 304.136719 588.527344 302.605469 586.839844 C 301.078125 585.15625 299.59375 583.433594 298.148438 581.675781 C 296.707031 579.917969 295.304688 578.125 293.949219 576.296875 C 292.59375 574.46875 291.285156 572.609375 290.019531 570.71875 C 288.753906 568.824219 287.535156 566.902344 286.367188 564.953125 C 285.195312 563 284.074219 561.023438 283 559.015625 C 281.929688 557.007812 280.90625 554.976562 279.933594 552.921875 C 278.957031 550.863281 278.035156 548.785156 277.164062 546.683594 C 276.292969 544.582031 275.472656 542.460938 274.707031 540.316406 C 273.941406 538.175781 273.226562 536.015625 272.566406 533.835938 C 271.902344 531.660156 271.296875 529.46875 270.742188 527.261719 C 270.1875 525.054688 269.691406 522.835938 269.246094 520.601562 C 268.800781 518.371094 268.410156 516.128906 268.078125 513.878906 C 267.742188 511.628906 267.464844 509.371094 267.238281 507.105469 C 267.015625 504.84375 266.847656 502.574219 266.734375 500.300781 C 266.621094 498.027344 266.566406 495.753906 266.566406 493.480469 Z M 292.609375 506.171875 C 292.800781 507.890625 293.03125 509.605469 293.296875 511.316406 C 293.566406 513.023438 293.875 514.726562 294.21875 516.421875 C 294.566406 518.117188 294.949219 519.804688 295.375 521.480469 C 295.796875 523.160156 296.257812 524.828125 296.757812 526.484375 C 297.257812 528.140625 297.792969 529.785156 298.367188 531.417969 C 298.941406 533.046875 299.550781 534.667969 300.199219 536.269531 C 300.847656 537.875 301.53125 539.464844 302.253906 541.035156 C 302.972656 542.609375 303.730469 544.164062 304.523438 545.703125 C 305.3125 547.242188 306.140625 548.761719 307 550.261719 C 307.863281 551.765625 308.757812 553.242188 309.683594 554.703125 C 310.613281 556.164062 311.574219 557.601562 312.570312 559.019531 C 313.5625 560.433594 314.589844 561.828125 315.648438 563.195312 C 316.707031 564.566406 317.792969 565.910156 318.914062 567.226562 C 320.03125 568.546875 321.179688 569.839844 322.359375 571.109375 C 323.539062 572.375 324.746094 573.613281 325.980469 574.828125 C 327.214844 576.039062 328.476562 577.222656 329.765625 578.375 C 331.054688 579.53125 332.367188 580.65625 333.707031 581.75 C 335.050781 582.84375 336.414062 583.90625 337.800781 584.9375 C 339.191406 585.96875 340.601562 586.96875 342.035156 587.9375 C 343.472656 588.90625 344.925781 589.839844 346.402344 590.742188 C 347.882812 591.640625 349.378906 592.507812 350.894531 593.339844 C 352.410156 594.171875 353.945312 594.972656 355.5 595.734375 C 357.050781 596.496094 358.621094 597.222656 360.207031 597.914062 C 361.792969 598.605469 363.394531 599.261719 365.011719 599.878906 C 366.628906 600.496094 368.257812 601.078125 369.898438 601.621094 C 371.542969 602.164062 373.195312 602.667969 374.863281 603.136719 C 376.527344 603.605469 378.203125 604.035156 379.890625 604.425781 C 381.574219 604.816406 383.269531 605.171875 384.96875 605.484375 C 386.671875 605.800781 388.378906 606.074219 390.09375 606.308594 C 391.804688 606.546875 393.523438 606.742188 395.246094 606.902344 C 396.972656 607.058594 398.695312 607.175781 400.425781 607.257812 C 402.152344 607.335938 403.882812 607.375 405.613281 607.375 C 407.34375 607.375 409.074219 607.335938 410.800781 607.257812 C 412.53125 607.175781 414.253906 607.058594 415.976562 606.902344 C 417.699219 606.742188 419.417969 606.546875 421.132812 606.308594 C 422.847656 606.074219 424.554688 605.800781 426.257812 605.484375 C 427.957031 605.171875 429.652344 604.816406 431.335938 604.425781 C 433.023438 604.035156 434.699219 603.605469 436.363281 603.136719 C 438.027344 602.667969 439.683594 602.164062 441.324219 601.621094 C 442.96875 601.078125 444.597656 600.496094 446.214844 599.878906 C 447.832031 599.261719 449.429688 598.605469 451.019531 597.914062 C 452.605469 597.222656 454.171875 596.496094 455.726562 595.734375 C 457.28125 594.972656 458.8125 594.171875 460.332031 593.339844 C 461.847656 592.507812 463.34375 591.640625 464.820312 590.742188 C 466.296875 589.839844 467.753906 588.90625 469.1875 587.9375 C 470.625 586.96875 472.035156 585.96875 473.421875 584.9375 C 474.8125 583.90625 476.175781 582.84375 477.515625 581.75 C 478.855469 580.65625 480.171875 579.53125 481.460938 578.375 C 482.75 577.222656 484.011719 576.039062 485.246094 574.828125 C 486.480469 573.613281 487.6875 572.375 488.867188 571.109375 C 490.042969 569.839844 491.191406 568.546875 492.3125 567.226562 C 493.429688 565.910156 494.519531 564.566406 495.578125 563.195312 C 496.636719 561.828125 497.660156 560.433594 498.65625 559.019531 C 499.648438 557.601562 500.613281 556.164062 501.539062 554.703125 C 502.46875 553.242188 503.363281 551.765625 504.226562 550.261719 C 505.085938 548.761719 505.914062 547.242188 506.703125 545.703125 C 507.496094 544.164062 508.25 542.609375 508.972656 541.035156 C 509.691406 539.464844 510.378906 537.875 511.027344 536.269531 C 511.671875 534.667969 512.285156 533.046875 512.859375 531.417969 C 513.433594 529.785156 513.96875 528.140625 514.46875 526.484375 C 514.96875 524.828125 515.429688 523.160156 515.851562 521.480469 C 516.273438 519.804688 516.660156 518.117188 517.007812 516.421875 C 517.351562 514.726562 517.660156 513.023438 517.925781 511.316406 C 518.195312 509.605469 518.425781 507.890625 518.613281 506.171875 Z M 292.609375 506.171875 " fill-opacity="1" fill-rule="nonzero"/></svg>