<svg xmlns="http://www.w3.org/2000/svg" xmlns:xlink="http://www.w3.org/1999/xlink" width="1080" zoomAndPan="magnify" viewBox="0 0 810 809.999993" height="1080" preserveAspectRatio="xMidYMid meet" version="1.0"><defs><clipPath id="88a669cb06"><path d="M 94.371094 26 L 715.371094 26 L 715.371094 786 L 94.371094 786 Z M 94.371094 26 " clip-rule="nonzero"/></clipPath></defs><rect x="-81" width="972" fill="none" y="-80.999999" height="971.999992" fill-opacity="1"/><rect x="-81" width="972" fill="none" y="-80.999999" height="971.999992" fill-opacity="1"/><g clip-path="url(#88a669cb06)"><path fill="#861e1e" d="M 715.195312 178.695312 C 715.269531 175.429688 714.828125 172.238281 713.871094 169.113281 C 712.914062 165.992188 711.488281 163.101562 709.59375 160.441406 C 708.304688 158.699219 706.855469 157.105469 705.242188 155.65625 C 703.628906 154.207031 701.886719 152.9375 700.019531 151.839844 C 698.148438 150.746094 696.1875 149.847656 694.136719 149.152344 C 692.085938 148.453125 689.984375 147.96875 687.832031 147.695312 C 666.625 144.769531 645.722656 140.046875 624.902344 135.132812 C 606.808594 130.417969 588.769531 125.378906 571.199219 118.941406 C 550.742188 111.21875 530.941406 102.085938 511.792969 91.539062 C 481.558594 74.492188 452.933594 55.070312 425.921875 33.277344 C 424.054688 31.824219 422.054688 30.582031 419.925781 29.550781 C 417.796875 28.515625 415.585938 27.714844 413.289062 27.148438 C 410.992188 26.578125 408.660156 26.25 406.296875 26.171875 C 403.933594 26.089844 401.585938 26.253906 399.253906 26.664062 C 393.246094 28.242188 387.789062 30.945312 382.890625 34.769531 C 374.039062 41.199219 365.65625 48.25 356.773438 54.640625 C 349.230469 60.035156 341.6875 65.433594 334.03125 70.65625 C 306.5625 88.890625 277.449219 103.960938 246.699219 115.863281 C 205.878906 130.945312 163.925781 141.5625 120.84375 147.722656 C 117.445312 148.414062 114.222656 149.582031 111.167969 151.230469 C 108.113281 152.875 105.363281 154.925781 102.917969 157.382812 C 101.585938 158.8125 100.40625 160.355469 99.371094 162.011719 C 98.339844 163.667969 97.472656 165.410156 96.777344 167.234375 C 96.078125 169.054688 95.558594 170.929688 95.222656 172.851562 C 94.886719 174.773438 94.734375 176.710938 94.769531 178.664062 C 95.109375 260.457031 94.667969 342.238281 94.84375 424.019531 C 94.347656 438.039062 94.933594 452.015625 96.601562 465.945312 C 100.03125 488.890625 106.070312 511.128906 114.710938 532.660156 C 119.300781 544.945312 124.753906 556.832031 131.078125 568.324219 C 139.179688 584 148.367188 599.015625 158.632812 613.367188 C 178.894531 641.527344 202.035156 667.078125 228.058594 690.019531 C 257.582031 715.554688 289.683594 737.28125 324.363281 755.199219 C 342.730469 764.914062 361.699219 773.269531 381.265625 780.261719 C 387.960938 782.964844 394.914062 784.582031 402.117188 785.105469 C 408.277344 784.960938 414.363281 784.199219 420.375 782.828125 C 426.382812 781.457031 432.195312 779.5 437.808594 776.960938 C 457.738281 769.203125 477.011719 760.054688 495.621094 749.515625 C 521.257812 735.722656 545.328125 719.59375 567.835938 701.128906 C 595.09375 678.933594 619.648438 654.066406 641.492188 626.523438 C 648.605469 617.816406 654.707031 608.339844 661.003906 599.039062 C 670.132812 585.242188 678.261719 570.875 685.378906 555.941406 C 692.496094 541.007812 698.539062 525.648438 703.503906 509.867188 C 710.003906 489.910156 713.910156 469.457031 715.226562 448.507812 C 715.1875 358.570312 715.175781 268.632812 715.195312 178.695312 Z M 648.257812 487.132812 C 643.832031 503.582031 637.945312 519.484375 630.59375 534.847656 C 622.808594 550.464844 613.839844 565.367188 603.6875 579.558594 C 593.53125 593.75 582.320312 607.050781 570.054688 619.460938 C 548.765625 641.417969 525.644531 661.238281 500.691406 678.917969 C 479.949219 693.5625 458.25 706.617188 435.589844 718.074219 C 426.140625 723.847656 416.035156 728.066406 405.285156 730.730469 C 398.507812 729.683594 392.109375 727.519531 386.089844 724.238281 C 368.894531 715.917969 352.242188 706.632812 336.128906 696.375 C 303.730469 676.375 273.96875 653.015625 246.84375 626.296875 C 232.988281 613.070312 220.394531 598.734375 209.0625 583.292969 C 197.726562 567.851562 187.828125 551.539062 179.363281 534.355469 C 171.078125 516.898438 164.675781 498.769531 160.15625 479.980469 C 154.957031 455.441406 152.886719 430.640625 153.953125 405.578125 C 153.921875 343.21875 153.9375 280.859375 154.003906 218.496094 C 153.859375 217.246094 153.835938 215.996094 153.9375 214.738281 C 154.042969 213.484375 154.265625 212.253906 154.613281 211.042969 C 154.960938 209.835938 155.425781 208.671875 156.003906 207.550781 C 156.582031 206.433594 157.265625 205.382812 158.050781 204.402344 C 160.109375 202.929688 162.332031 201.773438 164.71875 200.929688 C 167.101562 200.089844 169.558594 199.597656 172.085938 199.453125 C 208.414062 192.632812 243.648438 182.144531 277.792969 167.992188 C 300.03125 158.550781 321.441406 147.507812 342.027344 134.867188 C 357.632812 124.808594 372.636719 113.832031 387.171875 102.269531 C 391.273438 98.523438 395.75 95.289062 400.59375 92.570312 C 401.917969 92.144531 403.277344 91.902344 404.664062 91.847656 C 406.054688 91.789062 407.425781 91.917969 408.78125 92.230469 C 410.136719 92.542969 411.425781 93.03125 412.648438 93.695312 C 413.871094 94.359375 414.984375 95.171875 415.988281 96.136719 C 431.824219 109.320312 448.4375 121.429688 465.832031 132.472656 C 483.230469 143.515625 501.261719 153.394531 519.929688 162.117188 C 556.855469 179.09375 595.277344 191.414062 635.195312 199.078125 C 640.816406 199.460938 646.097656 201.011719 651.039062 203.726562 C 651.957031 204.394531 652.78125 205.164062 653.5 206.042969 C 654.222656 206.921875 654.820312 207.878906 655.296875 208.914062 C 655.769531 209.945312 656.105469 211.023438 656.300781 212.140625 C 656.5 213.261719 656.550781 214.390625 656.453125 215.523438 C 656.476562 283.984375 656.492188 352.449219 656.503906 420.921875 C 656.765625 443.367188 654.015625 465.4375 648.257812 487.132812 Z M 648.257812 487.132812 " fill-opacity="1" fill-rule="nonzero"/></g><path fill="#861e1e" d="M 629.757812 236.914062 C 629.4375 232.941406 630.820312 227.144531 626.117188 225.253906 C 619.707031 223.320312 613.042969 222.410156 606.574219 220.703125 C 575.222656 213.460938 544.828125 203.332031 515.398438 190.316406 C 477.101562 173.402344 441.453125 152.0625 408.453125 126.300781 C 407.167969 125.300781 405.253906 124.09375 403.691406 125.15625 C 378.902344 145.292969 352.269531 162.589844 323.789062 177.039062 C 302.175781 188.019531 279.90625 197.464844 256.988281 205.371094 C 234.066406 213.277344 210.714844 219.578125 186.925781 224.261719 C 184.066406 224.710938 180.671875 226.441406 180.546875 229.722656 C 180.058594 273.691406 180.488281 317.664062 180.386719 361.648438 C 180.140625 386.515625 180.304688 411.394531 180.519531 436.273438 C 182.207031 455.488281 186.085938 474.246094 192.160156 492.550781 C 199.625 513.957031 209.542969 534.160156 221.914062 553.15625 C 232.890625 569.269531 245.054688 584.433594 258.398438 598.648438 C 271.742188 612.863281 286.109375 625.957031 301.496094 637.929688 C 331.277344 662.023438 363.417969 682.386719 397.925781 699.015625 C 400.839844 700.191406 403.945312 702.140625 407.195312 701.015625 C 411.839844 699.261719 416.371094 697.253906 420.789062 694.996094 C 436.992188 686.785156 452.652344 677.644531 467.769531 667.574219 C 497.566406 648.125 524.925781 625.699219 549.847656 600.292969 C 564.90625 585.351562 578.136719 568.933594 589.546875 551.046875 C 597.816406 537.992188 605.101562 524.410156 611.398438 510.296875 C 614.699219 502.449219 617.566406 494.449219 620.007812 486.292969 C 622.449219 478.140625 624.445312 469.875 626 461.507812 C 627.554688 453.136719 628.65625 444.710938 629.308594 436.222656 C 629.957031 427.734375 630.152344 419.238281 629.890625 410.730469 C 629.859375 352.796875 629.949219 294.851562 629.757812 236.914062 Z M 309.285156 294.390625 C 309.878906 292.175781 310.554688 289.980469 311.308594 287.8125 C 312.058594 285.648438 312.890625 283.507812 313.796875 281.402344 C 314.703125 279.292969 315.683594 277.21875 316.738281 275.183594 C 317.796875 273.144531 318.925781 271.148438 320.125 269.191406 C 321.324219 267.238281 322.59375 265.328125 323.929688 263.460938 C 325.269531 261.597656 326.671875 259.785156 328.140625 258.019531 C 329.609375 256.257812 331.140625 254.550781 332.734375 252.894531 C 334.324219 251.242188 335.972656 249.648438 337.679688 248.117188 C 339.386719 246.582031 341.148438 245.109375 342.960938 243.703125 C 344.773438 242.296875 346.632812 240.957031 348.542969 239.683594 C 350.453125 238.410156 352.40625 237.207031 354.402344 236.078125 C 356.398438 234.945312 358.433594 233.886719 360.503906 232.902344 C 362.578125 231.914062 364.683594 231.007812 366.820312 230.171875 C 368.957031 229.339844 371.125 228.582031 373.316406 227.90625 C 375.507812 227.230469 377.722656 226.632812 379.957031 226.113281 C 382.195312 225.597656 384.445312 225.160156 386.714844 224.804688 C 392.023438 223.9375 397.367188 223.46875 402.742188 223.386719 C 408.121094 223.308594 413.476562 223.625 418.808594 224.332031 C 424.140625 225.042969 429.390625 226.136719 434.5625 227.621094 C 439.734375 229.101562 444.769531 230.953125 449.667969 233.175781 C 457.46875 236.863281 464.664062 241.5 471.246094 247.085938 C 477.828125 252.667969 483.574219 259.007812 488.488281 266.109375 C 492.789062 272.414062 496.203125 279.164062 498.738281 286.363281 C 501.269531 293.566406 502.835938 300.96875 503.429688 308.578125 C 504.269531 316.753906 503.511719 324.984375 503.707031 333.191406 C 493.320312 333.261719 482.925781 333.34375 472.550781 333.179688 L 472.234375 332.8125 C 472.722656 323.542969 471.847656 314.40625 469.617188 305.398438 C 468.773438 302.375 467.71875 299.425781 466.457031 296.550781 C 465.191406 293.675781 463.734375 290.902344 462.082031 288.230469 C 460.429688 285.5625 458.597656 283.019531 456.585938 280.609375 C 454.578125 278.195312 452.40625 275.9375 450.078125 273.832031 C 447.75 271.722656 445.28125 269.792969 442.679688 268.03125 C 440.078125 266.273438 437.367188 264.707031 434.546875 263.328125 C 431.722656 261.953125 428.816406 260.78125 425.832031 259.8125 C 422.84375 258.84375 419.800781 258.089844 416.707031 257.550781 C 413.617188 257.011719 410.5 256.695312 407.359375 256.59375 C 404.222656 256.492188 401.089844 256.613281 397.96875 256.953125 C 394.847656 257.296875 391.765625 257.855469 388.722656 258.628906 C 385.679688 259.402344 382.707031 260.390625 379.800781 261.582031 C 376.898438 262.777344 374.089844 264.167969 371.382812 265.757812 C 368.675781 267.347656 366.089844 269.121094 363.632812 271.074219 C 361.171875 273.027344 358.863281 275.144531 356.703125 277.421875 C 354.542969 279.703125 352.554688 282.121094 350.734375 284.679688 C 348.277344 288.195312 346.148438 291.898438 344.339844 295.785156 C 342.535156 299.675781 341.082031 303.691406 339.984375 307.835938 C 338.882812 311.980469 338.152344 316.1875 337.789062 320.460938 C 337.429688 324.730469 337.445312 329.003906 337.832031 333.273438 C 327.4375 333.28125 317.042969 333.253906 306.648438 333.273438 C 305.882812 320.199219 306.761719 307.238281 309.285156 294.390625 Z M 535.832031 522.164062 C 536.257812 529.21875 535.6875 536.195312 534.113281 543.085938 C 533.339844 545.421875 532.367188 547.671875 531.203125 549.835938 C 530.039062 552.003906 528.695312 554.054688 527.175781 555.992188 C 525.65625 557.925781 523.984375 559.71875 522.15625 561.363281 C 520.328125 563.011719 518.371094 564.488281 516.289062 565.796875 C 512.90625 568.230469 509.234375 570.101562 505.277344 571.410156 C 501.316406 572.71875 497.253906 573.402344 493.085938 573.464844 C 438.257812 573.515625 383.425781 573.515625 328.585938 573.464844 C 319.867188 574.28125 311.300781 573.476562 302.886719 571.050781 C 300.917969 570.371094 299.007812 569.550781 297.160156 568.585938 C 295.316406 567.621094 293.550781 566.523438 291.867188 565.296875 C 290.179688 564.070312 288.597656 562.722656 287.113281 561.257812 C 285.632812 559.792969 284.265625 558.230469 283.015625 556.5625 C 281.765625 554.894531 280.648438 553.140625 279.660156 551.308594 C 278.671875 549.472656 277.824219 547.574219 277.121094 545.613281 C 276.417969 543.652344 275.859375 541.648438 275.453125 539.605469 C 275.046875 537.5625 274.796875 535.5 274.699219 533.417969 C 274.75 482.289062 274.753906 431.164062 274.71875 380.035156 C 274.683594 378.804688 274.746094 377.582031 274.902344 376.363281 C 275.058594 375.144531 275.304688 373.945312 275.648438 372.765625 C 275.992188 371.585938 276.421875 370.4375 276.941406 369.324219 C 277.464844 368.210938 278.066406 367.144531 278.753906 366.125 C 279.441406 365.105469 280.199219 364.144531 281.035156 363.242188 C 281.871094 362.339844 282.773438 361.511719 283.734375 360.75 C 284.699219 359.988281 285.71875 359.304688 286.789062 358.699219 C 287.859375 358.097656 288.96875 357.582031 290.121094 357.148438 C 295.71875 355.886719 301.371094 355.542969 307.078125 356.117188 C 375.203125 356.035156 443.328125 356.03125 511.453125 356.105469 C 513.050781 356.035156 514.640625 356.128906 516.21875 356.386719 C 517.796875 356.640625 519.332031 357.054688 520.828125 357.625 C 522.320312 358.199219 523.742188 358.914062 525.085938 359.777344 C 526.433594 360.640625 527.679688 361.632812 528.820312 362.75 C 530.003906 364.058594 531.050781 365.46875 531.960938 366.980469 C 532.871094 368.492188 533.625 370.078125 534.226562 371.738281 C 534.828125 373.394531 535.265625 375.097656 535.539062 376.839844 C 535.808594 378.582031 535.910156 380.335938 535.84375 382.101562 C 535.964844 428.78125 535.960938 475.46875 535.832031 522.164062 Z M 535.832031 522.164062 " fill-opacity="1" fill-rule="nonzero"/><path fill="#861e1e" d="M 408.28125 412.558594 C 407.355469 412.457031 406.425781 412.402344 405.496094 412.394531 C 404.566406 412.386719 403.636719 412.425781 402.710938 412.511719 C 401.78125 412.597656 400.863281 412.730469 399.949219 412.910156 C 399.035156 413.085938 398.132812 413.3125 397.242188 413.582031 C 396.351562 413.851562 395.476562 414.164062 394.617188 414.523438 C 393.757812 414.878906 392.917969 415.277344 392.101562 415.722656 C 391.28125 416.164062 390.484375 416.644531 389.714844 417.167969 C 388.945312 417.691406 388.203125 418.25 387.488281 418.847656 C 386.773438 419.445312 386.09375 420.074219 385.441406 420.742188 C 384.792969 421.40625 384.175781 422.101562 383.59375 422.832031 C 383.015625 423.558594 382.472656 424.3125 381.96875 425.097656 C 381.464844 425.878906 381 426.683594 380.578125 427.511719 C 380.15625 428.34375 379.773438 429.191406 379.4375 430.058594 C 379.097656 430.925781 378.804688 431.808594 378.558594 432.703125 C 378.308594 433.601562 378.105469 434.507812 377.949219 435.425781 C 377.792969 436.34375 377.679688 437.265625 377.617188 438.195312 C 377.496094 440.238281 377.597656 442.273438 377.921875 444.292969 C 378.242188 446.316406 378.78125 448.28125 379.527344 450.1875 C 380.277344 452.09375 381.222656 453.898438 382.363281 455.597656 C 383.503906 457.296875 384.816406 458.855469 386.292969 460.273438 C 386.367188 476.8125 386.363281 493.347656 386.285156 509.886719 C 386.25 510.875 386.308594 511.863281 386.449219 512.84375 C 386.59375 513.820312 386.824219 514.78125 387.136719 515.71875 C 387.453125 516.660156 387.847656 517.5625 388.324219 518.433594 C 388.800781 519.300781 389.347656 520.121094 389.96875 520.890625 C 390.59375 521.660156 391.277344 522.371094 392.027344 523.019531 C 392.773438 523.667969 393.574219 524.246094 394.425781 524.75 C 395.277344 525.253906 396.167969 525.679688 397.097656 526.027344 C 398.023438 526.375 398.976562 526.636719 399.949219 526.8125 C 401.402344 527.132812 402.871094 527.308594 404.359375 527.339844 C 405.847656 527.371094 407.320312 527.253906 408.785156 526.992188 C 410.25 526.730469 411.671875 526.324219 413.058594 525.78125 C 414.441406 525.238281 415.757812 524.5625 417.007812 523.757812 C 417.9375 523.148438 418.792969 522.449219 419.574219 521.660156 C 420.355469 520.871094 421.046875 520.007812 421.644531 519.074219 C 422.246094 518.140625 422.742188 517.152344 423.136719 516.117188 C 423.53125 515.078125 423.8125 514.011719 423.980469 512.914062 C 424.207031 495.691406 423.796875 478.445312 424.214844 461.242188 C 426.546875 458.597656 428.445312 455.671875 429.910156 452.464844 C 431.371094 449.257812 432.339844 445.910156 432.8125 442.414062 C 432.859375 441.53125 432.863281 440.648438 432.828125 439.765625 C 432.792969 438.882812 432.71875 438.003906 432.601562 437.125 C 432.484375 436.25 432.328125 435.378906 432.128906 434.519531 C 431.933594 433.65625 431.695312 432.804688 431.417969 431.964844 C 431.144531 431.125 430.828125 430.300781 430.476562 429.488281 C 430.125 428.679688 429.734375 427.886719 429.308594 427.109375 C 428.882812 426.335938 428.421875 425.582031 427.925781 424.847656 C 427.429688 424.117188 426.902344 423.410156 426.339844 422.726562 C 425.777344 422.042969 425.1875 421.386719 424.566406 420.757812 C 423.941406 420.128906 423.292969 419.53125 422.617188 418.964844 C 421.9375 418.394531 421.234375 417.859375 420.507812 417.355469 C 419.78125 416.855469 419.03125 416.386719 418.261719 415.953125 C 417.492188 415.519531 416.703125 415.121094 415.894531 414.761719 C 415.089844 414.398438 414.265625 414.078125 413.429688 413.792969 C 412.589844 413.507812 411.742188 413.261719 410.882812 413.058594 C 410.023438 412.851562 409.15625 412.683594 408.28125 412.558594 Z M 408.28125 412.558594 " fill-opacity="1" fill-rule="nonzero"/></svg>