<svg xmlns="http://www.w3.org/2000/svg" xmlns:xlink="http://www.w3.org/1999/xlink" width="1080" zoomAndPan="magnify" viewBox="0 0 810 809.999993" height="1080" preserveAspectRatio="xMidYMid meet" version="1.0"><defs><clipPath id="6259a34453"><path d="M 96 35.21875 L 714 35.21875 L 714 774.71875 L 96 774.71875 Z M 96 35.21875 " clip-rule="nonzero"/></clipPath><clipPath id="ff00e508ff"><path d="M 35.21875 35.21875 L 340 35.21875 L 340 492 L 35.21875 492 Z M 35.21875 35.21875 " clip-rule="nonzero"/></clipPath><clipPath id="a9ddc922b1"><path d="M 470 35.21875 L 774.71875 35.21875 L 774.71875 492 L 470 492 Z M 470 35.21875 " clip-rule="nonzero"/></clipPath></defs><rect x="-81" width="972" fill="#ffffff" y="-80.999999" height="971.999992" fill-opacity="1"/><rect x="-81" width="972" fill="#ffffff" y="-80.999999" height="971.999992" fill-opacity="1"/><path fill="#038647" d="M 343.367188 158.476562 L 466.625 158.476562 L 466.625 183.128906 L 343.367188 183.128906 Z M 343.367188 158.476562 " fill-opacity="1" fill-rule="nonzero"/><path fill="#038647" d="M 343.367188 207.78125 L 466.625 207.78125 L 466.625 232.433594 L 343.367188 232.433594 Z M 343.367188 207.78125 " fill-opacity="1" fill-rule="nonzero"/><g clip-path="url(#6259a34453)"><path fill="#038647" d="M 713.144531 676.167969 L 713.144531 577.558594 C 713.144531 572.085938 709.535156 567.269531 704.269531 565.726562 L 417.324219 482.035156 L 417.324219 331.039062 L 503.605469 331.039062 C 510.421875 331.039062 515.929688 325.519531 515.929688 318.714844 L 515.929688 121.5 C 515.929688 118.234375 514.636719 115.089844 512.320312 112.785156 L 438.363281 38.828125 C 436.058594 36.511719 432.925781 35.21875 429.648438 35.21875 L 306.390625 35.21875 C 299.574219 35.21875 294.0625 40.738281 294.0625 47.542969 L 294.0625 318.714844 C 294.0625 325.519531 299.574219 331.039062 306.390625 331.039062 L 392.671875 331.039062 L 392.671875 482.035156 L 105.722656 565.726562 C 100.457031 567.269531 96.847656 572.085938 96.847656 577.558594 L 96.847656 676.167969 C 96.847656 681.640625 100.457031 686.460938 105.722656 688 L 401.546875 774.28125 C 402.679688 774.617188 403.824219 774.777344 404.996094 774.777344 C 406.167969 774.777344 407.3125 774.617188 408.449219 774.28125 L 704.269531 688 C 709.535156 686.460938 713.144531 681.640625 713.144531 676.167969 Z M 441.972656 77.296875 L 473.847656 109.171875 L 441.972656 109.171875 Z M 318.714844 59.871094 L 417.324219 59.871094 L 417.324219 121.5 C 417.324219 128.304688 422.832031 133.824219 429.648438 133.824219 L 491.277344 133.824219 L 491.277344 306.390625 L 318.714844 306.390625 Z M 392.671875 507.710938 L 392.671875 572.457031 L 364.40625 544.195312 L 346.976562 561.621094 L 396.28125 610.925781 C 398.6875 613.332031 401.839844 614.539062 404.996094 614.539062 C 408.152344 614.539062 411.308594 613.332031 413.710938 610.925781 L 463.015625 561.621094 L 445.585938 544.195312 L 417.324219 572.457031 L 417.324219 507.710938 L 656.804688 577.558594 L 404.996094 651 L 153.1875 577.558594 Z M 121.5 593.992188 L 392.671875 673.085938 L 392.671875 746.019531 L 121.5 666.921875 Z M 417.324219 746.019531 L 417.324219 673.085938 L 688.492188 593.992188 L 688.492188 666.921875 Z M 417.324219 746.019531 " fill-opacity="1" fill-rule="nonzero"/></g><path fill="#038647" d="M 343.367188 109.171875 L 392.671875 109.171875 L 392.671875 133.824219 L 343.367188 133.824219 Z M 343.367188 109.171875 " fill-opacity="1" fill-rule="nonzero"/><g clip-path="url(#ff00e508ff)"><path fill="#038647" d="M 47.542969 331.039062 L 133.824219 331.039062 C 133.824219 365.023438 161.472656 392.671875 195.453125 392.671875 L 232.433594 392.671875 C 252.820312 392.671875 269.410156 409.261719 269.410156 429.648438 L 269.410156 449.199219 L 241.148438 420.933594 L 223.71875 438.363281 L 273.023438 487.667969 C 275.425781 490.070312 278.582031 491.277344 281.738281 491.277344 C 284.890625 491.277344 288.046875 490.070312 290.453125 487.667969 L 339.753906 438.363281 L 322.328125 420.933594 L 294.0625 449.199219 L 294.0625 429.648438 C 294.0625 395.664062 266.414062 368.019531 232.433594 368.019531 L 195.453125 368.019531 C 175.066406 368.019531 158.476562 351.429688 158.476562 331.039062 L 244.757812 331.039062 C 251.574219 331.039062 257.085938 325.519531 257.085938 318.714844 L 257.085938 121.5 C 257.085938 118.234375 255.789062 115.089844 253.472656 112.785156 L 179.519531 38.828125 C 177.210938 36.511719 174.082031 35.21875 170.804688 35.21875 L 47.542969 35.21875 C 40.726562 35.21875 35.21875 40.738281 35.21875 47.542969 L 35.21875 318.714844 C 35.21875 325.519531 40.726562 331.039062 47.542969 331.039062 Z M 183.128906 77.296875 L 215.003906 109.171875 L 183.128906 109.171875 Z M 59.871094 59.871094 L 158.476562 59.871094 L 158.476562 121.5 C 158.476562 128.304688 163.988281 133.824219 170.804688 133.824219 L 232.433594 133.824219 L 232.433594 306.390625 L 59.871094 306.390625 Z M 59.871094 59.871094 " fill-opacity="1" fill-rule="nonzero"/></g><path fill="#038647" d="M 84.519531 158.476562 L 207.78125 158.476562 L 207.78125 183.128906 L 84.519531 183.128906 Z M 84.519531 158.476562 " fill-opacity="1" fill-rule="nonzero"/><path fill="#038647" d="M 84.519531 207.78125 L 207.78125 207.78125 L 207.78125 232.433594 L 84.519531 232.433594 Z M 84.519531 207.78125 " fill-opacity="1" fill-rule="nonzero"/><path fill="#038647" d="M 84.519531 257.085938 L 207.78125 257.085938 L 207.78125 281.738281 L 84.519531 281.738281 Z M 84.519531 257.085938 " fill-opacity="1" fill-rule="nonzero"/><path fill="#038647" d="M 84.519531 109.171875 L 133.824219 109.171875 L 133.824219 133.824219 L 84.519531 133.824219 Z M 84.519531 109.171875 " fill-opacity="1" fill-rule="nonzero"/><g clip-path="url(#a9ddc922b1)"><path fill="#038647" d="M 774.777344 318.714844 L 774.777344 121.5 C 774.777344 118.234375 773.480469 115.089844 771.164062 112.785156 L 697.207031 38.828125 C 694.902344 36.511719 691.773438 35.21875 688.492188 35.21875 L 565.234375 35.21875 C 558.417969 35.21875 552.910156 40.738281 552.910156 47.542969 L 552.910156 318.714844 C 552.910156 325.519531 558.417969 331.039062 565.234375 331.039062 L 651.515625 331.039062 C 651.515625 351.429688 634.925781 368.019531 614.539062 368.019531 L 577.558594 368.019531 C 543.578125 368.019531 515.929688 395.664062 515.929688 429.648438 L 515.929688 449.199219 L 487.667969 420.933594 L 470.238281 438.363281 L 519.542969 487.667969 C 521.945312 490.070312 525.101562 491.277344 528.257812 491.277344 C 531.410156 491.277344 534.566406 490.070312 536.972656 487.667969 L 586.273438 438.363281 L 568.847656 420.933594 L 540.582031 449.199219 L 540.582031 429.648438 C 540.582031 409.261719 557.171875 392.671875 577.558594 392.671875 L 614.539062 392.671875 C 648.519531 392.671875 676.167969 365.023438 676.167969 331.039062 L 762.449219 331.039062 C 769.265625 331.039062 774.777344 325.519531 774.777344 318.714844 Z M 700.820312 77.296875 L 732.695312 109.171875 L 700.820312 109.171875 Z M 577.558594 306.390625 L 577.558594 59.871094 L 676.167969 59.871094 L 676.167969 121.5 C 676.167969 128.304688 681.679688 133.824219 688.492188 133.824219 L 750.125 133.824219 L 750.125 306.390625 Z M 577.558594 306.390625 " fill-opacity="1" fill-rule="nonzero"/></g><path fill="#038647" d="M 602.210938 158.476562 L 725.472656 158.476562 L 725.472656 183.128906 L 602.210938 183.128906 Z M 602.210938 158.476562 " fill-opacity="1" fill-rule="nonzero"/><path fill="#038647" d="M 602.210938 207.78125 L 725.472656 207.78125 L 725.472656 232.433594 L 602.210938 232.433594 Z M 602.210938 207.78125 " fill-opacity="1" fill-rule="nonzero"/><path fill="#038647" d="M 602.210938 257.085938 L 725.472656 257.085938 L 725.472656 281.738281 L 602.210938 281.738281 Z M 602.210938 257.085938 " fill-opacity="1" fill-rule="nonzero"/><path fill="#038647" d="M 602.210938 109.171875 L 651.515625 109.171875 L 651.515625 133.824219 L 602.210938 133.824219 Z M 602.210938 109.171875 " fill-opacity="1" fill-rule="nonzero"/><path fill="#038647" d="M 343.367188 257.085938 L 368.019531 257.085938 L 368.019531 281.738281 L 343.367188 281.738281 Z M 343.367188 257.085938 " fill-opacity="1" fill-rule="nonzero"/><path fill="#038647" d="M 392.671875 257.085938 L 417.324219 257.085938 L 417.324219 281.738281 L 392.671875 281.738281 Z M 392.671875 257.085938 " fill-opacity="1" fill-rule="nonzero"/><path fill="#038647" d="M 441.972656 257.085938 L 466.625 257.085938 L 466.625 281.738281 L 441.972656 281.738281 Z M 441.972656 257.085938 " fill-opacity="1" fill-rule="nonzero"/></svg>