<svg xmlns="http://www.w3.org/2000/svg" xmlns:xlink="http://www.w3.org/1999/xlink" width="1080" zoomAndPan="magnify" viewBox="0 0 810 809.999993" height="1080" preserveAspectRatio="xMidYMid meet" version="1.0"><defs><clipPath id="e8d7417ad3"><path d="M 27 65.386719 L 784.761719 65.386719 L 784.761719 744.886719 L 27 744.886719 Z M 27 65.386719 " clip-rule="nonzero"/></clipPath></defs><rect x="-81" width="972" fill="none" y="-80.999999" height="971.999992" fill-opacity="1"/><rect x="-81" width="972" fill="none" y="-80.999999" height="971.999992" fill-opacity="1"/><g clip-path="url(#e8d7417ad3)"><path fill="#a44545" d="M 243.949219 575.378906 C 257.210938 575.378906 268.21875 566.679688 271.285156 553.726562 L 275.34375 536.277344 L 218.507812 538.433594 L 214.265625 575.375 L 243.949219 575.375 Z M 88.050781 575.378906 L 116.738281 575.378906 L 116.109375 542.339844 L 59.089844 544.515625 L 60.351562 551.964844 C 62.699219 565.753906 74.066406 575.378906 88.050781 575.378906 Z M 50.066406 491.25 L 55.300781 522.148438 L 115.65625 519.839844 L 115.023438 486.738281 Z M 138.570312 541.484375 L 139.292969 575.378906 L 191.621094 575.378906 L 195.769531 539.308594 Z M 198.386719 516.691406 L 202.445312 480.660156 L 137.488281 485.175781 L 138.210938 518.984375 Z M 289.867188 474.585938 L 225.273438 479.070312 L 221.121094 515.816406 L 280.753906 513.550781 Z M 234.292969 659.75 C 234.292969 652.804688 228.699219 647.144531 221.753906 647.144531 C 214.804688 647.144531 209.121094 652.804688 209.121094 659.75 C 209.121094 666.6875 214.804688 672.328125 221.753906 672.328125 C 228.699219 672.328125 234.292969 666.6875 234.292969 659.75 Z M 96.53125 647.148438 C 89.582031 647.148438 83.992188 652.804688 83.992188 659.75 C 83.992188 666.691406 89.582031 672.328125 96.53125 672.328125 C 103.476562 672.328125 109.160156 666.691406 109.160156 659.75 C 109.160156 652.804688 103.476562 647.148438 96.53125 647.148438 Z M 320.09375 444.453125 L 281.566406 608.136719 C 277.777344 624.125 266.863281 636.753906 252.515625 642.953125 C 265.207031 665.59375 248.757812 694.828125 221.753906 694.828125 C 196.730469 694.828125 180.234375 669.539062 189.003906 647.148438 L 129.28125 647.148438 C 138.046875 669.53125 121.558594 694.828125 96.53125 694.828125 C 72.609375 694.828125 54.949219 671.109375 63.78125 647.148438 L 60.804688 647.148438 C 54.582031 647.148438 49.527344 642.105469 49.527344 635.898438 C 49.527344 629.671875 54.582031 624.648438 60.804688 624.648438 L 232.3125 624.648438 C 245.664062 624.648438 256.667969 615.941406 259.648438 602.976562 L 261.632812 594.710938 C 256.128906 596.769531 250.082031 597.878906 243.949219 597.878906 L 88.050781 597.878906 C 63.332031 597.878906 42.308594 580.152344 38.160156 555.71875 L 27.421875 491.84375 C 25.421875 480.351562 33.855469 469.835938 45.378906 469.035156 L 295.285156 451.652344 L 300.246094 430.621094 C 301.417969 425.535156 305.929688 421.953125 311.164062 421.953125 L 364.84375 421.953125 C 371.066406 421.953125 376.121094 426.996094 376.121094 433.203125 C 376.121094 439.410156 371.066406 444.453125 364.84375 444.453125 Z M 636.398438 691.859375 L 594.625 691.859375 C 588.492188 691.859375 583.441406 696.902344 583.441406 703.109375 C 583.441406 709.332031 588.492188 714.359375 594.625 714.359375 L 636.398438 714.359375 C 642.621094 714.359375 647.675781 709.335938 647.675781 703.109375 C 647.675781 696.902344 642.625 691.859375 636.398438 691.859375 Z M 652.007812 565.714844 L 579.109375 565.714844 L 579.109375 662.464844 L 652.007812 662.464844 Z M 674.472656 562.828125 L 674.472656 665.351562 C 674.472656 676.167969 665.71875 684.957031 654.894531 684.957031 L 576.222656 684.957031 C 565.394531 684.957031 556.554688 676.167969 556.554688 665.351562 L 556.554688 562.828125 C 556.554688 552.011719 565.394531 543.222656 576.222656 543.222656 L 654.894531 543.222656 C 665.71875 543.222656 674.472656 552.011719 674.472656 562.828125 Z M 762.253906 521.679688 C 762.253906 546.714844 741.863281 567.066406 716.871094 567.066406 L 707.21875 567.066406 L 707.21875 532.652344 C 707.21875 518.757812 695.941406 507.453125 682.046875 507.453125 L 548.976562 507.453125 C 535.082031 507.453125 523.804688 518.757812 523.804688 532.652344 L 523.804688 567.066406 L 514.152344 567.066406 C 489.160156 567.066406 468.773438 546.714844 468.773438 521.679688 C 468.773438 496.660156 489.164062 476.300781 514.152344 476.300781 L 521.097656 476.300781 C 526.691406 476.300781 531.472656 472.1875 532.285156 466.648438 C 538.152344 425.597656 573.96875 394.625 615.558594 394.625 C 657.058594 394.625 692.875 425.597656 698.832031 466.648438 C 699.554688 472.1875 704.335938 476.300781 709.925781 476.300781 L 716.875 476.300781 C 741.863281 476.300781 762.253906 496.660156 762.253906 521.679688 Z M 684.753906 532.652344 L 684.753906 719.386719 C 684.753906 720.835938 683.492188 722.066406 682.046875 722.066406 L 548.976562 722.066406 C 547.53125 722.066406 546.269531 720.835938 546.269531 719.386719 L 546.269531 532.652344 C 546.269531 531.1875 547.53125 529.945312 548.976562 529.945312 L 682.046875 529.945312 C 683.492188 529.945312 684.753906 531.1875 684.753906 532.652344 Z M 784.71875 521.679688 C 784.71875 485.042969 755.574219 455.089844 719.21875 453.84375 C 707.851562 406.644531 664.90625 372.125 615.558594 372.125 C 566.210938 372.125 523.175781 406.644531 511.808594 453.84375 C 475.539062 455.089844 446.308594 485.042969 446.308594 521.679688 C 446.308594 559.121094 476.710938 589.570312 514.152344 589.570312 L 523.804688 589.570312 L 523.804688 651.601562 C 462.765625 699.183594 382.382812 714.207031 308.453125 692.246094 C 302.5 690.480469 296.273438 693.871094 294.46875 699.824219 C 292.664062 705.78125 296.09375 712.050781 302.046875 713.816406 C 377.242188 736.148438 458.839844 723.554688 523.804688 679.425781 L 523.804688 719.382812 C 523.804688 733.269531 535.082031 744.5625 548.976562 744.5625 L 682.046875 744.5625 C 695.941406 744.5625 707.21875 733.269531 707.21875 719.382812 L 707.21875 589.570312 L 716.871094 589.570312 C 754.3125 589.570312 784.71875 559.121094 784.71875 521.679688 Z M 274.621094 150.667969 L 308.453125 150.566406 C 312.457031 132.191406 319.019531 113.839844 328.121094 99.015625 C 305.203125 109.886719 286.347656 128.128906 274.621094 150.667969 Z M 426.910156 98.996094 C 436.269531 114.332031 442.292969 131.097656 446.488281 150.113281 L 480.140625 150.003906 C 468.410156 127.785156 449.734375 109.789062 426.910156 98.996094 Z M 480.5 256.863281 L 446.578125 256.972656 C 442.375 276.25 436.386719 293.003906 426.910156 308.53125 C 449.914062 297.640625 468.769531 279.40625 480.5 256.863281 Z M 327.398438 173.003906 C 324.769531 193.121094 324.703125 214.75 327.488281 234.855469 L 427.722656 234.53125 C 430.226562 213.898438 430.300781 193.292969 427.632812 172.667969 Z M 423.480469 257.042969 L 331.640625 257.339844 C 341.203125 295.636719 360.058594 319.617188 377.558594 319.617188 C 395.0625 319.617188 414.007812 295.511719 423.480469 257.042969 Z M 489.070312 172.480469 L 450.277344 172.617188 C 452.722656 193.628906 452.84375 213.40625 450.367188 234.453125 L 489.25 234.335938 C 494.878906 214.058594 494.753906 192.71875 489.070312 172.480469 Z M 331.640625 150.484375 L 423.390625 150.1875 C 413.917969 111.898438 395.0625 87.929688 377.558594 87.929688 C 360.058594 87.929688 341.113281 112.015625 331.640625 150.484375 Z M 266.050781 235.058594 L 304.84375 234.929688 C 302.304688 214.613281 302.359375 193.40625 304.753906 173.078125 L 265.78125 173.195312 C 260.308594 193.597656 260.339844 214.714844 266.050781 235.058594 Z M 328.121094 308.53125 C 319.105469 293.757812 312.570312 275.671875 308.542969 257.421875 L 274.984375 257.519531 C 286.710938 279.75 305.386719 297.75 328.121094 308.53125 Z M 239.167969 203.769531 C 239.167969 127.480469 301.238281 65.425781 377.5625 65.425781 C 468.199219 65.425781 534.046875 151.359375 511.445312 238.65625 C 549.25 261.417969 580.824219 293.410156 603.109375 331.6875 C 607.402344 339.132812 602.050781 348.59375 593.367188 348.59375 C 589.484375 348.59375 585.699219 346.585938 583.621094 342.984375 C 564.046875 309.339844 536.617188 281.019531 503.777344 260.386719 C 482.125 308.519531 433.679688 342.117188 377.5625 342.117188 C 301.238281 342.117188 239.167969 280.050781 239.167969 203.769531 Z M 116.738281 433.582031 C 116.109375 439.761719 120.527344 445.320312 126.664062 446.015625 C 132.871094 446.675781 138.421875 442.296875 139.113281 436.082031 C 146.058594 374.273438 176.375 318.3125 224.640625 278.523438 C 229.421875 274.5625 230.054688 267.460938 226.085938 262.679688 C 222.117188 257.898438 215.078125 257.203125 210.296875 261.164062 C 157.519531 304.703125 124.316406 365.9375 116.738281 433.582031 Z M 116.738281 433.582031 " fill-opacity="1" fill-rule="evenodd"/></g></svg>