<svg xmlns="http://www.w3.org/2000/svg" xmlns:xlink="http://www.w3.org/1999/xlink" width="1080" zoomAndPan="magnify" viewBox="0 0 810 809.999993" height="1080" preserveAspectRatio="xMidYMid meet" version="1.0"><defs><clipPath id="9ae6b966a4"><path d="M 59.105469 52 L 750.605469 52 L 750.605469 759 L 59.105469 759 Z M 59.105469 52 " clip-rule="nonzero"/></clipPath></defs><rect x="-81" width="972" fill="none" y="-80.999999" height="971.999992" fill-opacity="1"/><rect x="-81" width="972" fill="none" y="-80.999999" height="971.999992" fill-opacity="1"/><path fill="#380e8b" d="M 562.453125 157.660156 L 420.941406 204.832031 L 428.40625 227.207031 L 569.914062 180.039062 L 562.453125 157.660156 " fill-opacity="1" fill-rule="nonzero"/><path fill="#380e8b" d="M 106.273438 522.625 L 495.429688 522.625 L 495.429688 499.042969 L 106.273438 499.042969 L 106.273438 522.625 " fill-opacity="1" fill-rule="nonzero"/><path fill="#380e8b" d="M 106.273438 569.796875 L 495.429688 569.796875 L 495.429688 546.210938 L 106.273438 546.210938 L 106.273438 569.796875 " fill-opacity="1" fill-rule="nonzero"/><g clip-path="url(#9ae6b966a4)"><path fill="#380e8b" d="M 557.960938 589.035156 C 536.851562 553.914062 537.734375 509.90625 560.640625 475.546875 L 562.730469 472.410156 L 706.679688 386.039062 C 697.53125 414.609375 701.5625 446.238281 718.796875 472.09375 L 726.523438 483.683594 Z M 725.589844 625.78125 L 557.800781 730.648438 C 536.628906 695.511719 537.492188 651.453125 560.425781 617.058594 L 562.761719 613.546875 C 564 612.960938 565.210938 612.320312 566.378906 611.589844 L 699.257812 528.539062 C 694.144531 562.914062 703.394531 598.039062 725.589844 625.78125 Z M 533.402344 593.382812 L 94.480469 593.382812 C 87.980469 593.382812 82.6875 588.089844 82.6875 581.589844 L 82.6875 476.539062 C 82.6875 476.175781 82.722656 475.8125 82.757812 475.457031 L 533.402344 475.457031 C 514.425781 512.527344 514.425781 556.3125 533.402344 593.382812 Z M 533.183594 734.890625 L 153.445312 734.890625 C 146.941406 734.890625 141.652344 729.601562 141.652344 723.101562 L 141.652344 616.96875 L 533.183594 616.96875 C 514.207031 654.039062 514.207031 697.820312 533.183594 734.890625 Z M 234.070312 372.789062 C 235.101562 373.222656 236.148438 373.617188 237.234375 373.957031 L 402.332031 425.550781 C 405.78125 426.628906 409.332031 427.167969 412.878906 427.167969 C 416.425781 427.167969 419.980469 426.628906 423.429688 425.550781 L 588.523438 373.957031 C 597.402344 371.183594 604.519531 365.207031 608.824219 357.53125 L 708.355469 357.53125 L 551.125 451.871094 L 111.046875 451.871094 Z M 235.992188 232.4375 L 401.089844 283.671875 L 401.089844 400.453125 L 244.265625 351.445312 C 239.320312 349.902344 235.992188 345.375 235.992188 340.191406 Z M 424.671875 283.671875 L 589.769531 232.4375 L 589.769531 340.191406 C 589.769531 345.375 586.441406 349.902344 581.496094 351.445312 L 424.671875 400.453125 Z M 728.09375 510.515625 L 739.023438 503.6875 C 744.476562 500.277344 748.226562 494.9375 749.578125 488.652344 C 750.933594 482.367188 749.71875 475.957031 746.148438 470.601562 L 738.417969 459.011719 C 721.203125 433.179688 721.203125 399.804688 738.425781 373.96875 L 740.660156 370.613281 C 745.496094 363.363281 745.945312 354.085938 741.835938 346.398438 C 737.722656 338.71875 729.753906 333.945312 721.035156 333.945312 L 613.355469 333.945312 L 613.355469 225.117188 L 722.074219 191.375 C 731.992188 188.292969 738.667969 179.242188 738.667969 168.847656 C 738.667969 158.457031 731.992188 149.40625 722.074219 146.324219 L 423.625 53.703125 C 416.507812 51.492188 409.015625 51.574219 401.953125 53.929688 L 338.398438 75.113281 L 345.855469 97.488281 L 409.410156 76.304688 C 411.761719 75.515625 414.261719 75.492188 416.636719 76.226562 L 715.082031 168.847656 L 416.375 261.550781 C 414.089844 262.257812 411.671875 262.257812 409.386719 261.550781 L 111.296875 169.039062 L 192.214844 144.761719 L 185.429688 122.175781 L 104.519531 146.449219 C 94.515625 149.449219 87.761719 158.484375 87.714844 168.929688 C 87.664062 179.375 94.332031 188.472656 104.304688 191.566406 L 106.273438 192.175781 L 106.273438 283.511719 L 72.578125 339.667969 L 92.800781 351.808594 L 106.273438 329.351562 L 106.273438 369.324219 L 129.859375 369.324219 L 129.859375 329.351562 L 143.332031 351.808594 L 163.554688 339.667969 L 129.859375 283.511719 L 129.859375 199.492188 L 212.40625 225.113281 L 212.40625 340.191406 C 212.40625 345.921875 213.773438 351.375 216.226562 356.21875 L 75.351562 446.78125 C 65.179688 453.320312 59.105469 464.445312 59.105469 476.539062 L 59.105469 581.589844 C 59.105469 601.097656 74.972656 616.96875 94.480469 616.96875 L 118.066406 616.96875 L 118.066406 723.101562 C 118.066406 742.609375 133.9375 758.476562 153.445312 758.476562 L 547.625 758.476562 C 554.265625 758.476562 560.75 756.617188 566.378906 753.097656 L 738.085938 645.78125 C 743.792969 642.214844 747.707031 636.371094 748.835938 629.742188 C 749.96875 623.109375 748.203125 616.300781 744.003906 611.046875 C 722.160156 583.742188 715.722656 547.632812 726.777344 514.460938 L 728.09375 510.515625 " fill-opacity="1" fill-rule="nonzero"/></g><path fill="#380e8b" d="M 165.238281 664.136719 L 495.429688 664.136719 L 495.429688 640.550781 L 165.238281 640.550781 L 165.238281 664.136719 " fill-opacity="1" fill-rule="nonzero"/><path fill="#380e8b" d="M 165.238281 711.308594 L 495.429688 711.308594 L 495.429688 687.722656 L 165.238281 687.722656 L 165.238281 711.308594 " fill-opacity="1" fill-rule="nonzero"/><path fill="#380e8b" d="M 271.371094 103.839844 C 276.15625 110.835938 282.210938 116.894531 289.207031 121.679688 C 282.210938 126.464844 276.15625 132.523438 271.371094 139.519531 C 266.585938 132.523438 260.527344 126.464844 253.53125 121.679688 C 260.527344 116.894531 266.585938 110.835938 271.371094 103.839844 Z M 259.578125 177.695312 L 259.578125 180.640625 L 283.164062 180.640625 L 283.164062 177.695312 C 283.164062 153.308594 303 133.472656 327.382812 133.472656 L 330.332031 133.472656 L 330.332031 109.886719 L 327.382812 109.886719 C 303 109.886719 283.164062 90.050781 283.164062 65.664062 L 283.164062 62.714844 L 259.578125 62.714844 L 259.578125 65.664062 C 259.578125 90.050781 239.742188 109.886719 215.355469 109.886719 L 212.40625 109.886719 L 212.40625 133.472656 L 215.355469 133.472656 C 239.742188 133.472656 259.578125 153.308594 259.578125 177.695312 " fill-opacity="1" fill-rule="nonzero"/></svg>