<svg xmlns="http://www.w3.org/2000/svg" xmlns:xlink="http://www.w3.org/1999/xlink" width="1080" zoomAndPan="magnify" viewBox="0 0 810 809.999993" height="1080" preserveAspectRatio="xMidYMid meet" version="1.0"><defs><clipPath id="256c8b5436"><path d="M 22.367188 53 L 787.367188 53 L 787.367188 759 L 22.367188 759 Z M 22.367188 53 " clip-rule="nonzero"/></clipPath></defs><rect x="-81" width="972" fill="#ffffff" y="-80.999999" height="971.999992" fill-opacity="1"/><rect x="-81" width="972" fill="#ffffff" y="-80.999999" height="971.999992" fill-opacity="1"/><path fill="#8b4c4c" d="M 112.398438 600.890625 C 104.113281 600.890625 97.394531 607.609375 97.394531 615.898438 L 97.394531 660.910156 C 97.394531 669.199219 104.113281 675.917969 112.398438 675.917969 C 120.683594 675.917969 127.402344 669.199219 127.402344 660.910156 L 127.402344 615.898438 C 127.402344 607.609375 120.683594 600.890625 112.398438 600.890625 Z M 112.398438 600.890625 " fill-opacity="1" fill-rule="nonzero"/><path fill="#8b4c4c" d="M 480.15625 398.324219 L 450.148438 398.324219 C 441.859375 398.324219 435.140625 405.042969 435.140625 413.328125 C 435.140625 421.617188 441.859375 428.332031 450.148438 428.332031 L 465.152344 428.332031 L 465.152344 443.339844 C 465.152344 451.625 471.871094 458.34375 480.15625 458.34375 C 488.441406 458.34375 495.160156 451.625 495.160156 443.339844 L 495.160156 425.777344 C 525.964844 414.910156 535.640625 375.15625 511.984375 351.492188 C 503.480469 342.988281 492.175781 338.304688 480.15625 338.304688 C 471.804688 338.304688 465.152344 331.519531 465.152344 323.300781 C 465.152344 315.027344 471.882812 308.292969 480.15625 308.292969 L 510.167969 308.292969 C 518.453125 308.292969 525.171875 301.574219 525.171875 293.289062 C 525.171875 285.003906 518.453125 278.285156 510.167969 278.285156 L 495.160156 278.285156 L 495.160156 263.28125 C 495.160156 254.992188 488.441406 248.273438 480.15625 248.273438 C 471.871094 248.273438 465.152344 254.992188 465.152344 263.28125 L 465.152344 280.867188 C 447.6875 287.058594 435.140625 303.738281 435.140625 323.300781 C 435.140625 348.078125 455.179688 368.316406 480.15625 368.316406 C 493.414062 368.316406 500.21875 384.472656 490.765625 393.925781 C 487.929688 396.761719 484.160156 398.324219 480.15625 398.324219 Z M 480.15625 398.324219 " fill-opacity="1" fill-rule="nonzero"/><g clip-path="url(#256c8b5436)"><path fill="#8b4c4c" d="M 714.214844 512.0625 C 713.394531 512.226562 716.445312 511.269531 678.347656 523.144531 C 680.574219 514.230469 681.726562 505.027344 681.734375 495.730469 C 681.808594 386.578125 640.433594 281.585938 564.25 199.664062 C 586.058594 177.960938 580.144531 141.726562 553.1875 127.746094 L 576.324219 74.160156 C 581.023438 63.285156 571.820312 51.472656 560.085938 53.410156 L 532.769531 57.960938 C 456.046875 70.765625 401.898438 55.175781 384.953125 53.410156 C 372.453125 51.324219 363.121094 64.8125 369.535156 75.785156 L 400.527344 128.792969 C 373.53125 144.488281 370.378906 181.953125 394.035156 202.039062 C 358.261719 243.492188 313.242188 316.859375 287.101562 409.070312 C 282.695312 424.621094 279.988281 442.058594 279.003906 461.175781 L 243.050781 425.226562 C 240.238281 422.414062 236.421875 420.832031 232.441406 420.832031 L 187.425781 420.832031 L 187.425781 375.816406 C 187.425781 367.527344 180.707031 360.8125 172.421875 360.8125 L 37.371094 360.8125 C 29.085938 360.8125 22.367188 367.527344 22.367188 375.816406 L 22.367188 705.925781 C 22.367188 714.214844 29.085938 720.933594 37.371094 720.933594 L 172.417969 720.933594 C 180.703125 720.933594 187.421875 714.214844 187.421875 705.925781 L 187.421875 690.921875 L 214.910156 690.921875 L 407.589844 757.621094 C 410.949219 758.78125 414.609375 758.710938 417.917969 757.433594 L 746.007812 630.398438 C 770.914062 621.921875 787.625 598.609375 787.625 572.277344 C 787.625 533.765625 752.488281 504.484375 714.214844 512.0625 Z M 423.121094 182.730469 C 414.847656 182.730469 408.117188 176 408.117188 167.726562 C 408.117188 159.4375 414.839844 152.722656 423.121094 152.722656 L 532.359375 152.722656 C 541.492188 152.839844 547.542969 159.953125 547.542969 167.726562 C 547.542969 176.011719 540.824219 182.730469 532.539062 182.730469 Z M 537.863281 87.535156 L 522.675781 122.710938 L 431.734375 122.710938 L 411.582031 88.246094 C 480.65625 99.007812 531.234375 88.101562 537.863281 87.535156 Z M 315.972656 417.253906 C 342.902344 322.25 390.386719 248.980469 424.765625 212.742188 L 535.308594 212.742188 C 611.007812 290.417969 651.792969 391.152344 651.726562 495.710938 C 651.714844 509.273438 648.410156 522.550781 642.128906 534.433594 C 615.917969 542.601562 580.089844 553.765625 531.074219 569.03125 C 539.519531 531.355469 510.835938 495.855469 472.519531 495.855469 L 313.679688 495.855469 L 308.832031 491.007812 C 307.746094 462.605469 310.140625 437.820312 315.972656 417.253906 Z M 157.414062 690.921875 L 52.378906 690.921875 L 52.378906 390.820312 L 157.414062 390.820312 Z M 736.152344 602.050781 C 735.570312 602.246094 751.359375 596.152344 412.210938 727.460938 L 222.339844 661.734375 C 220.761719 661.191406 219.105469 660.910156 217.433594 660.910156 L 187.421875 660.910156 L 187.421875 450.839844 L 226.222656 450.839844 L 296.851562 521.46875 C 299.667969 524.285156 303.484375 525.863281 307.460938 525.863281 L 472.519531 525.863281 C 489.222656 525.863281 503.042969 539.605469 502.503906 556.890625 C 502.183594 569.472656 493.613281 580.167969 482.660156 584.125 L 482.664062 584.125 C 473.167969 587.390625 480.46875 585.230469 307.460938 585.886719 C 299.171875 585.886719 292.457031 592.605469 292.457031 600.890625 C 292.457031 609.175781 299.171875 615.894531 307.460938 615.894531 L 472.515625 615.894531 C 479.480469 615.894531 486.160156 614.695312 492.375 612.515625 L 720.757812 541.367188 C 740.347656 537.914062 757.609375 553.046875 757.609375 572.277344 C 757.617188 585.804688 748.992188 597.769531 736.152344 602.050781 Z M 736.152344 602.050781 " fill-opacity="1" fill-rule="nonzero"/></g></svg>