<svg xmlns="http://www.w3.org/2000/svg" xmlns:xlink="http://www.w3.org/1999/xlink" width="1080" zoomAndPan="magnify" viewBox="0 0 810 809.999993" height="1080" preserveAspectRatio="xMidYMid meet" version="1.0"><defs><clipPath id="f5b536d5a8"><path d="M 33.898438 33.898438 L 776.398438 33.898438 L 776.398438 776.398438 L 33.898438 776.398438 Z M 33.898438 33.898438 " clip-rule="nonzero"/></clipPath></defs><rect x="-81" width="972" fill="none" y="-80.999999" height="971.999992" fill-opacity="1"/><rect x="-81" width="972" fill="none" y="-80.999999" height="971.999992" fill-opacity="1"/><path fill="#0b4d4c" d="M 420.183594 195.523438 C 417.707031 189.265625 411.660156 185.160156 404.929688 185.160156 C 398.199219 185.160156 392.152344 189.265625 389.671875 195.523438 L 228.550781 602.265625 C 226.3125 607.914062 227.378906 614.335938 231.324219 618.960938 C 235.265625 623.578125 241.441406 625.648438 247.371094 624.324219 L 404.929688 589.230469 C 571.742188 626.238281 562.652344 624.71875 566.070312 624.71875 C 577.628906 624.71875 585.59375 613.039062 581.324219 602.261719 Z M 420.183594 195.523438 " fill-opacity="1" fill-rule="nonzero"/><g clip-path="url(#f5b536d5a8)"><path fill="#0b4d4c" d="M 404.929688 33.816406 C 200.296875 33.816406 33.816406 200.296875 33.816406 404.929688 C 33.816406 609.542969 200.296875 776.011719 404.929688 776.011719 C 609.542969 776.011719 776.011719 609.546875 776.011719 404.929688 C 776.011719 200.292969 609.542969 33.816406 404.929688 33.816406 Z M 404.929688 743.191406 C 218.390625 743.191406 66.632812 591.445312 66.632812 404.925781 C 66.632812 218.390625 218.390625 66.632812 404.929688 66.632812 C 591.449219 66.632812 743.191406 218.390625 743.191406 404.925781 C 743.191406 591.449219 591.449219 743.191406 404.929688 743.191406 Z M 404.929688 743.191406 " fill-opacity="1" fill-rule="nonzero"/></g></svg>