<svg xmlns="http://www.w3.org/2000/svg" xmlns:xlink="http://www.w3.org/1999/xlink" width="1080" zoomAndPan="magnify" viewBox="0 0 810 809.999993" height="1080" preserveAspectRatio="xMidYMid meet" version="1.0"><defs><clipPath id="ab8d97258f"><path d="M 22.011719 18.550781 L 787.761719 18.550781 L 787.761719 784.300781 L 22.011719 784.300781 Z M 22.011719 18.550781 " clip-rule="nonzero"/></clipPath></defs><rect x="-81" width="972" fill="#ffffff" y="-80.999999" height="971.999992" fill-opacity="1"/><rect x="-81" width="972" fill="#ffffff" y="-80.999999" height="971.999992" fill-opacity="1"/><path fill="#894f2c" d="M 237.738281 358.46875 C 251.175781 368.386719 267.75 372.78125 284.074219 371.777344 C 284.703125 371.777344 285.457031 371.777344 286.082031 371.652344 C 288.59375 371.402344 291.230469 371.023438 293.742188 370.523438 C 294.746094 370.269531 295.625 370.144531 296.632812 369.894531 C 297.761719 369.644531 298.890625 369.265625 300.019531 368.890625 C 299.769531 367.632812 299.644531 366.378906 299.269531 365.121094 C 299.269531 364.871094 299.269531 364.496094 299.140625 364.242188 C 297.761719 357.210938 296.757812 350.179688 296.757812 343.148438 C 296.757812 310.75 311.324219 280.238281 335.808594 259.894531 C 322.875 242.316406 301.90625 231.515625 279.300781 231.515625 C 240.628906 231.515625 209.109375 263.160156 209.109375 301.960938 C 209.109375 325.191406 220.410156 345.660156 237.863281 358.46875 Z M 237.738281 358.46875 " fill-opacity="1" fill-rule="nonzero"/><path fill="#894f2c" d="M 363.808594 400.03125 C 366.449219 401.914062 369.210938 403.671875 372.097656 405.179688 C 372.222656 405.179688 372.476562 405.304688 372.601562 405.429688 C 392.566406 415.601562 417.175781 415.601562 437.269531 405.429688 C 437.394531 405.429688 437.644531 405.304688 437.769531 405.179688 C 440.660156 403.671875 443.421875 401.914062 446.058594 400.03125 C 463.761719 387.222656 475.316406 366.628906 475.316406 343.148438 C 475.316406 304.347656 443.671875 272.703125 404.871094 272.703125 C 366.070312 272.703125 334.425781 304.347656 334.425781 343.148438 C 334.425781 366.503906 345.980469 387.222656 363.683594 400.03125 Z M 363.808594 400.03125 " fill-opacity="1" fill-rule="nonzero"/><path fill="#894f2c" d="M 309.691406 411.457031 C 311.195312 410.453125 312.703125 409.449219 314.335938 408.570312 C 315.339844 407.941406 316.34375 407.1875 317.476562 406.5625 C 316.722656 405.554688 316.09375 404.675781 315.464844 403.671875 C 313.832031 404.300781 312.074219 404.675781 310.445312 405.054688 C 308.8125 405.554688 307.054688 406.058594 305.421875 406.5625 C 303.035156 407.1875 300.648438 407.566406 298.261719 407.941406 C 296.253906 408.320312 294.371094 408.695312 292.234375 408.945312 C 291.105469 409.074219 289.976562 408.945312 288.84375 409.199219 C 285.707031 409.449219 282.566406 409.824219 279.300781 409.824219 C 267.121094 409.824219 255.320312 407.691406 244.394531 403.925781 C 244.144531 403.925781 243.890625 403.671875 243.640625 403.671875 C 240.5 402.542969 237.363281 401.285156 234.347656 399.90625 C 233.21875 399.402344 232.214844 398.902344 231.210938 398.398438 C 228.949219 397.269531 226.6875 396.011719 224.429688 394.757812 C 223.675781 394.253906 222.921875 394.003906 222.167969 393.5 C 193.160156 402.542969 172.820312 429.664062 172.820312 460.679688 L 172.820312 505.257812 C 172.820312 519.449219 184.246094 531 198.4375 531 L 260.59375 531 L 260.59375 501.742188 C 260.59375 488.933594 263.105469 476.753906 267.246094 465.203125 C 267.246094 464.949219 267.375 464.824219 267.5 464.574219 C 270.636719 456.160156 274.65625 448.375 279.679688 440.96875 C 280.054688 440.464844 280.308594 440.085938 280.683594 439.585938 C 283.824219 435.191406 287.214844 430.921875 290.980469 427.027344 C 291.230469 426.777344 291.484375 426.402344 291.859375 426.148438 C 293.742188 424.265625 295.625 422.382812 297.636719 420.625 C 298.515625 419.746094 299.519531 418.992188 300.523438 418.238281 C 303.539062 415.726562 306.800781 413.339844 310.066406 411.207031 Z M 309.691406 411.457031 " fill-opacity="1" fill-rule="nonzero"/><path fill="#894f2c" d="M 513.363281 343.148438 C 513.363281 350.179688 512.484375 357.210938 510.976562 364.242188 C 510.976562 364.496094 510.976562 364.871094 510.851562 365.121094 C 510.601562 366.378906 510.476562 367.632812 510.097656 368.890625 C 511.230469 369.265625 512.359375 369.644531 513.363281 369.894531 C 514.367188 370.144531 515.246094 370.398438 516.25 370.523438 C 518.761719 371.023438 521.273438 371.402344 523.910156 371.652344 C 524.539062 371.652344 525.292969 371.652344 526.046875 371.777344 C 542.246094 372.78125 558.820312 368.386719 572.253906 358.46875 C 589.585938 345.660156 601.011719 325.191406 601.011719 301.960938 C 601.011719 263.160156 569.492188 231.515625 530.816406 231.515625 C 508.089844 231.515625 487.246094 242.316406 474.3125 259.894531 C 498.796875 280.238281 513.363281 310.75 513.363281 343.148438 Z M 513.363281 343.148438 " fill-opacity="1" fill-rule="nonzero"/><g clip-path="url(#ab8d97258f)"><path fill="#894f2c" d="M 404.996094 18.929688 C 193.789062 18.929688 22.011719 190.707031 22.011719 401.914062 C 22.011719 613.121094 193.789062 784.902344 404.996094 784.902344 C 616.203125 784.902344 787.984375 613.121094 787.984375 401.914062 C 787.984375 190.707031 616.203125 18.929688 404.996094 18.929688 Z M 674.972656 505.257812 C 674.972656 540.292969 646.59375 568.671875 611.683594 568.671875 L 545.132812 568.671875 C 536.089844 592.65625 512.988281 609.859375 485.863281 609.859375 L 324.003906 609.859375 C 296.882812 609.859375 273.902344 592.65625 264.734375 568.671875 L 198.183594 568.671875 C 163.277344 568.671875 134.898438 540.167969 134.898438 505.257812 L 134.898438 460.679688 C 134.898438 420.121094 157.75 383.832031 192.03125 365.5 C 178.972656 347.667969 171.1875 325.820312 171.1875 302.085938 C 171.1875 242.441406 219.53125 193.972656 279.050781 193.972656 C 315.464844 193.972656 348.742188 212.304688 368.457031 241.5625 C 379.882812 237.417969 392.0625 235.160156 404.871094 235.160156 C 417.679688 235.160156 429.859375 237.542969 441.285156 241.5625 C 461 212.179688 494.277344 193.972656 530.691406 193.972656 C 590.210938 193.972656 638.554688 242.441406 638.554688 302.085938 C 638.554688 325.820312 630.769531 347.667969 617.710938 365.5 C 651.992188 383.957031 674.84375 420.121094 674.84375 460.679688 L 674.84375 505.257812 Z M 674.972656 505.257812 " fill-opacity="1" fill-rule="nonzero"/></g><path fill="#894f2c" d="M 497.917969 460.054688 C 495.910156 457.417969 493.773438 454.90625 491.515625 452.644531 C 491.136719 452.269531 490.761719 451.890625 490.382812 451.515625 C 488.25 449.503906 485.988281 447.496094 483.605469 445.738281 C 482.851562 445.234375 482.097656 444.609375 481.34375 444.105469 C 479.082031 442.597656 476.824219 441.21875 474.4375 439.960938 C 473.308594 439.335938 472.175781 438.832031 471.046875 438.328125 C 468.785156 437.324219 466.527344 436.320312 464.265625 435.566406 C 463.636719 435.316406 462.882812 435.191406 462.257812 434.9375 C 461.503906 435.441406 460.625 435.691406 459.871094 436.195312 C 456.984375 437.828125 454.09375 439.335938 451.207031 440.839844 C 450.328125 441.21875 449.324219 441.71875 448.445312 442.222656 C 438.023438 446.742188 426.71875 449.757812 414.792969 450.761719 C 414.667969 450.761719 414.539062 450.761719 414.414062 450.761719 L 412.40625 451.011719 C 411.527344 451.011719 410.648438 451.136719 410.019531 451.136719 C 409.390625 451.136719 408.890625 451.136719 408.386719 451.011719 C 407.257812 451.011719 406.253906 451.136719 405.121094 451.136719 C 403.992188 451.136719 402.988281 451.011719 401.859375 451.011719 C 401.355469 451.011719 400.726562 451.136719 400.226562 451.136719 C 399.597656 451.136719 398.71875 451.136719 397.839844 451.011719 C 397.839844 451.011719 397.210938 451.011719 397.210938 451.011719 L 395.957031 451.011719 C 395.957031 451.011719 395.707031 450.761719 395.578125 450.761719 C 383.777344 449.757812 372.476562 446.742188 361.925781 442.222656 C 360.921875 441.847656 360.042969 441.34375 359.164062 440.839844 C 356.152344 439.460938 353.261719 437.953125 350.5 436.195312 C 349.746094 435.691406 348.867188 435.441406 348.113281 434.9375 C 347.488281 435.191406 346.734375 435.316406 346.105469 435.566406 C 343.71875 436.320312 341.460938 437.324219 339.324219 438.328125 C 338.195312 438.832031 337.0625 439.460938 335.933594 439.960938 C 333.546875 441.21875 331.164062 442.597656 329.027344 444.105469 C 328.273438 444.609375 327.519531 445.234375 326.765625 445.738281 C 324.382812 447.496094 322.121094 449.378906 319.988281 451.515625 C 319.609375 451.890625 319.234375 452.269531 318.855469 452.644531 C 316.597656 455.03125 314.335938 457.417969 312.453125 460.054688 C 312.453125 460.054688 312.453125 460.179688 312.328125 460.304688 C 303.664062 472.109375 298.640625 486.546875 298.640625 501.867188 L 298.640625 546.445312 C 298.640625 560.632812 310.191406 572.1875 324.382812 572.1875 L 486.242188 572.1875 C 500.429688 572.1875 511.980469 560.632812 511.980469 546.445312 L 511.980469 501.867188 C 511.980469 486.421875 506.960938 471.984375 498.296875 460.304688 C 498.296875 460.304688 498.296875 460.179688 498.167969 460.054688 Z M 497.917969 460.054688 " fill-opacity="1" fill-rule="nonzero"/><path fill="#894f2c" d="M 587.953125 393.5 C 587.199219 394.003906 586.445312 394.253906 585.691406 394.757812 C 583.558594 396.011719 581.296875 397.269531 579.035156 398.398438 C 577.90625 398.902344 576.902344 399.402344 575.769531 399.90625 C 572.757812 401.285156 569.742188 402.542969 566.605469 403.671875 C 566.355469 403.671875 565.976562 403.925781 565.726562 404.050781 C 554.800781 407.816406 543.125 409.953125 530.816406 409.953125 C 527.425781 409.953125 524.164062 409.574219 520.773438 409.324219 C 519.765625 409.324219 518.886719 409.324219 517.882812 409.199219 C 515.875 408.945312 513.867188 408.570312 511.730469 408.191406 C 509.34375 407.816406 506.960938 407.441406 504.699219 406.8125 C 502.941406 406.433594 501.308594 405.808594 499.550781 405.304688 C 497.917969 404.804688 496.160156 404.425781 494.527344 403.925781 C 493.898438 404.929688 493.148438 405.808594 492.519531 406.8125 C 493.648438 407.441406 494.527344 408.191406 495.65625 408.820312 C 497.164062 409.699219 498.796875 410.703125 500.304688 411.710938 C 503.695312 413.84375 506.832031 416.230469 509.847656 418.742188 C 510.851562 419.496094 511.730469 420.246094 512.734375 421.125 C 514.746094 422.886719 516.628906 424.769531 518.511719 426.652344 C 518.761719 426.902344 519.015625 427.28125 519.390625 427.53125 C 523.15625 431.421875 526.546875 435.691406 529.6875 440.085938 C 530.0625 440.589844 530.316406 440.964844 530.691406 441.46875 C 535.714844 448.753906 539.734375 456.664062 542.871094 465.074219 C 542.871094 465.328125 542.996094 465.453125 543.125 465.703125 C 547.265625 477.257812 549.777344 489.4375 549.777344 502.246094 L 549.777344 531.503906 L 611.933594 531.503906 C 626 531.503906 637.550781 519.949219 637.550781 505.761719 L 637.550781 461.183594 C 637.550781 430.167969 617.210938 403.042969 588.203125 394.003906 Z M 587.953125 393.5 " fill-opacity="1" fill-rule="nonzero"/></svg>