<svg xmlns="http://www.w3.org/2000/svg" xmlns:xlink="http://www.w3.org/1999/xlink" width="1080" zoomAndPan="magnify" viewBox="0 0 810 809.999993" height="1080" preserveAspectRatio="xMidYMid meet" version="1.0"><defs><clipPath id="d79b4fff54"><path d="M 520 195 L 762.292969 195 L 762.292969 438 L 520 438 Z M 520 195 " clip-rule="nonzero"/></clipPath><clipPath id="ff3ce07f96"><path d="M 47.542969 504 L 650 504 L 650 627 L 47.542969 627 Z M 47.542969 504 " clip-rule="nonzero"/></clipPath><clipPath id="39e7295e45"><path d="M 47.542969 112 L 650 112 L 650 522 L 47.542969 522 Z M 47.542969 112 " clip-rule="nonzero"/></clipPath></defs><rect x="-81" width="972" fill="#ffffff" y="-80.999999" height="971.999992" fill-opacity="1"/><rect x="-81" width="972" fill="#ffffff" y="-80.999999" height="971.999992" fill-opacity="1"/><g clip-path="url(#d79b4fff54)"><path fill="#325694" d="M 663.1875 437.453125 L 619.632812 437.453125 C 615.027344 437.453125 611.257812 433.683594 611.257812 429.074219 L 611.257812 403.949219 C 607.90625 403.109375 604.136719 401.433594 600.367188 399.757812 L 583.195312 417.347656 C 579.847656 420.699219 574.402344 420.699219 571.050781 417.347656 L 540.476562 386.777344 C 537.128906 383.425781 537.128906 378.402344 540.058594 375.050781 L 557.648438 357.042969 C 555.972656 353.691406 554.71875 349.921875 553.460938 346.570312 L 528.75 346.570312 C 524.144531 346.570312 520.375 342.800781 520.375 338.195312 L 520.375 294.640625 C 520.375 290.03125 524.144531 286.261719 528.75 286.261719 L 553.460938 286.261719 C 554.71875 282.914062 556.394531 279.5625 557.648438 276.210938 L 540.058594 258.203125 C 537.128906 254.851562 537.128906 249.828125 540.058594 246.476562 L 571.050781 215.484375 C 572.726562 213.808594 574.820312 212.972656 577.332031 212.972656 C 579.425781 212.972656 581.519531 213.808594 583.195312 215.484375 L 600.367188 233.074219 C 604.136719 231.398438 607.488281 230.144531 611.257812 228.886719 L 611.257812 204.175781 C 611.257812 199.570312 615.027344 195.800781 619.632812 195.800781 L 663.1875 195.800781 C 667.796875 195.800781 671.566406 199.570312 671.566406 204.175781 L 671.566406 228.886719 C 674.914062 230.144531 678.683594 231.398438 682.035156 233.074219 L 699.207031 215.484375 C 700.882812 213.808594 702.976562 212.972656 705.488281 212.972656 C 707.582031 212.972656 709.675781 213.808594 711.351562 215.484375 L 742.34375 246.476562 C 745.273438 249.828125 745.273438 254.851562 742.34375 258.203125 L 724.335938 276.210938 C 726.007812 279.5625 727.683594 282.914062 728.941406 286.261719 L 754.070312 286.261719 C 758.675781 286.261719 762.445312 290.03125 762.445312 294.640625 L 762.445312 338.195312 C 762.445312 342.800781 758.675781 346.570312 754.070312 346.570312 L 728.941406 346.570312 C 727.683594 350.339844 726.429688 353.691406 724.753906 357.042969 L 742.34375 375.050781 C 744.019531 376.304688 744.855469 378.820312 744.855469 380.914062 C 744.855469 383.007812 744.019531 385.101562 742.34375 386.777344 L 711.351562 417.347656 C 708 420.699219 702.976562 420.699219 699.625 417.347656 L 682.035156 400.179688 C 678.265625 401.855469 674.914062 403.109375 671.566406 404.367188 L 671.566406 429.074219 C 671.566406 433.683594 667.796875 437.453125 663.1875 437.453125 Z M 628.007812 420.699219 L 654.8125 420.699219 L 654.8125 398.085938 C 654.8125 394.316406 657.324219 390.964844 660.675781 389.707031 C 666.121094 388.03125 673.238281 385.9375 679.101562 382.167969 C 682.453125 380.496094 686.640625 380.914062 689.574219 383.425781 L 705.488281 399.339844 L 724.335938 380.496094 L 708.417969 364.578125 C 705.488281 361.648438 705.070312 357.460938 707.164062 354.109375 C 710.515625 348.246094 713.027344 342.382812 714.28125 336.101562 C 715.121094 332.332031 718.472656 329.820312 722.660156 329.820312 L 745.695312 329.820312 L 745.695312 303.015625 L 722.660156 303.015625 C 718.472656 303.015625 715.121094 300.503906 714.28125 296.734375 C 713.027344 290.871094 710.515625 284.585938 707.164062 278.722656 C 705.070312 275.375 705.488281 271.1875 708.417969 268.671875 L 724.753906 252.339844 L 705.488281 233.074219 L 689.574219 249.40625 C 686.640625 252.339844 682.453125 252.757812 679.101562 250.664062 C 673.660156 247.3125 667.375 244.800781 661.09375 243.125 C 657.324219 242.289062 654.394531 238.9375 654.394531 235.167969 L 654.394531 212.554688 L 627.589844 212.554688 L 627.589844 235.167969 C 627.589844 238.9375 625.078125 242.289062 621.308594 243.125 C 615.027344 244.800781 608.742188 247.3125 603.300781 250.664062 C 599.949219 252.757812 595.761719 251.921875 592.828125 249.40625 L 577.332031 233.074219 L 558.066406 252.339844 L 573.984375 268.671875 C 576.496094 271.1875 576.914062 275.375 575.238281 278.304688 C 571.890625 285.007812 569.375 290.871094 567.699219 297.152344 C 566.445312 300.503906 563.511719 303.015625 559.742188 303.015625 L 537.128906 303.015625 L 537.128906 329.820312 L 559.742188 329.820312 C 563.511719 329.820312 566.863281 332.332031 567.699219 336.101562 C 569.375 342.382812 571.890625 348.246094 575.238281 354.949219 C 576.914062 357.878906 576.496094 362.066406 573.984375 364.578125 L 558.066406 380.914062 L 577.332031 399.757812 L 593.246094 383.84375 C 595.761719 380.914062 599.949219 380.496094 603.300781 382.589844 C 609.164062 385.9375 616.28125 388.453125 621.726562 390.128906 C 625.496094 390.964844 628.007812 394.316406 628.007812 398.085938 Z M 628.007812 420.699219 " fill-opacity="1" fill-rule="evenodd"/></g><path fill="#325694" d="M 641.410156 367.09375 C 612.933594 367.09375 591.152344 344.894531 591.152344 316.417969 C 591.152344 288.777344 613.351562 266.160156 641.410156 266.160156 C 669.050781 266.160156 691.667969 288.777344 691.667969 316.417969 C 691.667969 344.476562 669.050781 367.09375 641.410156 367.09375 Z M 641.410156 282.914062 C 622.984375 282.914062 607.90625 297.988281 607.90625 316.417969 C 607.90625 335.261719 622.566406 350.339844 641.410156 350.339844 C 659.839844 350.339844 674.914062 335.261719 674.914062 316.417969 C 674.914062 297.988281 659.839844 282.914062 641.410156 282.914062 Z M 641.410156 282.914062 " fill-opacity="1" fill-rule="evenodd"/><g clip-path="url(#ff3ce07f96)"><path fill="#325694" d="M 600.367188 626.332031 L 104.082031 626.332031 C 73.089844 626.332031 47.542969 600.785156 47.542969 569.375 L 47.542969 512.835938 C 47.542969 508.230469 51.3125 504.460938 55.917969 504.460938 L 640.992188 504.460938 C 645.597656 504.460938 649.367188 508.230469 649.367188 512.835938 L 649.367188 576.914062 C 649.367188 604.136719 627.171875 626.332031 600.367188 626.332031 Z M 64.296875 521.214844 L 64.296875 569.375 C 64.296875 591.574219 82.304688 609.582031 104.082031 609.582031 L 600.367188 609.582031 C 617.957031 609.582031 632.617188 594.921875 632.617188 576.914062 L 632.617188 521.214844 Z M 64.296875 521.214844 " fill-opacity="1" fill-rule="evenodd"/></g><path fill="#325694" d="M 274.957031 697.949219 C 274.117188 697.949219 273.28125 697.53125 272.023438 697.53125 C 267.835938 695.855469 265.324219 691.25 266.996094 686.640625 L 291.707031 615.027344 C 293.382812 610.839844 297.988281 608.324219 302.175781 610 C 306.785156 611.675781 308.878906 616.28125 307.621094 620.46875 L 282.914062 692.085938 C 281.65625 695.855469 278.304688 697.949219 274.957031 697.949219 Z M 274.957031 697.949219 " fill-opacity="1" fill-rule="evenodd"/><path fill="#325694" d="M 429.914062 697.949219 C 426.144531 697.949219 423.210938 695.4375 421.957031 692.085938 L 397.246094 620.46875 C 395.570312 616.28125 398.085938 611.675781 402.273438 610 C 406.460938 608.324219 411.484375 610.839844 412.742188 615.027344 L 437.453125 686.640625 C 439.128906 691.25 436.613281 695.855469 432.425781 697.53125 C 431.589844 697.53125 430.75 697.949219 429.914062 697.949219 Z M 429.914062 697.949219 " fill-opacity="1" fill-rule="evenodd"/><path fill="#325694" d="M 475.980469 697.949219 L 217.578125 697.949219 C 212.972656 697.949219 209.203125 694.179688 209.203125 689.574219 C 209.203125 684.964844 212.972656 681.199219 217.578125 681.199219 L 475.980469 681.199219 C 480.589844 681.199219 484.359375 684.964844 484.359375 689.574219 C 484.359375 694.179688 480.589844 697.949219 475.980469 697.949219 Z M 475.980469 697.949219 " fill-opacity="1" fill-rule="evenodd"/><path fill="#325694" d="M 386.359375 573.5625 L 333.589844 573.5625 C 328.980469 573.5625 325.210938 569.792969 325.210938 565.1875 C 325.210938 560.582031 328.980469 556.8125 333.589844 556.8125 L 386.359375 556.8125 C 390.964844 556.8125 394.734375 560.582031 394.734375 565.1875 C 394.734375 569.792969 390.964844 573.5625 386.359375 573.5625 Z M 386.359375 573.5625 " fill-opacity="1" fill-rule="evenodd"/><path fill="#325694" d="M 510.742188 574.402344 L 480.589844 574.402344 C 475.980469 574.402344 472.214844 570.632812 472.214844 566.027344 C 472.214844 561.417969 475.980469 557.648438 480.589844 557.648438 L 510.742188 557.648438 C 515.351562 557.648438 519.121094 561.417969 519.121094 566.027344 C 519.121094 570.632812 515.351562 574.402344 510.742188 574.402344 Z M 510.742188 574.402344 " fill-opacity="1" fill-rule="evenodd"/><path fill="#325694" d="M 575.65625 574.402344 L 545.503906 574.402344 C 540.898438 574.402344 537.128906 570.632812 537.128906 566.027344 C 537.128906 561.417969 540.898438 557.648438 545.503906 557.648438 L 575.65625 557.648438 C 580.265625 557.648438 584.035156 561.417969 584.035156 566.027344 C 584.035156 570.632812 580.265625 574.402344 575.65625 574.402344 Z M 575.65625 574.402344 " fill-opacity="1" fill-rule="evenodd"/><g clip-path="url(#39e7295e45)"><path fill="#325694" d="M 640.992188 521.214844 C 636.386719 521.214844 632.617188 517.445312 632.617188 512.835938 L 632.617188 429.074219 C 632.617188 424.46875 636.386719 420.699219 640.992188 420.699219 C 645.597656 420.699219 649.367188 424.46875 649.367188 429.074219 L 649.367188 512.835938 C 649.367188 517.445312 645.597656 521.214844 640.992188 521.214844 Z M 55.917969 521.214844 C 51.3125 521.214844 47.542969 517.445312 47.542969 512.835938 L 47.542969 182.398438 C 47.542969 143.449219 78.953125 112.039062 117.902344 112.039062 L 579.007812 112.039062 C 617.539062 112.039062 649.367188 143.449219 649.367188 182.398438 L 649.367188 204.175781 C 649.367188 208.785156 645.597656 212.554688 640.992188 212.554688 C 636.386719 212.554688 632.617188 208.785156 632.617188 204.175781 L 632.617188 182.398438 C 632.617188 152.664062 608.324219 128.792969 579.007812 128.792969 L 117.902344 128.792969 C 89.003906 128.792969 64.296875 153.5 64.296875 182.398438 L 64.296875 512.835938 C 64.296875 517.445312 60.527344 521.214844 55.917969 521.214844 Z M 55.917969 521.214844 " fill-opacity="1" fill-rule="evenodd"/></g><path fill="#325694" d="M 301.339844 406.042969 L 254.433594 406.042969 C 249.828125 406.042969 246.058594 402.273438 246.058594 397.664062 L 246.058594 210.878906 C 246.058594 206.269531 249.828125 202.5 254.433594 202.5 L 301.339844 202.5 C 305.945312 202.5 309.714844 206.269531 309.714844 210.878906 L 309.714844 397.664062 C 309.714844 402.273438 305.945312 406.042969 301.339844 406.042969 Z M 262.808594 389.289062 L 292.964844 389.289062 L 292.964844 219.253906 L 262.808594 219.253906 Z M 262.808594 389.289062 " fill-opacity="1" fill-rule="evenodd"/><path fill="#325694" d="M 410.230469 406.878906 L 363.324219 406.878906 C 358.714844 406.878906 354.949219 403.109375 354.949219 398.503906 L 354.949219 265.324219 L 330.238281 265.324219 C 325.628906 265.324219 321.863281 261.554688 321.863281 256.945312 L 321.863281 210.039062 C 321.863281 205.433594 325.628906 201.664062 330.238281 201.664062 L 442.898438 201.664062 C 447.503906 201.664062 451.273438 205.433594 451.273438 210.039062 L 451.273438 256.945312 C 451.273438 261.554688 447.503906 265.324219 442.898438 265.324219 L 418.605469 265.324219 L 418.605469 398.503906 C 418.605469 403.109375 414.835938 406.878906 410.230469 406.878906 Z M 371.699219 390.128906 L 401.855469 390.128906 L 401.855469 256.945312 C 401.855469 252.339844 405.621094 248.570312 410.230469 248.570312 L 434.519531 248.570312 L 434.519531 218.417969 L 338.613281 218.417969 L 338.613281 248.570312 L 363.324219 248.570312 C 367.929688 248.570312 371.699219 252.339844 371.699219 256.945312 Z M 371.699219 390.128906 " fill-opacity="1" fill-rule="evenodd"/><path fill="#325694" d="M 476.820312 445.410156 L 220.511719 445.410156 C 215.902344 445.410156 212.132812 441.640625 212.132812 437.035156 C 212.132812 432.425781 215.902344 428.65625 220.511719 428.65625 L 476.820312 428.65625 C 481.425781 428.65625 485.195312 432.425781 485.195312 437.035156 C 485.195312 441.640625 481.425781 445.410156 476.820312 445.410156 Z M 476.820312 445.410156 " fill-opacity="1" fill-rule="evenodd"/></svg>