<svg xmlns="http://www.w3.org/2000/svg" xmlns:xlink="http://www.w3.org/1999/xlink" width="1080" zoomAndPan="magnify" viewBox="0 0 810 809.999993" height="1080" preserveAspectRatio="xMidYMid meet" version="1.0"><defs><clipPath id="6bb1a214e8"><path d="M 22.496094 28.710938 L 787 28.710938 L 787 780.960938 L 22.496094 780.960938 Z M 22.496094 28.710938 " clip-rule="nonzero"/></clipPath></defs><rect x="-81" width="972" fill="none" y="-80.999999" height="971.999992" fill-opacity="1"/><rect x="-81" width="972" fill="none" y="-80.999999" height="971.999992" fill-opacity="1"/><g clip-path="url(#6bb1a214e8)"><path fill="#8d5604" d="M 207.773438 494.9375 C 152.046875 494.9375 106.710938 540.273438 106.710938 595.996094 C 106.710938 651.71875 152.046875 697.054688 207.773438 697.054688 C 263.496094 697.054688 308.832031 651.71875 308.832031 595.996094 C 308.832031 540.273438 263.496094 494.9375 207.773438 494.9375 Z M 207.773438 672.433594 C 165.625 672.433594 131.335938 638.144531 131.335938 595.996094 C 131.335938 553.851562 165.625 519.5625 207.773438 519.5625 C 249.917969 519.5625 284.207031 553.851562 284.207031 595.996094 C 284.207031 638.144531 249.917969 672.433594 207.773438 672.433594 Z M 782.445312 464.039062 L 757.671875 439.261719 C 753.613281 435.207031 747.296875 434.488281 742.433594 437.53125 L 697.003906 465.953125 C 694.695312 467.398438 692.929688 469.566406 691.988281 472.117188 L 682.933594 496.585938 L 639.789062 539.734375 C 613.6875 499.804688 578.554688 466.199219 537.351562 441.992188 C 510.800781 426.398438 482.089844 414.941406 452.25 407.902344 C 497.453125 385.875 531.132812 343.417969 540.664062 291.761719 L 542.84375 291.761719 C 561.578125 291.761719 576.824219 276.519531 576.824219 257.785156 C 576.824219 241.953125 565.941406 228.617188 551.265625 224.859375 C 551.265625 224.503906 551.265625 224.148438 551.265625 223.792969 C 551.265625 152.644531 507.582031 89.800781 441.6875 64.796875 C 440.570312 58.171875 437.621094 52.132812 432.945312 46.992188 C 417.546875 30.050781 389.492188 28.726562 381.210938 28.726562 C 381.1875 28.726562 381.164062 28.726562 381.144531 28.726562 C 372.851562 28.726562 344.796875 30.054688 329.398438 46.992188 C 324.722656 52.132812 321.777344 58.175781 320.65625 64.796875 C 254.761719 89.800781 211.078125 152.644531 211.078125 223.792969 C 211.078125 224.148438 211.078125 224.503906 211.078125 224.859375 C 196.402344 228.617188 185.519531 241.953125 185.519531 257.785156 C 185.519531 276.519531 200.761719 291.765625 219.5 291.765625 L 221.675781 291.765625 C 231.214844 343.445312 264.925781 385.921875 310.164062 407.9375 C 288.375 413.070312 267.183594 420.550781 247.042969 430.261719 L 242.640625 418.828125 C 240.8125 414.074219 236.246094 410.9375 231.152344 410.9375 L 184.394531 410.9375 C 179.300781 410.9375 174.734375 414.074219 172.90625 418.828125 L 164.15625 441.554688 C 152.050781 444.96875 140.410156 449.792969 129.421875 455.957031 L 107.148438 446.066406 C 102.496094 443.996094 97.046875 445.007812 93.445312 448.609375 L 60.382812 481.671875 C 56.78125 485.273438 55.769531 490.71875 57.835938 495.375 L 67.726562 517.644531 C 61.566406 528.636719 56.738281 540.277344 53.328125 552.382812 L 30.601562 561.128906 C 25.847656 562.957031 22.710938 567.523438 22.710938 572.617188 L 22.710938 619.375 C 22.710938 624.46875 25.847656 629.035156 30.601562 630.867188 L 53.320312 639.613281 C 56.734375 651.726562 61.558594 663.367188 67.722656 674.355469 L 57.835938 696.621094 C 55.765625 701.277344 56.78125 706.722656 60.382812 710.324219 L 93.445312 743.386719 C 97.046875 746.988281 102.488281 748 107.148438 745.933594 L 129.421875 736.039062 C 140.414062 742.203125 152.050781 747.027344 164.152344 750.441406 L 172.902344 773.167969 C 174.730469 777.921875 179.296875 781.054688 184.390625 781.054688 L 231.148438 781.054688 C 236.242188 781.054688 240.808594 777.917969 242.640625 773.167969 L 251.386719 750.445312 C 263.5 747.03125 275.136719 742.207031 286.132812 736.042969 L 308.394531 745.929688 C 313.046875 748 318.496094 746.984375 322.097656 743.386719 L 355.15625 710.324219 C 358.757812 706.722656 359.773438 701.277344 357.703125 696.621094 L 354.246094 688.835938 L 466.757812 688.835938 L 444.042969 711.546875 C 439.234375 716.355469 439.234375 724.148438 444.042969 728.957031 L 492.746094 777.660156 C 495.054688 779.96875 498.1875 781.265625 501.453125 781.265625 C 504.71875 781.265625 507.851562 779.96875 510.160156 777.660156 L 598.988281 688.832031 L 675.9375 688.832031 C 679.429688 688.832031 682.761719 687.347656 685.09375 684.75 C 687.429688 682.152344 688.550781 678.683594 688.179688 675.210938 C 685.238281 647.753906 678.636719 620.925781 668.558594 595.332031 L 725.117188 538.773438 L 749.585938 529.71875 C 752.140625 528.773438 754.304688 527.007812 755.75 524.703125 L 784.175781 479.269531 C 787.21875 474.410156 786.5 468.09375 782.445312 464.039062 Z M 621.992188 557.527344 L 607.484375 572.03125 L 607.484375 536.644531 C 612.601562 543.363281 617.460938 550.3125 621.992188 557.527344 Z M 347.617188 63.554688 C 353.082031 57.542969 366.859375 53.347656 381.144531 53.347656 C 381.164062 53.347656 381.1875 53.347656 381.207031 53.347656 C 395.480469 53.347656 409.261719 57.542969 414.722656 63.554688 C 416.996094 66.054688 417.851562 68.804688 417.5 72.476562 C 417.480469 72.683594 417.476562 72.890625 417.46875 73.097656 L 417.433594 73.09375 L 409.628906 133.191406 C 408.707031 140.28125 402.851562 145.425781 395.703125 145.425781 L 366.636719 145.425781 C 359.488281 145.425781 353.632812 140.28125 352.710938 133.191406 L 344.90625 73.09375 L 344.871094 73.097656 C 344.863281 72.890625 344.859375 72.683594 344.839844 72.476562 C 344.488281 68.804688 345.34375 66.050781 347.617188 63.554688 Z M 322.367188 90.726562 L 328.292969 136.363281 C 330.785156 155.566406 347.269531 170.050781 366.636719 170.050781 L 395.703125 170.050781 C 415.070312 170.050781 431.554688 155.566406 434.046875 136.363281 L 439.972656 90.726562 C 492.363281 113.785156 526.640625 165.519531 526.640625 223.792969 C 526.640625 223.796875 526.640625 223.800781 526.640625 223.804688 L 235.699219 223.804688 C 235.699219 223.800781 235.699219 223.796875 235.699219 223.792969 C 235.699219 165.515625 269.976562 113.785156 322.367188 90.726562 Z M 542.839844 248.429688 C 548 248.429688 552.199219 252.625 552.199219 257.785156 C 552.199219 262.941406 548 267.140625 542.839844 267.140625 L 219.5 267.140625 C 214.339844 267.140625 210.144531 262.941406 210.144531 257.785156 C 210.144531 252.625 214.339844 248.429688 219.5 248.429688 Z M 246.808594 291.761719 L 515.53125 291.761719 C 501.863281 354.136719 446.382812 399.625 381.1875 399.632812 C 381.183594 399.632812 381.175781 399.632812 381.171875 399.632812 C 381.164062 399.632812 381.15625 399.632812 381.152344 399.632812 C 315.957031 399.625 260.476562 354.136719 246.808594 291.761719 Z M 381.171875 424.257812 C 381.179688 424.257812 381.1875 424.257812 381.195312 424.257812 C 431.773438 424.261719 480.679688 437.917969 523.277344 462.535156 L 523.277344 531.921875 L 354.902344 531.921875 C 352.777344 527.054688 350.425781 522.285156 347.820312 517.636719 L 357.707031 495.371094 C 359.773438 490.71875 358.765625 485.269531 355.160156 481.667969 L 322.097656 448.605469 C 318.496094 445.007812 313.050781 443.992188 308.394531 446.0625 L 286.125 455.953125 C 280.4375 452.765625 274.574219 449.941406 268.566406 447.480469 C 303.914062 432.25 342.371094 424.261719 381.140625 424.257812 C 381.152344 424.257812 381.160156 424.257812 381.171875 424.257812 Z M 310.664062 719.996094 L 290.347656 710.972656 C 286.632812 709.324219 282.351562 709.609375 278.894531 711.742188 C 266.621094 719.300781 253.308594 724.820312 239.316406 728.148438 C 235.367188 729.089844 232.136719 731.914062 230.679688 735.703125 L 222.699219 756.433594 L 192.847656 756.433594 L 184.863281 735.695312 C 183.40625 731.90625 180.171875 729.082031 176.222656 728.140625 C 162.246094 724.816406 148.9375 719.296875 136.660156 711.738281 C 133.199219 709.609375 128.921875 709.324219 125.207031 710.96875 L 104.878906 719.996094 L 83.773438 698.890625 L 92.796875 678.574219 C 94.445312 674.859375 94.15625 670.574219 92.027344 667.117188 C 84.472656 654.847656 78.949219 641.535156 75.621094 627.542969 C 74.679688 623.59375 71.855469 620.359375 68.066406 618.902344 L 47.335938 610.921875 L 47.335938 581.070312 L 68.070312 573.089844 C 71.859375 571.632812 74.683594 568.398438 75.625 564.449219 C 78.953125 550.46875 84.472656 537.15625 92.03125 524.882812 C 94.160156 521.421875 94.445312 517.140625 92.796875 513.429688 L 83.773438 493.105469 L 104.878906 471.996094 L 125.207031 481.023438 C 128.914062 482.671875 133.203125 482.386719 136.660156 480.257812 C 148.933594 472.699219 162.246094 467.179688 176.222656 463.851562 C 180.171875 462.914062 183.40625 460.085938 184.863281 456.296875 L 192.847656 435.558594 L 222.695312 435.558594 L 230.679688 456.296875 C 232.136719 460.085938 235.367188 462.914062 239.320312 463.851562 C 253.296875 467.179688 266.609375 472.699219 278.882812 480.257812 C 282.34375 482.386719 286.625 482.671875 290.335938 481.027344 L 310.664062 472 L 331.769531 493.105469 L 322.746094 513.425781 C 321.097656 517.136719 321.386719 521.421875 323.515625 524.878906 C 331.074219 537.152344 336.59375 550.464844 339.921875 564.453125 C 340.859375 568.402344 343.6875 571.632812 347.476562 573.09375 L 368.207031 581.070312 L 368.207031 610.921875 L 347.46875 618.90625 C 343.683594 620.363281 340.855469 623.59375 339.914062 627.542969 C 336.589844 641.523438 331.070312 654.835938 323.511719 667.109375 C 321.382812 670.566406 321.09375 674.851562 322.742188 678.5625 L 331.769531 698.890625 Z M 353.015625 664.210938 C 356.75 656.277344 359.835938 648.0625 362.21875 639.613281 L 384.945312 630.863281 C 389.699219 629.035156 392.832031 624.46875 392.832031 619.375 L 392.832031 572.617188 C 392.832031 567.523438 389.695312 562.957031 384.945312 561.125 L 373.042969 556.542969 L 535.585938 556.542969 C 542.386719 556.542969 547.898438 551.03125 547.898438 544.234375 L 547.898438 478.527344 C 560.300781 487.503906 572 497.488281 582.859375 508.398438 L 582.859375 596.660156 L 573.734375 605.785156 C 564.957031 600.796875 553.578125 602.015625 546.097656 609.496094 L 491.382812 664.210938 Z M 501.453125 751.542969 L 470.164062 720.25 L 562.371094 628.042969 L 593.660156 659.335938 Z M 661.90625 664.210938 L 618.414062 664.210938 C 618.75 662.625 618.9375 660.996094 618.9375 659.335938 C 618.9375 655.277344 617.878906 651.390625 615.925781 647.964844 L 649.414062 614.476562 C 655.070312 630.628906 659.257812 647.261719 661.90625 664.210938 Z M 737.101562 508.082031 L 714.046875 516.617188 C 712.378906 517.230469 710.871094 518.199219 709.613281 519.457031 L 599.109375 629.960938 L 591.746094 622.597656 L 702.25 512.09375 C 703.503906 510.835938 704.472656 509.324219 705.089844 507.660156 L 713.625 484.601562 L 747.1875 463.601562 L 758.105469 474.519531 Z M 737.101562 508.082031 " fill-opacity="1" fill-rule="nonzero"/></g></svg>