<svg xmlns="http://www.w3.org/2000/svg" xmlns:xlink="http://www.w3.org/1999/xlink" width="1080" zoomAndPan="magnify" viewBox="0 0 810 809.999993" height="1080" preserveAspectRatio="xMidYMid meet" version="1.0"><defs><clipPath id="91715aca03"><path d="M 160 441 L 760.8125 441 L 760.8125 731.675781 L 160 731.675781 Z M 160 441 " clip-rule="nonzero"/></clipPath></defs><rect x="-81" width="972" fill="#ffffff" y="-80.999999" height="971.999992" fill-opacity="1"/><rect x="-81" width="972" fill="#ffffff" y="-80.999999" height="971.999992" fill-opacity="1"/><path fill="#0086a4" d="M 294.097656 551.898438 C 248.171875 597.878906 173.390625 597.878906 127.464844 551.898438 C 81.484375 505.976562 81.484375 431.191406 127.464844 385.269531 L 231.558594 281.117188 L 398.25 447.804688 Z M 543.390625 135.972656 C 486.183594 78.710938 392.976562 78.710938 335.710938 135.972656 L 221.296875 250.332031 L 106.941406 364.746094 C 49.679688 422.007812 49.679688 515.160156 106.941406 572.425781 C 135.574219 601.054688 173.164062 615.398438 210.753906 615.398438 C 248.398438 615.398438 285.988281 601.054688 314.621094 572.425781 L 429.035156 458.066406 L 543.390625 343.652344 C 600.65625 286.390625 600.65625 193.238281 543.390625 135.972656 " fill-opacity="1" fill-rule="nonzero"/><g clip-path="url(#91715aca03)"><path fill="#0086a4" d="M 615.453125 441.285156 L 486.863281 441.285156 L 441.28125 486.867188 L 441.28125 702.542969 L 296.136719 702.542969 C 253.046875 702.542969 215.289062 678.898438 195.273438 643.75 C 183.199219 642.726562 171.460938 640.402344 160.121094 637.058594 C 180.761719 692.109375 233.886719 731.570312 296.136719 731.570312 L 615.453125 731.570312 C 695.453125 731.570312 760.597656 666.425781 760.597656 586.429688 C 760.597656 506.429688 695.453125 441.285156 615.453125 441.285156 " fill-opacity="1" fill-rule="nonzero"/></g></svg>